<svg width="22" height="30" viewBox="0 0 22 30" fill="none" xmlns="http://www.w3.org/2000/svg">
<path d="M9.16668 28.125L9.16668 6.40156L3.12963 12.5758C2.41377 13.3081 1.2529 13.3081 0.536924 12.5758C0.179058 12.2097 0 11.7298 0 11.2499C0 10.7701 0.179056 10.2902 0.537046 9.92418L9.70372 0.549187C10.4196 -0.183062 11.5804 -0.183062 12.2964 0.549187L21.4631 9.92418C22.179 10.6563 22.179 11.8436 21.4631 12.5758C20.7473 13.3081 19.5864 13.3081 18.8704 12.5758L12.8334 6.40156L12.8334 28.125C12.8334 29.1605 11.9176 30 10.9051 30C9.89264 30 9.16668 29.1605 9.16668 28.125Z" fill="url(#paint0_linear_4100_573)"/>
<defs>
<linearGradient id="paint0_linear_4100_573" x1="11" y1="73" x2="11" y2="-19.5" gradientUnits="userSpaceOnUse">
<stop offset="0.459937" stop-color="white"/>
<stop offset="1" stop-color="#FFB600"/>
</linearGradient>
</defs>
</svg>
