<svg width="18" height="14" viewBox="0 0 18 14" fill="none" xmlns="http://www.w3.org/2000/svg">
<path d="M16.875 5.83334L3.84094 5.83334L7.54548 1.99158C7.98483 1.53604 7.98483 0.797302 7.54548 0.34168C7.32581 0.113946 7.03788 9.53674e-07 6.74996 9.53674e-07C6.46203 9.53674e-07 6.17411 0.113946 5.95451 0.341757L0.329512 6.1751C-0.109837 6.63064 -0.109837 7.36938 0.329512 7.825L5.95451 13.6583C6.39378 14.1139 7.10613 14.1139 7.54548 13.6583C7.98483 13.2028 7.98483 12.4641 7.54548 12.0084L3.84094 8.16668L16.875 8.16668C17.4963 8.16668 18 7.58394 18 6.93963C18 6.29532 17.4963 5.83334 16.875 5.83334Z" fill="#55585D"/>
</svg>
