<svg width="872" height="357" viewBox="0 0 872 357" fill="none" xmlns="http://www.w3.org/2000/svg">
<path fill-rule="evenodd" clip-rule="evenodd" d="M165.212 95.678L173.968 94.1558L178.694 98.3287L431.765 54.3309L431.438 49.3932L667.154 8.4126L674.761 50.7264L670.625 55.5791L688.7 156.111L693.642 155.737L712.659 261.503L693.873 264.769L688.937 260.633L443.23 303.35L443.197 308.351L210.717 348.768L203.109 306.455L207.253 301.639L176.258 129.256L171.261 129.32L165.212 95.678Z" fill="#66D4FF"/>
<path fill-rule="evenodd" clip-rule="evenodd" d="M188.858 54.2019L670.648 55.6348L674.762 50.7264L693.421 50.782L693.642 155.737L688.713 156.154L688.934 260.797L693.873 264.769L693.964 307.915L668.537 307.839L663.877 302.905L207.29 301.547L203.109 306.455L184.45 306.399L184.41 287.207L189.332 282.66L188.858 54.2019Z" fill="#EA007D"/>
<path fill-rule="evenodd" clip-rule="evenodd" d="M178.996 28.7799L431.438 49.3932L431.796 54.3593L681.508 74.7496L663.946 303.234L668.537 307.839L667.093 326.63L443.244 308.348L443.33 303.418L189.421 282.68L184.41 287.207L159.279 285.155L171.262 129.336L176.213 129.268L178.595 98.2935L173.968 94.1558L178.996 28.7799Z" fill="#FFB833"/>
<path fill-rule="evenodd" clip-rule="evenodd" d="M670.642 55.6288L438.955 54.9401L673.965 74.1299L670.642 55.6288ZM679.28 103.721L666.924 264.462L688.924 260.634L688.707 156.134L679.28 103.721ZM428.463 302.202L204.054 283.878L207.239 301.543L428.463 302.202Z" fill="#873EEE"/>
<path fill-rule="evenodd" clip-rule="evenodd" d="M176.226 129.091L178.592 98.3383L188.947 96.5375L189.548 203.153L176.226 129.091Z" fill="#00AE46"/>
<path fill-rule="evenodd" clip-rule="evenodd" d="M432.526 54.4185L188.946 96.5374L189.548 203.153L204.054 283.878L442.998 303.393L666.924 264.462L679.28 103.721L673.965 74.1297L432.526 54.4185Z" fill="url(#paint0_linear_4036_351)"/>
<path fill-rule="evenodd" clip-rule="evenodd" d="M188.858 54.2019L188.947 96.5376L432.526 54.4185L188.858 54.2019ZM681.509 74.7499L673.965 74.1299L679.28 103.721L681.509 74.7499ZM204.054 283.878L189.331 282.678L189.548 203.153L204.054 283.878ZM666.924 264.462L449.467 302.261L663.976 302.901L666.924 264.462Z" fill="#DD312D"/>
<path fill-rule="evenodd" clip-rule="evenodd" d="M580.301 207.06L574.183 218.411C573.594 219.504 572.886 220.331 572.058 220.891C571.229 221.451 570.329 221.731 569.357 221.731C568.605 221.731 567.825 221.567 567.017 221.239L567.818 218.719C568.393 218.897 568.872 218.985 569.255 218.985C569.666 218.985 570.035 218.886 570.364 218.688C570.692 218.49 570.993 218.179 571.267 217.756L571.39 217.592L565.723 207.06H569.276L573.094 214.764L577.036 207.06H580.301ZM593.591 209.747H589.015V221.31H585.751V209.747H581.205V207.06H593.591V209.747ZM537.391 207.06H540.675V216.35L547.489 207.06H550.586V221.31H547.321V212.05L540.508 221.31H537.391V207.06ZM564.736 209.747H560.161V221.31H556.897V209.747H552.351V207.06H564.736V209.747ZM535.311 209.747H530.735V221.31H527.471V209.747H522.925V207.06H535.311V209.747ZM516.476 221.556C515.027 221.556 513.705 221.241 512.532 220.611C511.358 219.981 510.431 219.106 509.761 217.984C509.08 216.862 508.745 215.602 508.745 214.185C508.745 212.778 509.08 211.509 509.761 210.396C510.431 209.275 511.358 208.399 512.532 207.769C513.705 207.139 515.027 206.824 516.496 206.824C517.738 206.824 518.853 207.041 519.859 207.473C520.854 207.907 521.693 208.527 522.373 209.343L520.253 211.302C519.286 210.19 518.093 209.629 516.663 209.629C515.776 209.629 514.987 209.826 514.297 210.21C513.607 210.593 513.064 211.134 512.679 211.823C512.285 212.522 512.098 213.309 512.098 214.185C512.098 215.071 512.285 215.858 512.679 216.547C513.064 217.246 513.607 217.787 514.297 218.171C514.987 218.554 515.776 218.751 516.663 218.751C518.093 218.751 519.286 218.19 520.253 217.059L522.373 219.017C521.693 219.844 520.854 220.473 519.849 220.907C518.843 221.34 517.719 221.556 516.476 221.556ZM506.161 207.06V221.31H502.848V215.474H496.369V221.31H493.056V207.06H496.369V212.68H502.848V207.06H506.161ZM476.312 207.06H479.595V216.35L486.41 207.06H489.506V221.31H486.251V212.05L479.438 221.31H476.312V207.06ZM460.376 206.145C457.773 206.145 456.451 205.112 456.422 203.035H458.69C458.71 204.02 459.282 204.522 460.376 204.522C460.928 204.522 461.343 204.393 461.629 204.147C461.914 203.891 462.062 203.517 462.073 203.035H464.34C464.321 204.049 463.995 204.826 463.334 205.358C462.683 205.88 461.698 206.145 460.376 206.145ZM453.789 207.06H457.073V216.35L463.887 207.06H466.993V221.31H463.729V212.05L456.915 221.31H453.789V207.06ZM446.955 207.06H450.239V221.31H446.955V207.06ZM439.086 218.869C439.944 218.869 440.605 218.663 441.088 218.239C441.571 217.816 441.818 217.207 441.818 216.409C441.818 214.933 440.9 214.185 439.086 214.185H436.108V218.869H439.086ZM439.737 211.745C441.473 211.745 442.813 212.129 443.74 212.906C444.678 213.683 445.141 214.825 445.141 216.35C445.141 217.964 444.628 219.194 443.603 220.04C442.577 220.887 441.128 221.31 439.264 221.31H432.824V207.06H436.108V211.745H439.737ZM429.254 207.06V221.31H425.941V215.474H419.462V221.31H416.149V207.06H419.462V212.68H425.941V207.06H429.254ZM412.58 207.06V221.31H409.276V215.474H402.788V221.31H399.484V207.06H402.788V212.68H409.276V207.06H412.58ZM396.811 218.673V221.31H385.757V207.06H396.545V209.707H389.041V212.808H395.668V215.366H389.041V218.673H396.811ZM382.188 207.06V221.31H378.884V215.474H372.396V221.31H369.092V207.06H372.396V212.68H378.884V207.06H382.188ZM352.338 207.06H355.622V216.35L362.435 207.06H365.542V221.31H362.278V212.05L355.464 221.31H352.338V207.06ZM339.903 211.823C339.834 213.526 339.686 214.943 339.469 216.094C339.252 217.236 338.917 218.082 338.473 218.623H344.853V209.747H339.962L339.903 211.823ZM350.119 218.623V224.262H347.062V221.31H336.984V224.262H333.917L333.937 218.623H334.509C335.367 218.604 335.978 217.974 336.323 216.753C336.679 215.533 336.896 213.791 336.984 211.518L337.142 207.06H348.117V218.623H350.119ZM332.714 218.673V221.31H321.66V207.06H332.448V209.707H324.944V212.808H331.57V215.366H324.944V218.673H332.714ZM313.219 218.869C314.087 218.869 314.757 218.663 315.23 218.239C315.714 217.816 315.951 217.207 315.951 216.409C315.951 214.933 315.033 214.185 313.219 214.185H310.241V218.869H313.219ZM313.889 211.745C315.625 211.745 316.966 212.129 317.883 212.906C318.81 213.683 319.274 214.825 319.274 216.35C319.274 217.964 318.761 219.194 317.735 220.04C316.71 220.887 315.26 221.31 313.396 221.31H306.977V209.747H302.954V207.06H310.241V211.745H313.889ZM296.672 218.869C297.51 218.869 298.161 218.702 298.605 218.378C299.058 218.043 299.285 217.551 299.285 216.921C299.285 215.671 298.408 215.041 296.672 215.041H293.369V218.869H296.672ZM290.085 207.06H301.612V209.688H293.369V212.62H297.323C299.049 212.62 300.37 212.984 301.267 213.703C302.174 214.421 302.628 215.455 302.628 216.813C302.628 218.239 302.125 219.342 301.12 220.129C300.114 220.916 298.694 221.31 296.859 221.31H290.085V207.06ZM279.721 218.751C280.559 218.751 281.328 218.554 281.999 218.171C282.679 217.787 283.221 217.246 283.606 216.547C283.991 215.858 284.188 215.071 284.188 214.185C284.188 213.309 283.991 212.522 283.606 211.823C283.221 211.134 282.679 210.593 281.999 210.21C281.328 209.826 280.559 209.629 279.721 209.629C278.873 209.629 278.113 209.826 277.433 210.21C276.752 210.593 276.22 211.134 275.835 211.823C275.441 212.522 275.254 213.309 275.254 214.185C275.254 215.071 275.441 215.858 275.835 216.547C276.22 217.246 276.752 217.787 277.433 218.171C278.113 218.554 278.873 218.751 279.721 218.751ZM279.721 221.556C278.232 221.556 276.901 221.241 275.707 220.601C274.524 219.962 273.587 219.086 272.916 217.964C272.246 216.842 271.901 215.582 271.901 214.185C271.901 212.788 272.246 211.528 272.916 210.416C273.587 209.294 274.524 208.418 275.707 207.779C276.901 207.139 278.232 206.824 279.721 206.824C281.2 206.824 282.531 207.139 283.714 207.779C284.898 208.418 285.835 209.294 286.515 210.416C287.195 211.528 287.531 212.788 287.531 214.185C287.531 215.582 287.195 216.842 286.515 217.964C285.835 219.086 284.898 219.962 283.714 220.601C282.531 221.241 281.2 221.556 279.721 221.556ZM574.033 234.221C571.429 234.221 570.108 233.188 570.078 231.111H572.346C572.366 232.095 572.938 232.597 574.033 232.597C574.585 232.597 574.999 232.469 575.285 232.213C575.571 231.968 575.719 231.594 575.728 231.111H577.997C577.977 232.125 577.652 232.903 576.991 233.424C576.34 233.956 575.354 234.221 574.033 234.221ZM567.446 235.136H570.729V244.417L577.543 235.136H580.65V249.386H577.385V240.126L570.571 249.386H567.446V235.136ZM550.701 235.136H553.985V244.417L560.799 235.136H563.895V249.386H560.631V240.126L553.817 249.386H550.701V235.136ZM547.132 235.136V249.386H543.828V243.55H537.339V249.386H534.036V235.136H537.339V240.756H543.828V235.136H547.132ZM526.364 243.826L524.096 238.374L521.838 243.826H526.364ZM527.4 246.335H520.773L519.511 249.386H516.118L522.489 235.136H525.753L532.133 249.386H528.672L527.4 246.335ZM509.452 246.945C511.001 246.945 511.779 246.335 511.779 245.115C511.779 243.934 511.001 243.344 509.452 243.344H505.823V246.945H509.452ZM505.823 241.041H508.9C509.62 241.041 510.162 240.893 510.527 240.608C510.902 240.312 511.08 239.88 511.08 239.309C511.08 238.758 510.892 238.325 510.517 238.029C510.152 237.734 509.61 237.577 508.9 237.577H505.823V241.041ZM512.43 241.956C513.298 242.212 513.969 242.635 514.432 243.216C514.886 243.806 515.123 244.525 515.123 245.381C515.123 246.641 514.639 247.624 513.683 248.333C512.726 249.031 511.355 249.386 509.571 249.386H502.54V235.136H509.186C510.843 235.136 512.135 235.461 513.061 236.091C513.988 236.731 514.452 237.646 514.452 238.827C514.452 239.525 514.274 240.145 513.919 240.686C513.564 241.218 513.071 241.641 512.43 241.956ZM492.175 246.827C493.014 246.827 493.773 246.63 494.454 246.247C495.134 245.853 495.666 245.312 496.061 244.623C496.445 243.934 496.643 243.147 496.643 242.261C496.643 241.385 496.445 240.598 496.061 239.899C495.666 239.21 495.134 238.669 494.454 238.285C493.773 237.892 493.014 237.705 492.175 237.705C491.327 237.705 490.568 237.892 489.888 238.285C489.207 238.669 488.675 239.21 488.29 239.899C487.896 240.598 487.708 241.385 487.708 242.261C487.708 243.147 487.896 243.934 488.29 244.623C488.675 245.312 489.207 245.853 489.888 246.247C490.568 246.63 491.327 246.827 492.175 246.827ZM492.175 249.632C490.686 249.632 489.355 249.317 488.162 248.677C486.969 248.038 486.042 247.162 485.371 246.04C484.691 244.918 484.356 243.659 484.356 242.261C484.356 240.864 484.691 239.604 485.371 238.482C486.042 237.37 486.969 236.485 488.162 235.855C489.355 235.215 490.686 234.89 492.175 234.89C493.655 234.89 494.986 235.215 496.169 235.855C497.353 236.485 498.289 237.37 498.97 238.482C499.641 239.604 499.986 240.864 499.986 242.261C499.986 243.659 499.641 244.918 498.97 246.04C498.289 247.162 497.353 248.038 496.169 248.677C494.986 249.317 493.655 249.632 492.175 249.632ZM472.917 239.899C472.848 241.602 472.7 243.019 472.483 244.17C472.266 245.312 471.93 246.158 471.487 246.7H477.867V237.823H472.976L472.917 239.899ZM483.133 246.7V252.338H480.076V249.386H469.998V252.338H466.941L466.961 246.7H467.533C468.381 246.67 468.992 246.05 469.347 244.83C469.702 243.609 469.919 241.858 469.998 239.594L470.156 235.136H481.131V246.7H483.133ZM465.738 246.739V249.386H454.674V235.136H465.472V237.784H457.958V240.884H464.594V243.442H457.958V246.739H465.738ZM451.104 235.136V249.386H447.84V237.823H442.949L442.84 240.795C442.781 242.822 442.614 244.456 442.357 245.715C442.101 246.965 441.667 247.93 441.055 248.609C440.454 249.278 439.606 249.612 438.521 249.612C438.068 249.612 437.525 249.533 436.884 249.386L437.091 246.601C437.269 246.65 437.466 246.68 437.683 246.68C438.472 246.68 439.024 246.217 439.34 245.282C439.646 244.357 439.843 242.901 439.932 240.923L440.128 235.136H451.104ZM430.662 249.632C429.212 249.632 427.891 249.317 426.717 248.687C425.544 248.057 424.617 247.181 423.946 246.06C423.276 244.938 422.931 243.679 422.931 242.261C422.931 240.854 423.276 239.584 423.946 238.462C424.617 237.35 425.544 236.475 426.717 235.845C427.891 235.205 429.222 234.89 430.682 234.89C431.924 234.89 433.039 235.107 434.044 235.55C435.04 235.983 435.878 236.603 436.559 237.42L434.439 239.368C433.473 238.256 432.279 237.705 430.849 237.705C429.962 237.705 429.173 237.892 428.482 238.285C427.792 238.669 427.25 239.21 426.865 239.899C426.471 240.598 426.284 241.385 426.284 242.261C426.284 243.147 426.471 243.934 426.865 244.623C427.25 245.312 427.792 245.853 428.482 246.247C429.173 246.63 429.962 246.827 430.849 246.827C432.279 246.827 433.473 246.257 434.439 245.135L436.559 247.083C435.878 247.92 435.04 248.55 434.034 248.983C433.029 249.415 431.905 249.632 430.662 249.632ZM416.166 249.632C414.707 249.632 413.395 249.317 412.212 248.687C411.038 248.057 410.111 247.181 409.441 246.06C408.77 244.938 408.435 243.679 408.435 242.261C408.435 240.854 408.77 239.584 409.441 238.462C410.111 237.35 411.038 236.475 412.212 235.845C413.395 235.205 414.717 234.89 416.186 234.89C417.419 234.89 418.543 235.107 419.539 235.55C420.535 235.983 421.373 236.603 422.053 237.42L419.933 239.368C418.967 238.256 417.773 237.705 416.344 237.705C415.466 237.705 414.677 237.892 413.977 238.285C413.287 238.669 412.744 239.21 412.36 239.899C411.965 240.598 411.778 241.385 411.778 242.261C411.778 243.147 411.965 243.934 412.36 244.623C412.744 245.312 413.287 245.853 413.977 246.247C414.677 246.63 415.466 246.827 416.344 246.827C417.773 246.827 418.967 246.257 419.933 245.135L422.053 247.083C421.373 247.92 420.535 248.55 419.529 248.983C418.523 249.415 417.399 249.632 416.166 249.632ZM392.657 235.136H395.941V244.417L402.755 235.136H405.861V249.386H402.597V240.126L395.783 249.386H392.657V235.136ZM374.73 235.136L377.688 239.456L380.646 235.136H384.522L379.769 241.956L384.906 249.386H381.011L377.688 244.662L374.404 249.386H370.588L375.686 242.103L370.914 235.136H374.73ZM365.322 235.136H368.606V249.386H365.322V235.136ZM357.453 246.945C358.311 246.945 358.982 246.739 359.465 246.316C359.948 245.892 360.185 245.282 360.185 244.485C360.185 242.999 359.277 242.261 357.453 242.261H354.475V246.945H357.453ZM358.104 239.82C359.849 239.82 361.181 240.204 362.108 240.982C363.044 241.749 363.508 242.901 363.508 244.417C363.508 246.04 362.995 247.27 361.97 248.117C360.944 248.963 359.494 249.386 357.631 249.386H351.191V235.136H354.475V239.82H358.104ZM347.621 235.136V249.386H344.318V243.55H337.83V249.386H334.526V235.136H337.83V240.756H344.318V235.136H347.621ZM324.359 234.221C321.756 234.221 320.434 233.188 320.405 231.111H322.673C322.693 232.095 323.265 232.597 324.359 232.597C324.902 232.597 325.326 232.469 325.612 232.213C325.888 231.968 326.046 231.594 326.055 231.111H328.323C328.304 232.125 327.968 232.903 327.318 233.424C326.667 233.956 325.681 234.221 324.359 234.221ZM317.772 235.136H321.056V244.417L327.87 235.136H330.976V249.386H327.712V240.126L320.898 249.386H317.772V235.136ZM310.1 243.826L307.842 238.374L305.574 243.826H310.1ZM311.145 246.335H304.509L303.246 249.386H299.864L306.225 235.136H309.489L315.879 249.386H312.408L311.145 246.335ZM297.921 235.136V249.386H294.658V244.259C293.425 244.702 292.271 244.928 291.216 244.928C289.293 244.928 287.824 244.475 286.808 243.56C285.783 242.635 285.28 241.316 285.28 239.594V235.136H288.544V239.23C288.544 240.204 288.8 240.943 289.323 241.435C289.846 241.936 290.605 242.182 291.601 242.182C292.686 242.182 293.711 241.976 294.658 241.553V235.136H297.921Z" fill="#FFB833"/>
<path d="M688.933 260.633L706.93 257.504L688.713 156.18L688.5 55.6878L670.643 55.6347V55.6288H670.635L663.169 14.1002L431.665 54.3484L183.534 34.0872L178.592 98.3466L170.941 99.6766L176.228 129.079L176.227 129.091L176.227 129.093L164.571 280.65L189.332 282.673V282.678L189.372 301.493L207.237 301.547L214.705 343.081L442.992 303.392H442.999H443.007L662.557 321.323L663.972 302.906L689.024 302.98L688.933 260.633Z" stroke="black" stroke-width="1.33347"/>
<path d="M522.222 86.6473C520.092 86.6473 518.456 87.1886 517.331 88.271C516.197 89.3437 515.635 90.9577 515.635 93.0834C515.635 95.14 516.178 96.7341 517.262 97.8461C518.337 98.9682 519.935 99.5191 522.035 99.5191H528.622V86.6473H522.222ZM536.048 79.9553V115.441H528.622V106.014H521.759L516.01 115.441H508.072L514.846 104.745C512.647 103.76 510.961 102.284 509.787 100.306C508.614 98.3283 508.032 95.9565 508.032 93.1817C508.032 90.4456 508.604 88.0939 509.748 86.1158C510.892 84.1377 512.509 82.6126 514.619 81.5495C516.72 80.4868 519.195 79.9553 522.035 79.9553H536.048ZM494.345 101.596L489.197 88.0151L484.05 101.596H494.345ZM496.712 107.835H481.634L478.755 115.441H471.053L485.529 79.9553H492.955L507.47 115.441H499.581L496.712 107.835ZM466.606 79.9553V115.441H459.092V100.887H444.339V115.441H436.825V79.9553H444.339V93.9493H459.092V79.9553H466.606ZM413.721 77.6724C407.784 77.6724 404.787 75.0843 404.727 69.9178H409.875C409.934 72.3779 411.216 73.6179 413.721 73.6179C414.963 73.6179 415.9 73.303 416.551 72.6733C417.202 72.0532 417.537 71.1281 417.577 69.9178H422.724C422.694 72.4469 421.935 74.3757 420.446 75.6942C418.967 77.0131 416.718 77.6724 413.721 77.6724ZM398.741 79.9553H406.206V103.072L421.698 79.9553H428.749V115.441H421.333V92.3748L405.832 115.441H398.741V79.9553ZM381.297 101.596L376.15 88.0151L371.002 101.596H381.297ZM383.664 107.835H368.586L365.707 115.441H358.015L372.482 79.9553H379.907L394.422 115.441H386.543L383.664 107.835ZM353.607 79.9553V115.441H346.182V102.668C343.371 103.78 340.759 104.341 338.342 104.341C333.984 104.341 330.641 103.2 328.324 100.916C326.006 98.6335 324.842 95.3465 324.842 91.0559V79.9553H332.268V90.1408C332.268 92.5713 332.86 94.4117 334.053 95.642C335.246 96.8818 336.962 97.4921 339.22 97.4921C341.695 97.4921 344.013 96.9702 346.182 95.9173V79.9553H353.607ZM546.392 125.834H560.789V166.526L590.659 125.834H604.247V188.304H589.939V147.69L560.069 188.304H546.392V125.834ZM512.765 163.938L502.835 140.024L492.915 163.938H512.765ZM517.321 174.92H488.261L482.719 188.304H467.868L495.775 125.834H510.083L538.069 188.304H522.873L517.321 174.92ZM459.378 125.834V188.304H445.069V165.807C439.636 167.775 434.607 168.759 429.952 168.759C421.55 168.759 415.111 166.752 410.634 162.737C406.167 158.712 403.929 152.935 403.929 145.377V125.834H418.237V143.763C418.237 148.054 419.381 151.282 421.678 153.447C423.976 155.622 427.299 156.704 431.648 156.704C436.421 156.704 440.888 155.789 445.069 153.939V125.834H459.378ZM336.321 125.834H350.718V166.526L380.587 125.834H394.176V188.304H379.868V147.69L349.998 188.304H336.321V125.834ZM290.891 177.055C294.588 177.055 297.922 176.209 300.909 174.516C303.888 172.814 306.225 170.452 307.931 167.421C309.627 164.381 310.475 160.936 310.475 157.069C310.475 153.201 309.627 149.747 307.931 146.716C306.225 143.675 303.888 141.313 300.909 139.621C297.922 137.918 294.588 137.072 290.891 137.072C287.193 137.072 283.85 137.918 280.872 139.621C277.894 141.313 275.557 143.675 273.851 146.716C272.155 149.747 271.307 153.201 271.307 157.069C271.307 160.936 272.155 164.381 273.851 167.421C275.557 170.452 277.894 172.814 280.872 174.516C283.85 176.209 287.193 177.055 290.891 177.055ZM290.891 189.376C284.392 189.376 278.535 187.979 273.318 185.174C268.102 182.379 264.019 178.532 261.061 173.621C258.112 168.71 256.633 163.19 256.633 157.069C256.633 150.938 258.112 145.417 261.061 140.506C264.019 135.605 268.102 131.748 273.318 128.953C278.535 126.158 284.392 124.761 290.891 124.761C297.389 124.761 303.227 126.158 308.414 128.953C313.601 131.748 317.693 135.605 320.671 140.506C323.65 145.417 325.138 150.938 325.138 157.069C325.138 163.19 323.65 168.71 320.671 173.621C317.693 178.532 313.601 182.379 308.414 185.174C303.227 187.979 297.389 189.376 290.891 189.376Z" fill="white"/>
<defs>
<linearGradient id="paint0_linear_4036_351" x1="434.113" y1="54.4185" x2="434.113" y2="303.393" gradientUnits="userSpaceOnUse">
<stop stop-color="#070707" stop-opacity="0.9"/>
<stop offset="1" stop-color="#070707"/>
</linearGradient>
</defs>
</svg>
