<svg width="39" height="47" viewBox="0 0 39 47" fill="none" xmlns="http://www.w3.org/2000/svg">
<g clip-path="url(#clip0_4321_464)">
<path d="M37.7586 37.5903H37.7581V45.3554C37.7581 45.9042 37.3134 46.349 36.7649 46.349H2.27186C1.72324 46.349 1.27859 45.9041 1.27859 45.3554V37.5903L3.1538 9.40504V0.64624H35.8832V9.40504L37.7586 37.5903Z" fill="#CAA661"/>
<path d="M1.63935 0.64624H37.3976C37.9462 0.64624 38.3908 1.09109 38.3908 1.63976V8.41143C38.3908 8.96019 37.9461 9.40495 37.3976 9.40495H31.4379H23.0627H15.9738H12.5654H1.63935C1.09073 9.40495 0.646088 8.9601 0.646088 8.41143V1.63985C0.645996 1.09109 1.09082 0.64624 1.63935 0.64624Z" fill="#AD8A4D"/>
<path d="M38.3908 4.62036V8.41139C38.3908 8.96015 37.9461 9.40491 37.3976 9.40491H31.4379H23.0627H15.9738H12.5654H1.63935C1.09073 9.40491 0.646088 8.96006 0.646088 8.41139V4.62036H38.3908Z" fill="#967342"/>
<path d="M37.5734 47H1.42593C0.987072 47 0.631268 46.6441 0.631268 46.2051V37.5024C0.631268 37.4848 0.63182 37.4673 0.632918 37.4498L2.43479 10.2923H0.799303C0.360444 10.2923 0.00463867 9.93639 0.00463867 9.49741V0.79487C0.00463867 0.355896 0.360444 0 0.799303 0H38.2005C38.6394 0 38.9952 0.355896 38.9952 0.79487V9.49758C38.9952 9.93656 38.6394 10.2925 38.2005 10.2925H36.5648L38.3669 37.4499C38.3686 37.4769 38.3691 37.5037 38.3682 37.5304V46.2054C38.368 46.6441 38.0122 47 37.5734 47ZM2.2206 45.4103H36.7787V37.5214L34.972 10.2925H4.0277L2.2206 37.5287V45.4103ZM23.5886 8.7027H37.4057V1.58965H1.59388V8.7027H15.4108C16.0755 7.05429 17.6771 5.94938 19.4996 5.94938C21.322 5.94926 22.9238 7.05429 23.5886 8.7027Z" fill="black"/>
<ellipse cx="19.5587" cy="10.9275" rx="4.99247" ry="4.99375" fill="black"/>
<path d="M23.511 10.9654C23.511 13.1602 21.7322 14.9395 19.5379 14.9395C17.3436 14.9395 15.5648 13.1602 15.5648 10.9654C15.5648 8.77051 17.3437 6.99121 19.5379 6.99121C21.7322 6.99121 23.511 8.77051 23.511 10.9654Z" fill="#FF4328"/>
<path d="M23.511 10.9654C23.511 13.1602 21.7322 14.9395 19.5379 14.9395V6.99121C21.7323 6.99121 23.511 8.77051 23.511 10.9654Z" fill="#C13421"/>
<path d="M24.1061 32.6513C22.2744 34.4846 18.7122 33.8915 18.7122 33.8915C18.7122 33.8915 18.1197 30.3261 19.9513 28.4928C21.783 26.6595 25.3452 27.2525 25.3452 27.2525C25.3452 27.2525 25.9378 30.8179 24.1061 32.6513Z" fill="#A5BA6B"/>
<path d="M18.6318 42.594C18.5954 42.594 18.5582 42.5901 18.5217 42.5828C18.4863 42.5755 18.4509 42.5648 18.4166 42.5507C18.3829 42.5367 18.3503 42.5192 18.32 42.499C18.2891 42.4781 18.2604 42.4551 18.2346 42.4292C18.2088 42.4028 18.1851 42.3741 18.1644 42.3438C18.1442 42.3128 18.1267 42.2802 18.1126 42.2465C18.0986 42.2127 18.0879 42.1773 18.0812 42.1413C18.0739 42.1048 18.0699 42.0682 18.0699 42.0311C18.0699 41.8832 18.1301 41.7381 18.2346 41.6335C18.2605 41.6076 18.2891 41.584 18.32 41.5638C18.3504 41.5435 18.383 41.5261 18.4167 41.512C18.4509 41.498 18.4863 41.4873 18.5217 41.48C18.5942 41.4653 18.6689 41.4653 18.7414 41.48C18.7774 41.4873 18.8129 41.498 18.8465 41.512C18.8808 41.5261 18.9133 41.5435 18.9437 41.5638C18.9746 41.5846 19.0033 41.6076 19.0291 41.6335C19.1336 41.7381 19.1938 41.8832 19.1938 42.0311C19.1938 42.0682 19.1899 42.1048 19.1825 42.1413C19.1758 42.1773 19.1646 42.2127 19.1506 42.2465C19.1365 42.2802 19.119 42.3128 19.0989 42.3438C19.0787 42.3741 19.055 42.4028 19.0292 42.4292C19.0034 42.4551 18.9747 42.4782 18.9438 42.499C18.9134 42.5192 18.8809 42.5367 18.8466 42.5507C18.8129 42.5648 18.7775 42.5755 18.7415 42.5828C18.7055 42.5901 18.6684 42.594 18.6318 42.594Z" fill="black"/>
<path d="M18.0894 35.2097C18.9918 36.1128 18.4808 38.0885 18.4808 38.0885C18.4808 38.0885 16.5069 38.5999 15.6046 37.6968C14.7023 36.7936 15.2132 34.818 15.2132 34.818C15.2132 34.818 17.1871 34.3065 18.0894 35.2097Z" fill="#E0E381"/>
<path d="M21.6411 25.3073C20.7387 26.2104 18.7648 25.6991 18.7648 25.6991C18.7648 25.6991 18.2539 23.7234 19.1562 22.8203C20.0585 21.9171 22.0324 22.4285 22.0324 22.4285C22.0324 22.4285 22.5434 24.4041 21.6411 25.3073Z" fill="#E0E381"/>
<path d="M14.5525 25.8416C15.9157 27.2061 18.567 26.7647 18.567 26.7647C18.567 26.7647 19.008 24.111 17.6448 22.7465C16.2816 21.382 13.6303 21.8235 13.6303 21.8235C13.6303 21.8235 13.1892 24.4772 14.5525 25.8416Z" fill="#A5BA6B"/>
<path d="M15.3518 31.8621C16.2516 31.8621 16.981 31.132 16.981 30.2314C16.981 29.3308 16.2516 28.6007 15.3518 28.6007C14.452 28.6007 13.7225 29.3308 13.7225 30.2314C13.7225 31.132 14.452 31.8621 15.3518 31.8621Z" fill="#E3A9ED"/>
<path d="M21.8252 38.8065C22.725 38.8065 23.4544 38.0764 23.4544 37.1757C23.4544 36.2751 22.725 35.545 21.8252 35.545C20.9254 35.545 20.1959 36.2751 20.1959 37.1757C20.1959 38.0764 20.9254 38.8065 21.8252 38.8065Z" fill="#FF738D"/>
<path d="M23.4691 29.6384C23.4326 29.6384 23.3954 29.635 23.3589 29.6277C23.3235 29.6204 23.2881 29.6097 23.2539 29.5956C23.2202 29.5816 23.1876 29.5642 23.1572 29.5439C23.1263 29.5231 23.0977 29.4995 23.0718 29.4736C23.046 29.4478 23.0224 29.419 23.0016 29.3881C22.9814 29.3578 22.9639 29.3251 22.9499 29.2914C22.9359 29.2571 22.9252 29.2217 22.9184 29.1857C22.911 29.1497 22.9071 29.1126 22.9071 29.076C22.9071 29.0395 22.911 29.0023 22.9184 28.9663C22.9251 28.9303 22.9359 28.8949 22.9499 28.8612C22.9639 28.8269 22.9814 28.7943 23.0016 28.7639C23.0224 28.733 23.046 28.7043 23.0718 28.6784C23.0977 28.6526 23.1263 28.6289 23.1572 28.6087C23.1876 28.5885 23.2202 28.571 23.2539 28.5569C23.2881 28.5429 23.3235 28.5322 23.3589 28.5249C23.4314 28.5103 23.5061 28.5103 23.5786 28.5249C23.6146 28.5322 23.65 28.5429 23.6837 28.5569C23.718 28.571 23.7506 28.5884 23.7809 28.6087C23.8118 28.6289 23.8405 28.6526 23.8663 28.6784C23.8921 28.7043 23.9157 28.733 23.936 28.7639C23.9561 28.7943 23.9736 28.8269 23.9877 28.8612C24.0017 28.8949 24.0123 28.9303 24.0197 28.9663C24.027 29.0023 24.0309 29.0395 24.0309 29.076C24.0309 29.1126 24.027 29.1497 24.0197 29.1857C24.0123 29.2217 24.0017 29.2571 23.9877 29.2914C23.9736 29.3251 23.9561 29.3578 23.936 29.3881C23.9157 29.419 23.8921 29.4478 23.8663 29.4736C23.8405 29.4995 23.8118 29.5231 23.7809 29.5439C23.7506 29.5641 23.718 29.5816 23.6837 29.5956C23.65 29.6097 23.6146 29.6204 23.5786 29.6277C23.5427 29.635 23.5056 29.6384 23.4691 29.6384Z" fill="black"/>
<path d="M19.1937 34.5125C19.4244 34.5313 19.7125 34.5469 20.0399 34.5469C21.3427 34.5469 23.2518 34.3016 24.5034 33.049C26.5163 31.0343 25.9256 27.3175 25.8995 27.1603C25.8601 26.9232 25.6744 26.7373 25.4374 26.6978C25.2803 26.6716 21.5669 26.0805 19.554 28.0951C19.423 28.2261 19.3034 28.3644 19.1937 28.5084V26.353C19.4151 26.384 19.6832 26.4092 19.9722 26.4092C20.6671 26.4092 21.4802 26.2637 22.0384 25.705C23.1361 24.6062 22.6369 22.5216 22.5764 22.2876C22.5252 22.0898 22.3709 21.9352 22.1732 21.8841C21.9675 21.8308 20.3317 21.4383 19.1937 22.0921V19.5624C19.1937 19.2518 18.9421 19 18.6318 19C18.3215 19 18.0699 19.2518 18.0699 19.5624V22.3779C18.0606 22.3684 18.0516 22.3586 18.0421 22.3491C16.4923 20.7979 13.658 21.249 13.5381 21.2689C13.301 21.3084 13.1154 21.4942 13.0759 21.7315C13.056 21.8515 12.6053 24.6883 14.1551 26.2395C15.122 27.2073 16.5888 27.3956 17.5845 27.3956C17.7636 27.3956 17.9269 27.3895 18.0699 27.3808V32.0569C18.0683 32.089 18.0669 32.1208 18.0657 32.1524L17.2466 31.3326C17.7331 30.4935 17.6182 29.3983 16.9012 28.6807C16.4874 28.2665 15.9371 28.0384 15.3518 28.0384C14.7666 28.0384 14.2163 28.2665 13.8025 28.6807C13.3887 29.0949 13.1608 29.6456 13.1608 30.2315C13.1608 30.8173 13.3887 31.368 13.8025 31.7822C14.2163 32.1964 14.7666 32.4245 15.3518 32.4245C15.7447 32.4245 16.1217 32.3213 16.4523 32.1283L18.0699 33.7473V34.4924C16.9312 33.8239 15.2792 34.2199 15.0724 34.2735C14.8747 34.3247 14.7203 34.4792 14.6692 34.677C14.6087 34.911 14.1095 36.9956 15.2073 38.0944C15.7656 38.6532 16.5784 38.7986 17.2735 38.7986C17.5702 38.7986 17.8452 38.772 18.0699 38.7399V40.3429C18.0699 40.4991 18.1337 40.6404 18.2364 40.7423C18.2405 40.7467 18.2441 40.7513 18.2484 40.7556C18.3581 40.8654 18.5019 40.9203 18.6457 40.9203C18.7895 40.9203 18.9332 40.8654 19.043 40.7556L20.7243 39.0727C21.055 39.2656 21.4319 39.3689 21.8248 39.3689C22.4101 39.3689 22.9603 39.1408 23.3741 38.7266C23.788 38.3124 24.0159 37.7617 24.0159 37.1758C24.0159 36.59 23.788 36.0393 23.3741 35.6251C22.9603 35.2109 22.4101 34.9828 21.8248 34.9828C21.2396 34.9828 20.6893 35.2109 20.2754 35.6251C19.5585 36.3427 19.4435 37.4379 19.93 38.277L19.1936 39.0141V38.4241V34.5125H19.1937ZM21.5548 22.9065C21.6452 23.4922 21.6863 24.4668 21.2438 24.9097C20.8012 25.3527 19.827 25.3115 19.2425 25.2211C19.2218 25.0868 19.2041 24.9316 19.1938 24.7675V24.231C19.2215 23.8355 19.3195 23.4523 19.5536 23.218C19.9962 22.7749 20.9703 22.8161 21.5548 22.9065ZM18.0562 26.2536C17.3206 26.3046 15.7968 26.292 14.9498 25.4441C14.1011 24.5947 14.0901 23.0657 14.1412 22.3314C14.9868 22.2719 16.4537 22.35 17.2474 23.1444C17.8789 23.7765 18.0465 24.7846 18.0699 25.5618V25.9721C18.0669 26.0747 18.0621 26.1695 18.0562 26.2536ZM20.3486 28.8904C21.6095 27.6284 23.9035 27.6787 24.8391 27.7599C24.9218 28.6959 24.9741 30.987 23.7087 32.2536C22.7002 33.263 21.0314 33.4328 19.9248 33.4187L22.7023 30.6388C22.9217 30.4191 22.9217 30.0631 22.7023 29.8434C22.4828 29.6238 22.1271 29.6238 21.9076 29.8434L19.1936 32.5598V32.0833C19.2475 31.0334 19.5053 29.7345 20.3486 28.8904ZM14.5972 30.9869C14.3955 30.7851 14.2846 30.5168 14.2846 30.2315C14.2846 29.9461 14.3956 29.6779 14.5972 29.476C14.7988 29.2742 15.0667 29.1632 15.3519 29.1632C15.6371 29.1632 15.9051 29.2743 16.1067 29.476C16.4941 29.8638 16.5204 30.4778 16.1864 30.8969C16.153 30.9183 16.1214 30.9433 16.0923 30.9724C16.0632 31.0016 16.0382 31.0333 16.0167 31.0666C15.8284 31.2174 15.5966 31.2997 15.3519 31.2997C15.0667 31.2998 14.7987 31.1887 14.5972 30.9869ZM18.0032 37.6115C17.4195 37.7031 16.4476 37.7452 16.002 37.299C15.5593 36.856 15.6005 35.8811 15.6907 35.2959C16.276 35.2056 17.2496 35.1645 17.6921 35.6073C18.135 36.0508 18.0935 37.0266 18.0032 37.6115ZM21.0702 36.4204C21.2718 36.2186 21.5398 36.1075 21.825 36.1075C22.1102 36.1075 22.3781 36.2187 22.5797 36.4204C22.7814 36.6222 22.8923 36.8905 22.8923 37.1758C22.8923 37.4612 22.7813 37.7294 22.5797 37.9313C22.3781 38.1331 22.1101 38.2441 21.825 38.2441C21.5803 38.2441 21.3485 38.1617 21.1601 38.011C21.1387 37.9776 21.1138 37.9459 21.0846 37.9168C21.0555 37.8876 21.0239 37.8627 20.9905 37.8412C20.6565 37.4223 20.6827 36.8082 21.0702 36.4204Z" fill="black"/>
</g>
<defs>
<clipPath id="clip0_4321_464">
<rect width="39" height="47" fill="white"/>
</clipPath>
</defs>
</svg>
