<svg width="37" height="45" viewBox="0 0 37 45" fill="none" xmlns="http://www.w3.org/2000/svg">
<g clip-path="url(#clip0_5232_6904)">
<path d="M35.8222 35.9907H35.8218V43.4255C35.8218 43.9509 35.3999 44.3767 34.8795 44.3767H2.15534C1.63485 44.3767 1.21301 43.9508 1.21301 43.4255V35.9907L2.99205 9.00486V0.618774H34.043V9.00486L35.8222 35.9907Z" fill="#CAA661"/>
<path d="M1.55524 0.618774H35.4797C36.0002 0.618774 36.422 1.04469 36.422 1.57001V8.05353C36.422 8.57894 36.0001 9.00477 35.4797 9.00477H29.8256H21.88H15.1546H11.921H1.55524C1.03475 9.00477 0.612915 8.57885 0.612915 8.05353V1.5701C0.612828 1.04469 1.03484 0.618774 1.55524 0.618774Z" fill="#AD8A4D"/>
<path d="M36.422 4.42383V8.05353C36.422 8.57894 36.0001 9.00477 35.4797 9.00477H29.8256H21.88H15.1546H11.921H1.55524C1.03475 9.00477 0.612915 8.57886 0.612915 8.05353V4.42383H36.422Z" fill="#967342"/>
<path d="M35.6468 45H1.35305C0.936691 45 0.599133 44.6592 0.599133 44.2389V35.9066C0.599133 35.8897 0.599657 35.8729 0.600699 35.8562L2.31017 9.85432H0.758551C0.342198 9.85432 0.00463867 9.51356 0.00463867 9.09326V0.761046C0.00463867 0.340752 0.342198 0 0.758551 0H36.2418C36.6581 0 36.9957 0.340752 36.9957 0.761046V9.09343C36.9957 9.51373 36.6581 9.85449 36.2418 9.85449H34.6899L36.3996 35.8563C36.4013 35.8822 36.4017 35.9078 36.4008 35.9334V44.2392C36.4006 44.6592 36.0631 45 35.6468 45ZM2.10696 43.478H34.8929V35.9247L33.1788 9.85449H3.82139L2.10696 35.9317V43.478ZM22.3792 8.33237H35.4877V1.522H1.51238V8.33237H14.6207C15.2514 6.75411 16.7709 5.69621 18.4998 5.69621C20.2288 5.6961 21.7485 6.75411 22.3792 8.33237Z" fill="#55585D"/>
<ellipse cx="18.5558" cy="10.4625" rx="4.73645" ry="4.78125" fill="#1D2025"/>
<path d="M22.3054 10.4988C22.3054 12.6002 20.6178 14.3038 18.536 14.3038C16.4542 14.3038 14.7666 12.6002 14.7666 10.4988C14.7666 8.39731 16.4543 6.69373 18.536 6.69373C20.6178 6.69373 22.3054 8.39731 22.3054 10.4988Z" fill="#FF4328"/>
<path d="M22.3054 10.4988C22.3054 12.6002 20.6178 14.3038 18.536 14.3038V6.69373C20.6179 6.69373 22.3054 8.39731 22.3054 10.4988Z" fill="#C13421"/>
<path d="M22.8699 31.2619C21.1322 33.0172 17.7526 32.4494 17.7526 32.4494C17.7526 32.4494 17.1905 29.0357 18.9282 27.2804C20.666 25.525 24.0455 26.0929 24.0455 26.0929C24.0455 26.0929 24.6077 29.5066 22.8699 31.2619Z" fill="#A5BA6B"/>
<path d="M17.6764 40.7815C17.6418 40.7815 17.6065 40.7778 17.5719 40.7707C17.5383 40.7637 17.5047 40.7535 17.4722 40.74C17.4402 40.7266 17.4093 40.7099 17.3805 40.6905C17.3512 40.6705 17.324 40.6485 17.2995 40.6237C17.275 40.5984 17.2526 40.571 17.2329 40.5419C17.2137 40.5123 17.1971 40.481 17.1838 40.4487C17.1705 40.4164 17.1604 40.3825 17.154 40.3481C17.147 40.3131 17.1433 40.278 17.1433 40.2425C17.1433 40.1009 17.2004 39.962 17.2996 39.8618C17.3241 39.8371 17.3513 39.8145 17.3806 39.7951C17.4094 39.7757 17.4403 39.759 17.4723 39.7455C17.5048 39.7321 17.5383 39.7219 17.5719 39.7148C17.6407 39.7008 17.7116 39.7008 17.7804 39.7148C17.8145 39.7219 17.8481 39.7321 17.8801 39.7455C17.9126 39.759 17.9434 39.7757 17.9722 39.7951C18.0016 39.815 18.0288 39.8371 18.0533 39.8618C18.1524 39.962 18.2095 40.1009 18.2095 40.2425C18.2095 40.278 18.2058 40.3131 18.1988 40.3481C18.1925 40.3825 18.1818 40.4164 18.1685 40.4487C18.1552 40.481 18.1386 40.5123 18.1195 40.5419C18.1003 40.571 18.0779 40.5984 18.0534 40.6237C18.0289 40.6485 18.0017 40.6706 17.9723 40.6905C17.9435 40.7099 17.9126 40.7266 17.8801 40.74C17.8482 40.7535 17.8146 40.7637 17.7805 40.7707C17.7463 40.7778 17.7111 40.7815 17.6764 40.7815Z" fill="#1D2025"/>
<path d="M17.1618 33.7114C18.0178 34.5761 17.5331 36.4677 17.5331 36.4677C17.5331 36.4677 15.6604 36.9573 14.8044 36.0926C13.9484 35.228 14.4331 33.3364 14.4331 33.3364C14.4331 33.3364 16.3058 32.8467 17.1618 33.7114Z" fill="#E0E381"/>
<path d="M20.5313 24.2304C19.6753 25.0951 17.8026 24.6055 17.8026 24.6055C17.8026 24.6055 17.3179 22.7139 18.1739 21.8492C19.0299 20.9845 20.9026 21.4741 20.9026 21.4741C20.9026 21.4741 21.3873 23.3657 20.5313 24.2304Z" fill="#E0E381"/>
<path d="M13.8062 24.7421C15.0995 26.0485 17.6148 25.6258 17.6148 25.6258C17.6148 25.6258 18.0332 23.0851 16.7399 21.7787C15.4466 20.4723 12.9313 20.8949 12.9313 20.8949C12.9313 20.8949 12.5129 23.4357 13.8062 24.7421Z" fill="#A5BA6B"/>
<path d="M14.5645 30.5063C15.4182 30.5063 16.1102 29.8073 16.1102 28.945C16.1102 28.0827 15.4182 27.3837 14.5645 27.3837C13.7108 27.3837 13.0188 28.0827 13.0188 28.945C13.0188 29.8073 13.7108 30.5063 14.5645 30.5063Z" fill="#E3A9ED"/>
<path d="M20.706 37.1551C21.5596 37.1551 22.2517 36.4561 22.2517 35.5938C22.2517 34.7315 21.5596 34.0325 20.706 34.0325C19.8523 34.0325 19.1603 34.7315 19.1603 35.5938C19.1603 36.4561 19.8523 37.1551 20.706 37.1551Z" fill="#FF738D"/>
<path d="M22.2655 28.3773C22.2309 28.3773 22.1957 28.3741 22.161 28.3671C22.1275 28.36 22.0939 28.3498 22.0614 28.3363C22.0294 28.3229 21.9985 28.3062 21.9697 28.2868C21.9404 28.2669 21.9132 28.2443 21.8887 28.2195C21.8642 28.1948 21.8418 28.1673 21.8221 28.1377C21.8029 28.1086 21.7863 28.0774 21.773 28.0451C21.7597 28.0122 21.7495 27.9783 21.7431 27.9438C21.7361 27.9094 21.7324 27.8738 21.7324 27.8388C21.7324 27.8038 21.7361 27.7683 21.7431 27.7338C21.7495 27.6994 21.7597 27.6654 21.773 27.6331C21.7863 27.6003 21.8028 27.5691 21.8221 27.54C21.8418 27.5104 21.8642 27.4829 21.8887 27.4582C21.9132 27.4334 21.9404 27.4108 21.9697 27.3914C21.9985 27.372 22.0294 27.3553 22.0614 27.3419C22.0939 27.3284 22.1275 27.3182 22.161 27.3111C22.2298 27.2972 22.3007 27.2972 22.3695 27.3111C22.4036 27.3182 22.4372 27.3284 22.4692 27.3419C22.5017 27.3553 22.5326 27.372 22.5614 27.3914C22.5907 27.4108 22.6179 27.4334 22.6424 27.4582C22.6669 27.4829 22.6893 27.5104 22.7085 27.54C22.7276 27.5691 22.7442 27.6003 22.7575 27.6331C22.7709 27.6654 22.781 27.6994 22.7879 27.7338C22.7949 27.7683 22.7986 27.8038 22.7986 27.8388C22.7986 27.8738 22.7949 27.9094 22.7879 27.9438C22.781 27.9783 22.7709 28.0122 22.7575 28.0451C22.7442 28.0774 22.7276 28.1086 22.7085 28.1377C22.6893 28.1673 22.6669 28.1948 22.6424 28.2195C22.6179 28.2443 22.5907 28.2669 22.5614 28.2868C22.5326 28.3062 22.5017 28.3229 22.4692 28.3363C22.4372 28.3498 22.4036 28.36 22.3695 28.3671C22.3354 28.3741 22.3002 28.3773 22.2655 28.3773Z" fill="#1D2025"/>
<path d="M18.2094 33.0439C18.4283 33.0619 18.7017 33.0768 19.0123 33.0768C20.2483 33.0768 22.0595 32.842 23.2468 31.6427C25.1565 29.7137 24.5961 26.1551 24.5713 26.0046C24.534 25.7775 24.3578 25.5995 24.1329 25.5617C23.9839 25.5367 20.461 24.9707 18.5512 26.8996C18.427 27.0251 18.3135 27.1574 18.2094 27.2953V25.2316C18.4195 25.2613 18.6739 25.2854 18.948 25.2854C19.6073 25.2854 20.3787 25.1462 20.9082 24.6112C21.9497 23.5592 21.4761 21.5633 21.4186 21.3392C21.3701 21.1498 21.2237 21.0019 21.0362 20.9529C20.841 20.9019 19.2891 20.5261 18.2094 21.1521V18.73C18.2094 18.4326 17.9707 18.1915 17.6764 18.1915C17.382 18.1915 17.1433 18.4326 17.1433 18.73V21.4257C17.1344 21.4166 17.1259 21.4072 17.1169 21.3981C15.6465 19.9129 12.9576 20.3448 12.8438 20.3639C12.619 20.4017 12.4429 20.5796 12.4054 20.8068C12.3865 20.9217 11.9589 23.6378 13.4292 25.123C14.3466 26.0495 15.7381 26.2299 16.6828 26.2299C16.8527 26.2299 17.0076 26.224 17.1433 26.2157V30.6928C17.1418 30.7236 17.1405 30.7539 17.1392 30.7842L16.3622 29.9993C16.8238 29.196 16.7148 28.1474 16.0345 27.4603C15.6419 27.0637 15.1199 26.8453 14.5646 26.8453C14.0093 26.8453 13.4873 27.0637 13.0947 27.4603C12.7021 27.8569 12.4859 28.3842 12.4859 28.9451C12.4859 29.506 12.7021 30.0332 13.0947 30.4298C13.4873 30.8264 14.0094 31.0448 14.5646 31.0448C14.9374 31.0448 15.295 30.9459 15.6087 30.7612L17.1433 32.3113V33.0247C16.0629 32.3846 14.4957 32.7638 14.2995 32.8151C14.1119 32.8641 13.9655 33.012 13.917 33.2014C13.8596 33.4255 13.3859 35.4214 14.4275 36.4734C14.9572 37.0084 15.7283 37.1476 16.3877 37.1476C16.6692 37.1476 16.9301 37.1222 17.1433 37.0914V38.6262C17.1433 38.7758 17.2038 38.9111 17.3013 39.0086C17.3051 39.0128 17.3086 39.0172 17.3126 39.0213C17.4167 39.1265 17.5531 39.179 17.6895 39.179C17.8259 39.179 17.9623 39.1265 18.0664 39.0213L19.6615 37.4101C19.9753 37.5948 20.3329 37.6937 20.7056 37.6937C21.2609 37.6937 21.7829 37.4753 22.1755 37.0787C22.5681 36.6821 22.7844 36.1548 22.7844 35.5939C22.7844 35.033 22.5681 34.5057 22.1755 34.1092C21.7829 33.7126 21.2609 33.4942 20.7056 33.4942C20.1504 33.4942 19.6284 33.7126 19.2357 34.1091C18.5555 34.7963 18.4464 35.8449 18.908 36.6482L18.2093 37.3539V36.7891V33.0439H18.2094ZM20.4495 21.9318C20.5352 22.4926 20.5743 23.4257 20.1544 23.8497C19.7345 24.2739 18.8103 24.2344 18.2558 24.1479C18.2361 24.0194 18.2193 23.8707 18.2095 23.7136V23.2C18.2358 22.8212 18.3288 22.4543 18.5509 22.23C18.9708 21.8058 19.8949 21.8453 20.4495 21.9318ZM17.1303 25.1365C16.4324 25.1853 14.9868 25.1732 14.1831 24.3614C13.378 23.5481 13.3676 22.0842 13.416 21.3812C14.2183 21.3242 15.6099 21.399 16.3629 22.1596C16.9621 22.7648 17.1211 23.73 17.1433 24.4741V24.8669C17.1405 24.9652 17.1358 25.056 17.1303 25.1365ZM19.3051 27.6611C20.5014 26.4528 22.6777 26.5009 23.5654 26.5787C23.6438 27.4749 23.6935 29.6685 22.4929 30.8812C21.5362 31.8476 19.9529 32.0101 18.903 31.9967L21.5381 29.335C21.7463 29.1247 21.7463 28.7838 21.5381 28.5735C21.3299 28.3633 20.9924 28.3633 20.7842 28.5735L18.2094 31.1743V30.7181C18.2605 29.7128 18.505 28.4693 19.3051 27.6611ZM13.8486 29.6683C13.6573 29.4751 13.5521 29.2183 13.5521 28.9451C13.5521 28.6719 13.6574 28.415 13.8486 28.2218C14.0399 28.0285 14.2941 27.9222 14.5646 27.9222C14.8352 27.9222 15.0895 28.0286 15.2807 28.2218C15.6483 28.5931 15.6732 29.1809 15.3563 29.5821C15.3247 29.6027 15.2947 29.6266 15.2671 29.6545C15.2394 29.6824 15.2157 29.7127 15.1954 29.7446C15.0167 29.889 14.7968 29.9678 14.5647 29.9678C14.2941 29.9679 14.0398 29.8615 13.8486 29.6683ZM17.08 36.0111C16.5262 36.0987 15.6042 36.1391 15.1814 35.7119C14.7615 35.2877 14.8005 34.3543 14.8861 33.794C15.4414 33.7075 16.3651 33.6681 16.7848 34.0922C17.205 34.5167 17.1656 35.451 17.08 36.0111ZM19.9897 34.8706C20.181 34.6775 20.4353 34.5711 20.7058 34.5711C20.9764 34.5711 21.2306 34.6775 21.4218 34.8707C21.6131 35.0639 21.7184 35.3207 21.7184 35.5939C21.7184 35.8671 21.613 36.124 21.4218 36.3172C21.2305 36.5104 20.9763 36.6168 20.7058 36.6168C20.4737 36.6168 20.2537 36.5379 20.075 36.3935C20.0547 36.3616 20.0311 36.3313 20.0034 36.3034C19.9758 36.2754 19.9458 36.2515 19.9141 36.231C19.5972 35.8299 19.6221 35.2419 19.9897 34.8706Z" fill="#1D2025"/>
</g>
<defs>
<clipPath id="clip0_5232_6904">
<rect width="37" height="45" fill="white"/>
</clipPath>
</defs>
</svg>
