<svg width="45" height="45" viewBox="0 0 45 45" fill="none" xmlns="http://www.w3.org/2000/svg">
<path d="M33.7737 12.7296H11.2267C10.3966 12.7296 9.72363 13.4025 9.72363 14.2327V42.7923C9.72363 43.6224 10.3967 44.2954 11.2267 44.2954H33.7737C34.6038 44.2954 35.2768 43.6223 35.2768 42.7923V14.2327C35.2769 13.4026 34.6038 12.7296 33.7737 12.7296Z" fill="#959CB5"/>
<path d="M31.5187 18.7422H13.481C13.066 18.7422 12.7295 19.0787 12.7295 19.4937V23.2516C12.7295 23.6666 13.066 24.0031 13.481 24.0031H31.5187C31.9337 24.0031 32.2702 23.6666 32.2702 23.2516V19.4937C32.2702 19.0787 31.9337 18.7422 31.5187 18.7422Z" fill="#00C3FF"/>
<path d="M17.2388 30.0156H14.2325C13.8175 30.0156 13.481 29.6791 13.481 29.2641V27.761C13.481 27.3459 13.8175 27.0094 14.2325 27.0094H17.2388C17.6538 27.0094 17.9904 27.3459 17.9904 27.761V29.2641C17.9904 29.6792 17.6538 30.0156 17.2388 30.0156Z" fill="#C7CFE2"/>
<path d="M30.7671 30.0156H27.7608C27.3458 30.0156 27.0093 29.6791 27.0093 29.2641V27.761C27.0093 27.3459 27.3458 27.0094 27.7608 27.0094H30.7671C31.1821 27.0094 31.5187 27.3459 31.5187 27.761V29.2641C31.5187 29.6792 31.1821 30.0156 30.7671 30.0156Z" fill="#C7CFE2"/>
<path d="M24.003 30.0156H20.9967C20.5817 30.0156 20.2451 29.6791 20.2451 29.2641V27.761C20.2451 27.3459 20.5817 27.0094 20.9967 27.0094H24.003C24.418 27.0094 24.7545 27.3459 24.7545 27.761V29.2641C24.7545 29.6792 24.4181 30.0156 24.003 30.0156Z" fill="#C7CFE2"/>
<path d="M17.2388 35.2766H14.2325C13.8175 35.2766 13.481 34.9401 13.481 34.525V33.0219C13.481 32.6069 13.8175 32.2704 14.2325 32.2704H17.2388C17.6538 32.2704 17.9904 32.6069 17.9904 33.0219V34.525C17.9904 34.9401 17.6538 35.2766 17.2388 35.2766Z" fill="#C7CFE2"/>
<path d="M30.7671 35.2766H27.7608C27.3458 35.2766 27.0093 34.9401 27.0093 34.525V33.0219C27.0093 32.6069 27.3458 32.2704 27.7608 32.2704H30.7671C31.1821 32.2704 31.5187 32.6069 31.5187 33.0219V34.525C31.5187 34.9401 31.1821 35.2766 30.7671 35.2766Z" fill="#C7CFE2"/>
<path d="M24.003 35.2766H20.9967C20.5817 35.2766 20.2451 34.9401 20.2451 34.525V33.0219C20.2451 32.6069 20.5817 32.2704 20.9967 32.2704H24.003C24.418 32.2704 24.7545 32.6069 24.7545 33.0219V34.525C24.7545 34.9401 24.4181 35.2766 24.003 35.2766Z" fill="#C7CFE2"/>
<path d="M17.2388 40.5376H14.2325C13.8175 40.5376 13.481 40.2011 13.481 39.786V38.2829C13.481 37.8679 13.8175 37.5314 14.2325 37.5314H17.2388C17.6538 37.5314 17.9904 37.8679 17.9904 38.2829V39.786C17.9904 40.2011 17.6538 40.5376 17.2388 40.5376Z" fill="#707487"/>
<path d="M30.7671 40.5376H27.7608C27.3458 40.5376 27.0093 40.2011 27.0093 39.786V38.2829C27.0093 37.8679 27.3458 37.5314 27.7608 37.5314H30.7671C31.1821 37.5314 31.5187 37.8679 31.5187 38.2829V39.786C31.5187 40.2011 31.1821 40.5376 30.7671 40.5376Z" fill="#9BF57D"/>
<path d="M24.003 40.5376H20.9967C20.5817 40.5376 20.2451 40.2011 20.2451 39.786V38.2829C20.2451 37.8679 20.5817 37.5314 20.9967 37.5314H24.003C24.418 37.5314 24.7545 37.8679 24.7545 38.2829V39.786C24.7545 40.2011 24.4181 40.5376 24.003 40.5376Z" fill="#FFDC64"/>
<path d="M29.2642 2.2077L27.0096 0.70459L24.7549 2.2077L22.5002 0.70459L20.2455 2.2077L17.9908 0.70459L15.7361 2.2077L14.778 1.56908C14.545 1.41378 14.2329 1.58086 14.2329 1.86079V16.4875H30.7673V1.86079C30.7673 1.58077 30.4552 1.41369 30.2222 1.56908L29.2642 2.2077Z" fill="#F1F4FB"/>
<path d="M30.7673 13.4812H14.2329V16.4875H30.7673V13.4812Z" fill="#C7CFE2"/>
<path d="M31.5187 18.7422H13.481C13.066 18.7422 12.7295 19.0787 12.7295 19.4937V21.7484C12.7295 21.3334 13.066 20.9968 13.481 20.9968H31.5187C31.9337 20.9968 32.2702 21.3334 32.2702 21.7484V19.4937C32.2702 19.0787 31.9337 18.7422 31.5187 18.7422Z" fill="#00AAF0"/>
<path d="M33.7737 12.025H31.472V1.2056C31.472 0.945703 31.329 0.706904 31.0999 0.584385C30.8708 0.461689 30.5928 0.475137 30.3766 0.619365L29.2643 1.3609L27.4005 0.118389C27.1637 -0.0394629 26.8555 -0.0394629 26.6189 0.118389L24.755 1.3609L22.8911 0.118389C22.6543 -0.0394629 22.3461 -0.0394629 22.1095 0.118389L20.2456 1.3609L18.3817 0.118389C18.1449 -0.0394629 17.8367 -0.0394629 17.6001 0.118389L15.7362 1.3609L14.6238 0.619365C14.4076 0.475137 14.1296 0.461689 13.9006 0.584385C13.6714 0.706992 13.5284 0.945703 13.5284 1.2056V12.025H11.2268C10.0094 12.025 9.01904 13.0154 9.01904 14.2327V42.7923C9.01904 44.0097 10.0094 45 11.2268 45H33.7737C34.9911 45 35.9814 44.0097 35.9814 42.7923V14.2327C35.9814 13.0155 34.9911 12.025 33.7737 12.025ZM15.3453 2.79396C15.5821 2.95181 15.8904 2.95181 16.1269 2.79396L17.9908 1.55136L19.8547 2.79396C20.0915 2.95181 20.3997 2.95181 20.6363 2.79396L22.5002 1.55136L24.3641 2.79396C24.6009 2.95181 24.9091 2.95181 25.1457 2.79396L27.0096 1.55136L28.8735 2.79396C29.1103 2.95181 29.4186 2.95181 29.6551 2.79396L30.0629 2.5222V15.0313H14.9376V2.5222L15.3453 2.79396ZM34.5723 42.7923C34.5723 43.2326 34.214 43.5909 33.7737 43.5909H11.2268C10.7864 43.5909 10.4282 43.2326 10.4282 42.7923V14.2327C10.4282 13.7924 10.7864 13.4342 11.2268 13.4342H13.5284V15.0312H12.7299C12.3408 15.0312 12.0253 15.3467 12.0253 15.7358C12.0253 16.125 12.3407 16.4405 12.7299 16.4405H32.2706C32.6597 16.4405 32.9752 16.125 32.9752 15.7358C32.9752 15.3467 32.6598 15.0312 32.2706 15.0312H31.472V13.4342H33.7737C34.214 13.4342 34.5723 13.7924 34.5723 14.2327V42.7923Z" fill="black"/>
<path d="M31.5187 18.0376H13.4811C12.6781 18.0376 12.0249 18.6908 12.0249 19.4938V23.2516C12.0249 24.0546 12.6781 24.7078 13.4811 24.7078H31.5187C32.3217 24.7078 32.9749 24.0546 32.9749 23.2516V19.4938C32.9749 18.6908 32.3217 18.0376 31.5187 18.0376ZM31.5656 23.2515C31.5656 23.2775 31.5446 23.2985 31.5187 23.2985H13.4811C13.4551 23.2985 13.4341 23.2775 13.4341 23.2515V19.4937C13.4341 19.4678 13.4551 19.4467 13.4811 19.4467H31.5187C31.5446 19.4467 31.5656 19.4678 31.5656 19.4937V23.2515Z" fill="black"/>
<path d="M17.2388 26.3048H14.2325C13.4296 26.3048 12.7764 26.958 12.7764 27.761V29.2641C12.7764 30.0671 13.4296 30.7203 14.2325 30.7203H17.2388C18.0418 30.7203 18.695 30.0671 18.695 29.2641V27.761C18.695 26.958 18.0418 26.3048 17.2388 26.3048ZM17.2858 29.2641C17.2858 29.29 17.2648 29.311 17.2388 29.311H14.2325C14.2066 29.311 14.1856 29.29 14.1856 29.2641V27.761C14.1856 27.7351 14.2066 27.714 14.2325 27.714H17.2388C17.2648 27.714 17.2858 27.7351 17.2858 27.761V29.2641Z" fill="black"/>
<path d="M30.7672 26.3048H27.7609C26.9579 26.3048 26.3047 26.958 26.3047 27.761V29.2641C26.3047 30.0671 26.9579 30.7203 27.7609 30.7203H30.7672C31.5701 30.7203 32.2233 30.0671 32.2233 29.2641V27.761C32.2232 26.958 31.57 26.3048 30.7672 26.3048ZM30.8141 29.2641C30.8141 29.29 30.7931 29.311 30.7672 29.311H27.7609C27.7349 29.311 27.7139 29.29 27.7139 29.2641V27.761C27.7139 27.7351 27.7349 27.714 27.7609 27.714H30.7672C30.7931 27.714 30.8141 27.7351 30.8141 27.761V29.2641Z" fill="black"/>
<path d="M24.003 26.3048H20.9967C20.1937 26.3048 19.5405 26.958 19.5405 27.761V29.2641C19.5405 30.0671 20.1937 30.7203 20.9967 30.7203H24.003C24.806 30.7203 25.4592 30.0671 25.4592 29.2641V27.761C25.4592 26.958 24.806 26.3048 24.003 26.3048ZM24.05 29.2641C24.05 29.29 24.029 29.311 24.0031 29.311H20.9968C20.9709 29.311 20.9499 29.29 20.9499 29.2641V27.761C20.9499 27.7351 20.9709 27.714 20.9968 27.714H24.0031C24.029 27.714 24.05 27.7351 24.05 27.761V29.2641Z" fill="black"/>
<path d="M17.2388 31.5658H14.2325C13.4296 31.5658 12.7764 32.219 12.7764 33.022V34.5251C12.7764 35.328 13.4296 35.9812 14.2325 35.9812H17.2388C18.0418 35.9812 18.695 35.328 18.695 34.5251V33.022C18.695 32.219 18.0418 31.5658 17.2388 31.5658ZM17.2858 34.5251C17.2858 34.551 17.2648 34.572 17.2388 34.572H14.2325C14.2066 34.572 14.1856 34.551 14.1856 34.5251V33.022C14.1856 32.996 14.2066 32.975 14.2325 32.975H17.2388C17.2648 32.975 17.2858 32.996 17.2858 33.022V34.5251Z" fill="black"/>
<path d="M30.7672 31.5658H27.7609C26.9579 31.5658 26.3047 32.219 26.3047 33.022V34.5251C26.3047 35.328 26.9579 35.9812 27.7609 35.9812H30.7672C31.5701 35.9812 32.2233 35.328 32.2233 34.5251V33.022C32.2232 32.219 31.57 31.5658 30.7672 31.5658ZM30.8141 34.5251C30.8141 34.551 30.7931 34.572 30.7672 34.572H27.7609C27.7349 34.572 27.7139 34.551 27.7139 34.5251V33.022C27.7139 32.996 27.7349 32.975 27.7609 32.975H30.7672C30.7931 32.975 30.8141 32.996 30.8141 33.022V34.5251Z" fill="black"/>
<path d="M24.003 31.5658H20.9967C20.1937 31.5658 19.5405 32.219 19.5405 33.022V34.5251C19.5405 35.328 20.1937 35.9812 20.9967 35.9812H24.003C24.806 35.9812 25.4592 35.328 25.4592 34.5251V33.022C25.4592 32.219 24.806 31.5658 24.003 31.5658ZM24.05 34.5251C24.05 34.551 24.029 34.572 24.0031 34.572H20.9968C20.9709 34.572 20.9499 34.551 20.9499 34.5251V33.022C20.9499 32.996 20.9709 32.975 20.9968 32.975H24.0031C24.029 32.975 24.05 32.996 24.05 33.022V34.5251Z" fill="black"/>
<path d="M17.2388 36.8267H14.2325C13.4296 36.8267 12.7764 37.4799 12.7764 38.2828V39.7859C12.7764 40.5889 13.4296 41.2421 14.2325 41.2421H17.2388C18.0418 41.2421 18.695 40.5889 18.695 39.7859V38.2828C18.695 37.4799 18.0418 36.8267 17.2388 36.8267ZM17.2858 39.7859C17.2858 39.8119 17.2648 39.8329 17.2388 39.8329H14.2325C14.2066 39.8329 14.1856 39.8119 14.1856 39.7859V38.2828C14.1856 38.2569 14.2066 38.2359 14.2325 38.2359H17.2388C17.2648 38.2359 17.2858 38.2569 17.2858 38.2828V39.7859Z" fill="black"/>
<path d="M30.7672 36.8267H27.7609C26.9579 36.8267 26.3047 37.4799 26.3047 38.2828V39.7859C26.3047 40.5889 26.9579 41.2421 27.7609 41.2421H30.7672C31.5701 41.2421 32.2233 40.5889 32.2233 39.7859V38.2828C32.2232 37.4799 31.57 36.8267 30.7672 36.8267ZM30.8141 39.7859C30.8141 39.8119 30.7931 39.8329 30.7672 39.8329H27.7609C27.7349 39.8329 27.7139 39.8119 27.7139 39.7859V38.2828C27.7139 38.2569 27.7349 38.2359 27.7609 38.2359H30.7672C30.7931 38.2359 30.8141 38.2569 30.8141 38.2828V39.7859Z" fill="black"/>
<path d="M24.003 36.8267H20.9967C20.1937 36.8267 19.5405 37.4799 19.5405 38.2828V39.7859C19.5405 40.5889 20.1937 41.2421 20.9967 41.2421H24.003C24.806 41.2421 25.4592 40.5889 25.4592 39.7859V38.2828C25.4592 37.4799 24.806 36.8267 24.003 36.8267ZM24.05 39.7859C24.05 39.8119 24.029 39.8329 24.0031 39.8329H20.9968C20.9709 39.8329 20.9499 39.8119 20.9499 39.7859V38.2828C20.9499 38.2569 20.9709 38.2359 20.9968 38.2359H24.0031C24.029 38.2359 24.05 38.2569 24.05 38.2828V39.7859Z" fill="black"/>
<path d="M20.2451 6.6701H24.7545C25.1436 6.6701 25.4592 6.35466 25.4592 5.96548C25.4592 5.5763 25.1437 5.26086 24.7545 5.26086H20.2451C19.8561 5.26086 19.5405 5.5763 19.5405 5.96548C19.5405 6.35466 19.856 6.6701 20.2451 6.6701Z" fill="black"/>
<path d="M17.2388 9.67645H27.7607C28.1498 9.67645 28.4653 9.36101 28.4653 8.97183C28.4653 8.58274 28.1499 8.26721 27.7607 8.26721H17.2388C16.8497 8.26721 16.5342 8.58265 16.5342 8.97183C16.5342 9.36101 16.8497 9.67645 17.2388 9.67645Z" fill="black"/>
<path d="M17.2388 12.6827H18.7419C19.131 12.6827 19.4465 12.3672 19.4465 11.9781C19.4465 11.589 19.1311 11.2734 18.7419 11.2734H17.2388C16.8497 11.2734 16.5342 11.5889 16.5342 11.9781C16.5342 12.3671 16.8497 12.6827 17.2388 12.6827Z" fill="black"/>
<path d="M27.7609 11.2734H26.2578C25.8687 11.2734 25.5532 11.5889 25.5532 11.9781C25.5532 12.3671 25.8687 12.6827 26.2578 12.6827H27.7609C28.15 12.6827 28.4656 12.3672 28.4656 11.9781C28.4656 11.589 28.15 11.2734 27.7609 11.2734Z" fill="black"/>
<path d="M23.2517 11.2734H21.7486C21.3595 11.2734 21.0439 11.5889 21.0439 11.9781C21.0439 12.3671 21.3594 12.6827 21.7486 12.6827H23.2517C23.6408 12.6827 23.9563 12.3672 23.9563 11.9781C23.9563 11.589 23.6408 11.2734 23.2517 11.2734Z" fill="black"/>
</svg>
