<svg width="60" height="70" viewBox="0 0 60 70" fill="none" xmlns="http://www.w3.org/2000/svg">
<path d="M49.1714 11.6547L51.6324 13.308L48.1076 18.6549L45.6465 17.0016L49.1714 11.6547Z" fill="#29383A" stroke="#1C1F23"/>
<path d="M49.8394 8.25024C50.0396 7.96066 50.4077 7.86452 50.7144 7.99829L50.8413 8.06958L54.3169 10.5178C54.6241 10.7346 54.7155 11.1514 54.5356 11.4778L54.4956 11.5422L52.7798 14.0247C52.5792 14.3145 52.2112 14.4114 51.9048 14.2776L51.7778 14.2053L48.3022 11.7571C47.995 11.5408 47.9035 11.1234 48.0835 10.7971L48.1226 10.7336L49.8394 8.25024Z" fill="#3A4D51" stroke="#1C1F23"/>
<path d="M30.0005 3.51001C30.7395 3.51004 31.3888 3.60503 31.8364 3.74536C32.0629 3.81637 32.2099 3.89047 32.2896 3.94946C32.2969 3.95492 32.3028 3.96074 32.3081 3.96509V10.2375C32.3027 10.242 32.2972 10.2485 32.2896 10.2542C32.2098 10.3132 32.0631 10.3882 31.8364 10.4592C31.3888 10.5996 30.7395 10.6936 30.0005 10.6936C29.2614 10.6936 28.6113 10.5996 28.1636 10.4592C27.9369 10.3881 27.7901 10.3132 27.7104 10.2542C27.7028 10.2485 27.6974 10.242 27.6919 10.2375V3.96509C27.6972 3.9607 27.703 3.95498 27.7104 3.94946C27.7901 3.89047 27.9371 3.8164 28.1636 3.74536C28.6113 3.60501 29.2614 3.51001 30.0005 3.51001Z" fill="#29383A" stroke="#1C1F23"/>
<path d="M10.8281 11.6552L14.3529 17.0021L11.8918 18.6553L8.36699 13.3084L10.8281 11.6552Z" fill="#29383A" stroke="#1C1F23"/>
<path d="M30 9.93262C46.2878 9.93262 59.4997 23.2625 59.5 39.7158C59.5 56.1693 46.288 69.5 30 69.5C13.712 69.5 0.5 56.1693 0.5 39.7158C0.500252 23.2625 13.7122 9.93262 30 9.93262Z" fill="#E85454" stroke="#1C1F23"/>
<path d="M29.9995 15.6549C43.1568 15.6549 53.8315 26.4232 53.8315 39.7164C53.8315 53.0096 43.1568 63.778 29.9995 63.778C16.8424 63.7778 6.16849 53.0095 6.16846 39.7164C6.16846 26.4233 16.8424 15.6551 29.9995 15.6549Z" fill="white" stroke="#1C1F23"/>
<path d="M29.9998 14.7745C36.3915 14.7745 42.4114 17.2077 47.0242 21.6427L47.4666 22.0782C52.1335 26.7893 54.7038 33.0515 54.7039 39.7159C54.7039 46.1722 52.2919 52.2516 47.8982 56.9083L47.4666 57.3546C42.7997 62.0656 36.5977 64.6583 29.9998 64.6583C23.6081 64.6582 17.5881 62.2253 12.9753 57.7902L12.5339 57.3546C7.86687 52.6434 5.29663 46.3806 5.29663 39.7159C5.29672 33.2598 7.70865 27.1812 12.1023 22.5245L12.5339 22.0782C17.2007 17.3673 23.4019 14.7746 29.9998 14.7745ZM29.9998 16.0177C23.9231 16.0178 18.1973 18.3329 13.8142 22.547L13.3943 22.9601C8.96053 27.4358 6.51841 33.3884 6.51831 39.7159C6.51831 45.8459 8.81082 51.6237 12.9851 56.048L13.3943 56.4718C17.8282 60.9476 23.7272 63.4151 29.9998 63.4152C36.0763 63.4152 41.8022 61.0997 46.1853 56.8859L46.6052 56.4718C51.0391 51.996 53.4812 46.0436 53.4812 39.7159C53.4811 33.5863 51.1895 27.809 47.0154 23.3849L46.6052 22.9601C42.1713 18.4844 36.2722 16.0177 29.9998 16.0177Z" fill="#BA4949" stroke="#1C1F23"/>
<path d="M30.0005 18.8934C30.2014 18.8934 30.3723 19.059 30.3726 19.2733V21.1464C30.3723 21.3607 30.2014 21.5262 30.0005 21.5262C29.7996 21.5262 29.6287 21.3606 29.6284 21.1464V19.2733L29.6362 19.1962C29.6716 19.0206 29.8245 18.8935 30.0005 18.8934Z" fill="#3A4D51" stroke="#1C1F23"/>
<path d="M15.4185 24.9902C15.5451 24.8624 15.7396 24.8465 15.8833 24.9424L15.9419 24.9902L17.2534 26.3145C17.3824 26.4449 17.3983 26.6475 17.3013 26.7959L17.2534 26.8555C17.1804 26.9292 17.0862 26.9658 16.9917 26.9658C16.9209 26.9658 16.8502 26.9455 16.7886 26.9043L16.73 26.8555L15.4185 25.5322C15.2894 25.4019 15.2738 25.1992 15.3706 25.0508L15.4185 24.9902Z" fill="#3A4D51" stroke="#1C1F23"/>
<path d="M9.74878 39.3362H11.6033C11.8042 39.3362 11.9751 39.5018 11.9753 39.7161C11.9753 39.9306 11.8043 40.0969 11.6033 40.0969H9.74878C9.54772 40.0969 9.37671 39.9306 9.37671 39.7161C9.37696 39.5018 9.54787 39.3362 9.74878 39.3362Z" fill="#3A4D51" stroke="#1C1F23"/>
<path d="M16.73 52.5767C16.8569 52.4488 17.0512 52.433 17.1948 52.5288L17.2534 52.5767C17.3826 52.7071 17.3981 52.9097 17.3013 53.0581L17.2534 53.1187L15.9419 54.4419C15.8687 54.5158 15.7746 54.5513 15.6802 54.5513C15.6092 54.5513 15.5388 54.5311 15.4771 54.4897L15.4185 54.4419C15.2894 54.3114 15.2737 54.1088 15.3706 53.9604L15.4185 53.9009L16.73 52.5767Z" fill="#3A4D51" stroke="#1C1F23"/>
<path d="M30.0005 57.9065C30.2014 57.9065 30.3723 58.0721 30.3726 58.2864V60.1584C30.3726 60.3729 30.2015 60.5393 30.0005 60.5393C29.7994 60.5393 29.6284 60.3729 29.6284 60.1584V58.2864C29.6287 58.0721 29.7996 57.9065 30.0005 57.9065Z" fill="#3A4D51" stroke="#1C1F23"/>
<path d="M42.7466 52.5767C42.8732 52.4488 43.0677 52.433 43.2114 52.5288L43.27 52.5767L44.5815 53.9009C44.7105 54.0313 44.7264 54.2339 44.6294 54.3823L44.5815 54.4419C44.5085 54.5156 44.4144 54.5513 44.3198 54.5513C44.249 54.5513 44.1784 54.5319 44.1167 54.4907L44.0581 54.4419L42.7466 53.1187C42.6175 52.9884 42.602 52.7857 42.6987 52.6372L42.7466 52.5767Z" fill="#3A4D51" stroke="#1C1F23"/>
<path d="M48.3965 39.3362H50.251C50.4519 39.3362 50.6228 39.5018 50.623 39.7161C50.623 39.9306 50.4521 40.0969 50.251 40.0969H48.3965C48.1954 40.0969 48.0244 39.9306 48.0244 39.7161C48.0247 39.5018 48.1956 39.3362 48.3965 39.3362Z" fill="#3A4D51" stroke="#1C1F23"/>
<path d="M44.0581 24.9902C44.1852 24.8622 44.3795 24.8467 44.5229 24.9424L44.5815 24.9902C44.7106 25.1205 44.7262 25.3233 44.6294 25.4717L44.5815 25.5322L43.27 26.8555C43.1968 26.9293 43.1027 26.9648 43.0083 26.9648C42.9375 26.9648 42.8668 26.9455 42.8052 26.9043L42.7466 26.8555C42.6176 26.7251 42.6018 26.5224 42.6987 26.374L42.7466 26.3145L44.0581 24.9902Z" fill="#3A4D51" stroke="#1C1F23"/>
<path d="M25.8796 0.5H34.1208C35.2741 0.500022 36.2175 1.44527 36.2175 2.62109C36.2175 3.79686 35.2741 4.74217 34.1208 4.74219H25.8796C24.7264 4.74219 23.783 3.79687 23.783 2.62109C23.783 1.44526 24.7263 0.5 25.8796 0.5Z" fill="#3A4D51" stroke="#1C1F23"/>
<path d="M9.15869 8.06958C9.44307 7.8694 9.82151 7.90442 10.0649 8.13794L10.1606 8.25024L11.8774 10.7336C12.079 11.0256 12.0411 11.4135 11.8091 11.6604L11.6978 11.7571L8.22217 14.2053C7.93796 14.4056 7.55962 14.3707 7.31592 14.137L7.22021 14.0247L5.50342 11.5422C5.30138 11.2501 5.33957 10.8618 5.57178 10.6145L5.68311 10.5178L9.15869 8.06958Z" fill="#3A4D51" stroke="#1C1F23"/>
<path d="M33.604 38.0656L33.5698 38.213L33.6216 38.3546C33.941 39.2206 33.9579 40.1997 33.6069 41.1193L33.5317 41.3029C32.6841 43.2306 30.485 44.1184 28.5679 43.3439L28.3833 43.2638C26.5545 42.4131 25.6822 40.2608 26.3735 38.3663L26.4458 38.1837C26.868 37.1848 27.6489 36.4581 28.5698 36.088L28.7144 36.0304L28.8003 35.9005L37.104 23.337L33.604 38.0656ZM31.0415 37.3566C29.8249 36.8116 28.417 37.298 27.7739 38.4347L27.6558 38.67C27.1198 39.8891 27.5956 41.3066 28.7241 41.9572L28.9585 42.0773C30.1752 42.6223 31.583 42.1349 32.2261 40.9982L32.3442 40.7628C32.8802 39.5436 32.4045 38.1261 31.2759 37.4757L31.0415 37.3566Z" fill="#E85454" stroke="#1C1F23"/>
</svg>
