<svg width="241" height="241" viewBox="0 0 241 241" fill="none" xmlns="http://www.w3.org/2000/svg">
<g filter="url(#filter0_d_5357_5940)">
<path d="M220.084 120.5C220.084 167.444 220.084 190.916 205.5 205.499C190.917 220.083 167.444 220.083 120.5 220.083C73.5562 220.083 50.0843 220.083 35.5007 205.499C20.917 190.916 20.917 167.444 20.917 120.5C20.917 73.5559 20.917 50.0839 35.5007 35.5004C50.0843 20.9167 73.5562 20.9167 120.5 20.9167C167.444 20.9167 190.917 20.9167 205.5 35.5004C215.197 45.1972 218.447 58.8236 219.535 80.6667" fill="#7E78E0"/>
<path d="M220.084 120.5C220.084 167.444 220.084 190.916 205.5 205.499C190.917 220.083 167.444 220.083 120.5 220.083C73.5562 220.083 50.0843 220.083 35.5007 205.499C20.917 190.916 20.917 167.444 20.917 120.5C20.917 73.5559 20.917 50.0839 35.5007 35.5004C50.0843 20.9167 73.5562 20.9167 120.5 20.9167C167.444 20.9167 190.917 20.9167 205.5 35.5004C215.197 45.1972 218.447 58.8236 219.535 80.6667" stroke="#231F20" stroke-width="11" stroke-linecap="round"/>
</g>
<path d="M90.625 160.333C99.0934 166.61 109.392 170.292 120.5 170.292C131.608 170.292 141.906 166.61 150.375 160.333" stroke="#231F20" stroke-width="12" stroke-linecap="round"/>
<path d="M150.375 120.5C155.875 120.5 160.334 113.812 160.334 105.562C160.334 97.3127 155.875 90.625 150.375 90.625C144.875 90.625 140.417 97.3127 140.417 105.562C140.417 113.812 144.875 120.5 150.375 120.5Z" fill="#231F20"/>
<path d="M90.6253 120.5C96.1252 120.5 100.584 113.812 100.584 105.562C100.584 97.3127 96.1252 90.625 90.6253 90.625C85.1255 90.625 80.667 97.3127 80.667 105.562C80.667 113.812 85.1255 120.5 90.6253 120.5Z" fill="#231F20"/>
<defs>
<filter id="filter0_d_5357_5940" x="0.416992" y="0.416687" width="240.167" height="240.167" filterUnits="userSpaceOnUse" color-interpolation-filters="sRGB">
<feFlood flood-opacity="0" result="BackgroundImageFix"/>
<feColorMatrix in="SourceAlpha" type="matrix" values="0 0 0 0 0 0 0 0 0 0 0 0 0 0 0 0 0 0 127 0" result="hardAlpha"/>
<feOffset/>
<feGaussianBlur stdDeviation="7.5"/>
<feComposite in2="hardAlpha" operator="out"/>
<feColorMatrix type="matrix" values="0 0 0 0 0 0 0 0 0 0 0 0 0 0 0 0 0 0 1 0"/>
<feBlend mode="normal" in2="BackgroundImageFix" result="effect1_dropShadow_5357_5940"/>
<feBlend mode="normal" in="SourceGraphic" in2="effect1_dropShadow_5357_5940" result="shape"/>
</filter>
</defs>
</svg>
