<svg width="70" height="70" viewBox="0 0 70 70" fill="none" xmlns="http://www.w3.org/2000/svg">
<path d="M34.9999 68.9216C53.7343 68.9216 68.9215 53.7344 68.9215 35.0001C68.9215 16.2657 53.7343 1.07849 34.9999 1.07849C16.2656 1.07849 1.07837 16.2657 1.07837 35.0001C1.07837 53.7344 16.2656 68.9216 34.9999 68.9216Z" fill="#7E78E0"/>
<path d="M20.1592 30.7598L32.4299 43.0305C32.6784 43.279 33.0812 43.279 33.3297 43.0305L66.8013 9.55884" stroke="#231F20" stroke-width="5"/>
<path d="M66.1985 28.8369C67.6067 35.9655 66.5313 43.3612 63.1511 49.7936C59.7708 56.226 54.2899 61.3066 47.6201 64.1904C40.9502 67.0737 33.4943 67.5863 26.4928 65.6426C19.4913 63.6985 13.3666 59.4159 9.13804 53.5068C4.90947 47.5972 2.83207 40.4181 3.25155 33.164C3.67103 25.9098 6.56212 19.0181 11.4437 13.6356C16.3252 8.25327 22.9028 4.70494 30.0818 3.58116C37.2604 2.45739 44.6078 3.82595 50.9007 7.45912" stroke="#231F20" stroke-width="3" stroke-linecap="round"/>
</svg>
