<svg width="30" height="28" viewBox="0 0 30 28" fill="none" xmlns="http://www.w3.org/2000/svg">
<mask id="path-1-inside-1_4992_5801" fill="white">
<path d="M15.8115 0.000976562C17.6714 0.0244744 19.4438 0.409675 21.0615 1.09082C25.9547 3.25538 29.579 8.3757 29.5791 14.0713C29.5791 17.2074 28.4792 20.2014 26.6748 22.6172C24.1116 25.8992 20.1179 28.0098 15.6309 28.0098C15.5356 28.0098 15.4405 28.0078 15.3457 28.0059C15.3457 14.5192 15.3457 22.2123 15.3457 14.4727C15.3457 6.71065 15.3447 14.4727 15.3447 0.015625C15.5005 0.00728508 15.6565 0.00324978 15.8115 0.000976562Z"/>
</mask>
<path d="M15.8115 0.000976562C17.6714 0.0244744 19.4438 0.409675 21.0615 1.09082C25.9547 3.25538 29.579 8.3757 29.5791 14.0713C29.5791 17.2074 28.4792 20.2014 26.6748 22.6172C24.1116 25.8992 20.1179 28.0098 15.6309 28.0098C15.5356 28.0098 15.4405 28.0078 15.3457 28.0059C15.3457 14.5192 15.3457 22.2123 15.3457 14.4727C15.3457 6.71065 15.3447 14.4727 15.3447 0.015625C15.5005 0.00728508 15.6565 0.00324978 15.8115 0.000976562Z" fill="#7E78E0"/>
<path d="M15.8115 0.000976562L15.8368 -1.99886L15.8095 -1.99921L15.7822 -1.99881L15.8115 0.000976562ZM21.0615 1.09082L21.8706 -0.738211L21.8542 -0.745482L21.8376 -0.752456L21.0615 1.09082ZM29.5791 14.0713L31.5791 14.0713L31.5791 14.0713L29.5791 14.0713ZM26.6748 22.6172L28.251 23.8482L28.2643 23.8313L28.2772 23.814L26.6748 22.6172ZM15.6309 28.0098L15.6308 30.0098H15.6309V28.0098ZM15.3457 28.0059L13.3457 28.0059L13.3457 29.9663L15.3057 30.0055L15.3457 28.0059ZM15.3457 14.4727L17.3457 14.4727L15.3457 14.4727ZM15.3447 0.015625L15.2378 -1.98152L13.3447 -1.88017L13.3447 0.0156237L15.3447 0.015625ZM15.8115 0.000976562L15.7863 2.00082C17.3841 2.021 18.9018 2.35154 20.2854 2.9341L21.0615 1.09082L21.8376 -0.752456C19.9857 -1.53219 17.9587 -1.97206 15.8368 -1.99886L15.8115 0.000976562ZM21.0615 1.09082L20.2524 2.91985C24.4619 4.78197 27.579 9.21047 27.5791 14.0713L29.5791 14.0713L31.5791 14.0713C31.579 7.54093 27.4474 1.72879 21.8706 -0.738211L21.0615 1.09082ZM29.5791 14.0713H27.5791C27.5791 16.7396 26.6414 19.3198 25.0724 21.4204L26.6748 22.6172L28.2772 23.814C30.317 21.083 31.5791 17.6752 31.5791 14.0713H29.5791ZM26.6748 22.6172L25.0986 21.3861C22.8979 24.2039 19.4759 26.0098 15.6309 26.0098V28.0098V30.0098C20.76 30.0098 25.3253 27.5944 28.251 23.8482L26.6748 22.6172ZM15.6309 28.0098L15.6309 26.0098C15.5596 26.0098 15.4862 26.0083 15.3857 26.0063L15.3457 28.0059L15.3057 30.0055C15.3949 30.0072 15.5115 30.0098 15.6308 30.0098L15.6309 28.0098ZM15.3457 28.0059L17.3457 28.0059C17.3457 14.5192 17.3457 22.2124 17.3457 14.4727H15.3457H13.3457C13.3457 22.2122 13.3457 14.5193 13.3457 28.0059L15.3457 28.0059ZM15.3457 14.4727L17.3457 14.4727C17.3457 10.5914 17.3455 10.5912 17.3452 9.7542C17.345 8.91768 17.3447 7.24425 17.3447 0.0156263L15.3447 0.015625L13.3447 0.0156237C13.3447 7.24407 13.345 8.91815 13.3452 9.75538C13.3455 10.5921 13.3457 10.5919 13.3457 14.4727L15.3457 14.4727ZM15.3447 0.015625L15.4516 2.01277C15.5719 2.00633 15.6996 2.00283 15.8408 2.00076L15.8115 0.000976562L15.7822 -1.99881C15.6133 -1.99633 15.4292 -1.99176 15.2378 -1.98152L15.3447 0.015625Z" fill="#0F0F0F" mask="url(#path-1-inside-1_4992_5801)"/>
<path d="M13.5 0.0234375V0.514648H14V1.50977H13.5V2.50586H14V3.50488H13.5V4.50879H14V5.51074H13.5V6.50293H14V7.50098H13.5V8.50293H14V9.5H13.5V10.499H14V11.4932H13.5V12.4912H14V13.4912H13.5V14.5088H14V15.5088H13.5V16.5068H14V17.501H13.5V18.5H14V19.4971H13.5V20.499H14V21.4971H13.5V22.4893H14V23.4912H13.5V24.4951H14V25.4941H13.5V26.4902H14V27.4854H13.5V27.9502L13.499 27.9893C13.1638 27.9775 12.8317 27.9549 12.5029 27.9199L12.5557 27.4238C12.2341 27.3896 11.9159 27.3444 11.6016 27.2881L11.5127 27.7793H11.5117C11.1824 27.7202 10.857 27.65 10.5361 27.5684L10.6602 27.084C10.3474 27.0044 10.0389 26.9135 9.73535 26.8125L9.57715 27.2861C9.25974 27.1805 8.94748 27.0638 8.64062 26.9365L8.83203 26.4756C8.53458 26.3522 8.24235 26.2188 7.95605 26.0752L7.73242 26.5205C7.43388 26.3708 7.14135 26.211 6.85547 26.041L7.11035 25.6123C6.83397 25.448 6.564 25.2739 6.30078 25.0908L6.01465 25.5C5.7406 25.3093 5.47414 25.1087 5.21484 24.8994L5.5293 24.5127C5.27904 24.3108 5.03587 24.0998 4.80078 23.8809L4.46094 24.2451C4.21696 24.0179 3.98115 23.7821 3.75391 23.5381L4.11914 23.1992C3.90017 22.9641 3.68923 22.721 3.4873 22.4707L3.09961 22.7842C2.89038 22.5249 2.68965 22.2584 2.49902 21.9844L2.90918 21.6992C2.7261 21.436 2.55204 21.166 2.3877 20.8896L1.95801 21.1436C1.78805 20.8577 1.62822 20.5652 1.47852 20.2666L1.9248 20.0439C1.78121 19.7576 1.64778 19.4654 1.52441 19.168L1.0625 19.3584C0.935268 19.0515 0.818469 18.7393 0.712891 18.4219L1.1875 18.2646C1.08651 17.9611 0.9956 17.6526 0.916016 17.3398L0.430664 17.4629C0.349025 17.142 0.278769 16.8166 0.219727 16.4873L0.711914 16.3984C0.655569 16.0841 0.610358 15.7659 0.576172 15.4443L0.0791016 15.4961C0.0441759 15.1673 0.0215312 14.8352 0.00976562 14.5L0.508789 14.4834L0.5 14C0.5 13.8383 0.503155 13.6769 0.508789 13.5166L0.00976562 13.499C0.0215541 13.1639 0.0441533 12.8317 0.0791016 12.5029L0.576172 12.5557C0.610358 12.2341 0.655569 11.9159 0.711914 11.6016L0.220703 11.5127L0.219727 11.5117C0.278791 11.1824 0.349004 10.857 0.430664 10.5361L0.431641 10.5371L0.916016 10.6602C0.9956 10.3474 1.08651 10.0389 1.1875 9.73535L0.712891 9.57715C0.818488 9.25976 0.935251 8.94746 1.0625 8.64062L1.52441 8.83203C1.64778 8.53458 1.78121 8.24235 1.9248 7.95605L1.47852 7.73242C1.59764 7.49491 1.72249 7.26081 1.85449 7.03125L1.95801 6.85547L2.3877 7.11035C2.55204 6.83397 2.7261 6.564 2.90918 6.30078L2.49902 6.01465C2.68965 5.74061 2.89037 5.47413 3.09961 5.21484L3.4873 5.5293C3.68923 5.27904 3.90017 5.03587 4.11914 4.80078L3.75391 4.46094C3.98115 4.21696 4.21696 3.98115 4.46094 3.75391L4.80078 4.11914C5.03587 3.90017 5.27904 3.68923 5.5293 3.4873L5.21484 3.09961C5.47413 2.89037 5.74061 2.68965 6.01465 2.49902L6.30078 2.90918C6.564 2.7261 6.83397 2.55204 7.11035 2.3877L6.85547 1.95801C7.14134 1.78804 7.43389 1.62824 7.73242 1.47852L7.95605 1.9248C8.24235 1.78121 8.53458 1.64778 8.83203 1.52441L8.64062 1.0625C8.94746 0.935251 9.25976 0.818488 9.57715 0.712891L9.73535 1.1875C10.0389 1.08651 10.3474 0.9956 10.6602 0.916016L10.5371 0.431641L10.5361 0.430664C10.857 0.349004 11.1824 0.278791 11.5117 0.219727L11.5127 0.220703L11.6016 0.711914C11.9159 0.655569 12.2341 0.610358 12.5557 0.576172L12.5029 0.0791016C12.8317 0.0441533 13.1639 0.0215541 13.499 0.00976562L13.5 0.0234375Z" fill="#FFFFD9" stroke="#808080" stroke-dasharray="1 1"/>
</svg>
