<svg width="107" height="104" viewBox="0 0 107 104" fill="none" xmlns="http://www.w3.org/2000/svg">
<g filter="url(#filter0_f_5089_5145)">
<path d="M52 52C52 79.6142 52 52 52 102C24.3858 102 2 79.6142 2 52C2 24.3858 24.3858 2 52 2C52 52 52 24.3858 52 52Z" fill="#FFFFD9"/>
<path d="M51.499 2.50293L51.5 2.50195V2.52246H52V3.5498H51.5V4.55469H52V5.53711H51.5V6.50195H52V7.54004H51.5V8.55273H52V9.53906H51.5V10.5H52V11.54H51.5V12.5488H52V13.5283H51.5V14.5186H52V15.5449H51.5V16.5361H52V17.5078H51.5V18.541H52V19.5332H51.5V20.5137H52V21.54H51.5V22.5176H52V23.5312H51.5V24.5273H52V25.5234H51.5V26.5264H52V27.5254H51.5V28.5137H52V29.5283H51.5V30.5186H52V31.5039H51.5V32.501H52V33.5059H51.5V34.5127H52V35.5049H51.5V36.501H52V37.4941H51.5V38.4883H52V39.4951H51.5V40.4941H52V41.4941H51.5V42.4932H52V43.4756H51.5V44.4736H52V45.4941H51.5V46.4668H52V47.4961H51.5V48.4639H52V49.4951H51.5V50.4629H52V51.4746H51.5V52.5254H52V53.5371H51.5V54.5049H52V55.5361H51.5V56.5039H52V57.5332H51.5V58.5059H52V59.5264H51.5V60.5244H52V61.5068H51.5V62.5059H52V63.5059H51.5V64.5049H52V65.5117H51.5V66.5059H52V67.499H51.5V68.4951H52V69.4873H51.5V70.4941H52V71.499H51.5V72.4961H52V73.4814H51.5V74.4717H52V75.4863H51.5V76.4746H52V77.4736H51.5V78.4766H52V79.4727H51.5V80.4688H52V81.4824H51.5V82.46H52V83.4863H51.5V84.4668H52V85.459H51.5V86.4922H52V87.4639H51.5V88.4551H52V89.4814H51.5V90.4717H52V91.4512H51.5V92.46H52V93.5H51.5V94.4609H52V95.4473H51.5V96.46H52V97.498H51.5V98.4629H52V99.4453H51.5V100.45H52V101.478H51.5V101.497H51.499L51.4941 101.996C51.1574 101.993 50.8215 101.986 50.4863 101.976L50.501 101.478C50.1691 101.468 49.838 101.455 49.5078 101.438L49.4834 101.937C49.1462 101.92 48.81 101.899 48.4746 101.876L48.5098 101.379C48.1778 101.356 47.8467 101.329 47.5166 101.3L47.4717 101.797C47.137 101.767 46.8034 101.733 46.4707 101.696L46.5254 101.201C46.1941 101.165 45.8635 101.125 45.5342 101.082L45.4697 101.576C45.137 101.533 44.8053 101.486 44.4746 101.437L44.5498 100.943C44.2201 100.894 43.891 100.84 43.5635 100.784L43.4785 101.275C43.1473 101.219 42.8172 101.159 42.4883 101.096L42.583 100.605C42.2564 100.543 41.9308 100.477 41.6064 100.407L41.502 100.895C41.1729 100.824 40.8452 100.751 40.5186 100.674L40.6328 100.188C40.3096 100.113 39.9877 100.033 39.667 99.9512L39.542 100.435C39.2161 100.351 38.8916 100.264 38.5684 100.174L38.7021 99.6934C38.3819 99.6043 38.0627 99.5123 37.7451 99.417L37.6006 99.8955C37.2788 99.7989 36.9586 99.6986 36.6396 99.5957L36.793 99.1201C36.4763 99.018 36.1605 98.913 35.8467 98.8047L35.6836 99.2754C35.3665 99.166 35.0505 99.0541 34.7363 98.9385L34.9092 98.4707C34.5968 98.3558 34.286 98.2372 33.9766 98.1162L33.7939 98.5811C33.4811 98.4587 33.171 98.3306 32.8613 98.2021L33.0518 97.7441C32.7446 97.6168 32.4388 97.4859 32.1348 97.3525L31.9355 97.8066C31.6276 97.6716 31.3213 97.5337 31.0166 97.3926L31.2256 96.9434C30.9241 96.8038 30.6243 96.6611 30.3262 96.5156L30.1084 96.9619C29.8061 96.8144 29.504 96.667 29.2051 96.5137L29.4346 96.0693C29.139 95.9177 28.8448 95.7628 28.5527 95.6055L28.3164 96.043C28.0206 95.8835 27.7268 95.7208 27.4346 95.5557L27.6787 95.123C27.3895 94.9596 27.102 94.7931 26.8164 94.624L26.5625 95.0508C26.2735 94.8797 25.9864 94.706 25.7012 94.5293L25.9639 94.1074C25.6812 93.9323 25.3999 93.7549 25.1211 93.5742L24.8506 93.9912C24.5689 93.8087 24.2885 93.6245 24.0107 93.4365L24.291 93.0234C24.0156 92.837 23.7421 92.6478 23.4707 92.4561L23.1826 92.8633C22.9082 92.6694 22.6366 92.4717 22.3662 92.2725L22.6621 91.873C22.3945 91.6758 22.1287 91.4759 21.8652 91.2734L21.5625 91.666C21.2964 91.4615 21.0323 91.2546 20.7705 91.0449L21.0811 90.6582C20.8217 90.4505 20.5646 90.2401 20.3096 90.0273L19.9902 90.4092C19.7322 90.1939 19.4753 89.9772 19.2217 89.7568L19.5498 89.3809C19.299 89.1629 19.0501 88.9426 18.8037 88.7197L18.4688 89.0889C18.2197 88.8635 17.974 88.6345 17.7295 88.4043L18.0713 88.043C17.8294 87.8152 17.5898 87.5851 17.3525 87.3525L17.0049 87.707C16.7649 87.4718 16.5272 87.2342 16.292 86.9941L16.6475 86.6475C16.4149 86.4102 16.1848 86.1706 15.957 85.9287L15.5947 86.2695C15.3645 86.025 15.1355 85.7794 14.9102 85.5303L15.2803 85.1963C15.0574 84.9499 14.8371 84.701 14.6191 84.4502L14.2422 84.7773C14.0218 84.5237 13.8051 84.2669 13.5898 84.0088L13.9727 83.6904C13.7599 83.4354 13.5495 83.1783 13.3418 82.9189L12.9541 83.2285C12.7444 82.9667 12.5375 82.7026 12.333 82.4365L12.7266 82.1348C12.5241 81.8713 12.3242 81.6055 12.127 81.3379L11.7266 81.6328C11.5273 81.3625 11.3296 81.0909 11.1357 80.8164L11.5439 80.5293C11.3522 80.2579 11.163 79.9844 10.9766 79.709L10.5625 79.9883C10.3745 79.7105 10.1903 79.4301 10.0078 79.1484L10.4258 78.8789C10.2451 78.6001 10.0677 78.3188 9.89258 78.0361L9.46973 78.2979C9.29301 78.0127 9.11934 77.7255 8.94824 77.4365L9.37598 77.1836C9.20686 76.898 9.04045 76.6105 8.87695 76.3213L8.44336 76.5645C8.2782 76.2722 8.11547 75.9785 7.95605 75.6826L8.39453 75.4473C8.23716 75.1552 8.0823 74.861 7.93066 74.5654L7.48535 74.7939C7.332 74.4951 7.18458 74.193 7.03711 73.8906L7.48438 73.6738C7.33893 73.3757 7.19623 73.0759 7.05664 72.7744L6.60645 72.9824C6.46538 72.6778 6.32746 72.3714 6.19238 72.0635L6.64746 71.8652C6.5141 71.5612 6.38325 71.2554 6.25586 70.9482L5.79688 71.1377C5.66845 70.828 5.54031 70.5179 5.41797 70.2051L5.88379 70.0234C5.76276 69.714 5.64424 69.4032 5.5293 69.0908L5.06055 69.2627C4.94495 68.9485 4.83306 68.6326 4.72363 68.3154L5.19531 68.1533C5.08702 67.8395 4.982 67.5237 4.87988 67.207L4.40332 67.3594C4.30046 67.0404 4.2001 66.7202 4.10352 66.3984L4.58301 66.2549C4.48766 65.9373 4.39574 65.6181 4.30664 65.2979L3.8252 65.4307C3.73526 65.1074 3.64802 64.7829 3.56445 64.457L4.04883 64.333C3.96659 64.0123 3.88746 63.6904 3.81152 63.3672L3.3252 63.4805C3.24846 63.1539 3.17479 62.8261 3.10449 62.4971L3.59277 62.3936C3.52348 62.0692 3.45744 61.7436 3.39453 61.417L2.90332 61.5107C2.83998 61.1818 2.78049 60.8517 2.72363 60.5205L3.21582 60.4365C3.15961 60.1092 3.10639 59.7807 3.05664 59.4512L2.5625 59.5244C2.5126 59.1938 2.46625 58.862 2.42285 58.5293L2.91797 58.4658C2.87501 58.1365 2.83528 57.8059 2.79883 57.4746L2.30273 57.5283C2.26614 57.1956 2.23218 56.862 2.20215 56.5273L2.7002 56.4834C2.67056 56.1533 2.64421 55.8222 2.62109 55.4902L2.12305 55.5244C2.09969 55.189 2.07921 54.8528 2.0625 54.5156L2.56152 54.4922C2.54515 54.162 2.53233 53.8309 2.52246 53.499L2.02344 53.5127C2.01348 53.1776 2.00626 52.8416 2.00293 52.5049L2.50293 52.501C2.50128 52.3342 2.5 52.1672 2.5 52C2.5 51.8328 2.50128 51.6658 2.50293 51.499L2.00293 51.4941C2.00627 51.1574 2.01347 50.8215 2.02344 50.4863L2.52246 50.501C2.53233 50.1691 2.54515 49.838 2.56152 49.5078L2.0625 49.4834C2.07921 49.1462 2.09969 48.81 2.12305 48.4746L2.62109 48.5098C2.64421 48.1778 2.67056 47.8467 2.7002 47.5166L2.20215 47.4717C2.21965 47.2767 2.23808 47.082 2.25781 46.8877L2.30273 46.4707L2.79883 46.5254C2.83528 46.1941 2.87501 45.8635 2.91797 45.5342L2.42285 45.4697C2.46625 45.137 2.51259 44.8052 2.5625 44.4746L3.05664 44.5498C3.10641 44.2201 3.15959 43.891 3.21582 43.5635L2.72363 43.4785C2.7778 43.1631 2.83448 42.8486 2.89453 42.5352L2.90332 42.4883L3.39453 42.583C3.45744 42.2564 3.52348 41.9308 3.59277 41.6064L3.10449 41.502C3.17479 41.1729 3.24845 40.8451 3.3252 40.5186L3.81152 40.6328C3.88746 40.3096 3.96659 39.9877 4.04883 39.667L3.56445 39.542C3.61893 39.3296 3.67426 39.1176 3.73145 38.9062L3.8252 38.5684L4.30664 38.7021C4.39574 38.3819 4.48766 38.0627 4.58301 37.7451L4.10449 37.6016L4.10352 37.6006C4.20011 37.2788 4.30046 36.9586 4.40332 36.6396L4.87988 36.793C4.982 36.4763 5.08703 36.1605 5.19531 35.8467L4.72363 35.6836C4.83307 35.3665 4.94495 35.0505 5.06055 34.7363L5.5293 34.9092C5.64424 34.5968 5.76276 34.286 5.88379 33.9766L5.41797 33.7939C5.54031 33.4812 5.66845 33.171 5.79688 32.8613L6.25586 33.0518C6.38325 32.7446 6.5141 32.4388 6.64746 32.1348L6.19238 31.9355C6.32746 31.6276 6.46538 31.3213 6.60645 31.0166L7.05664 31.2256C7.19623 30.9241 7.33893 30.6243 7.48438 30.3262L7.03711 30.1084C7.18458 29.8061 7.332 29.504 7.48535 29.2051L7.48633 29.2061L7.93066 29.4346C8.08231 29.139 8.23715 28.8448 8.39453 28.5527L7.95605 28.3164C8.11547 28.0206 8.27819 27.7268 8.44336 27.4346L8.87695 27.6787C9.04045 27.3895 9.20686 27.102 9.37598 26.8164L8.94824 26.5625C9.11934 26.2735 9.29301 25.9864 9.46973 25.7012L9.89258 25.9639C10.0677 25.6812 10.2451 25.3999 10.4258 25.1211L10.0078 24.8506C10.1828 24.5805 10.359 24.3114 10.5391 24.0449L10.5625 24.0107L10.9766 24.291C11.163 24.0156 11.3522 23.7421 11.5439 23.4707L11.1357 23.1826C11.3296 22.9082 11.5273 22.6366 11.7266 22.3662L12.127 22.6621C12.3242 22.3945 12.5241 22.1287 12.7266 21.8652L12.333 21.5625C12.5375 21.2964 12.7444 21.0323 12.9541 20.7705L13.3418 21.0811C13.5495 20.8217 13.7599 20.5646 13.9727 20.3096L13.5898 19.9902C13.789 19.7515 13.9889 19.5133 14.1924 19.2783L14.2422 19.2217L14.6191 19.5498C14.8371 19.299 15.0574 19.0501 15.2803 18.8037L14.9102 18.4688C15.1355 18.2197 15.3645 17.974 15.5947 17.7295L15.957 18.0713C16.1848 17.8294 16.4149 17.5898 16.6475 17.3525L16.292 17.0049C16.5272 16.7649 16.7649 16.5272 17.0049 16.292L17.3525 16.6475C17.5898 16.4149 17.8294 16.1848 18.0713 15.957L17.7295 15.5947C17.974 15.3645 18.2197 15.1355 18.4688 14.9102L18.8037 15.2803C19.0501 15.0574 19.299 14.8371 19.5498 14.6191L19.2217 14.2422C19.4753 14.0218 19.7322 13.8051 19.9902 13.5898L20.3096 13.9727C20.5646 13.7599 20.8217 13.5495 21.0811 13.3418L20.7705 12.9541C21.0323 12.7444 21.2964 12.5375 21.5625 12.333L21.8652 12.7266C22.1287 12.5241 22.3945 12.3242 22.6621 12.127L22.3662 11.7266C22.6366 11.5273 22.9082 11.3296 23.1826 11.1357L23.4707 11.5439C23.7421 11.3522 24.0156 11.163 24.291 10.9766L24.0107 10.5625C24.2885 10.3745 24.5689 10.1903 24.8506 10.0078L25.1211 10.4258C25.3999 10.2451 25.6812 10.0677 25.9639 9.89258L25.7012 9.46973C25.9864 9.29301 26.2735 9.11934 26.5625 8.94824L26.8164 9.37598C27.102 9.20686 27.3895 9.04045 27.6787 8.87695L27.4346 8.44336C27.7268 8.27819 28.0206 8.11547 28.3164 7.95605L28.5527 8.39453C28.8448 8.23716 29.139 8.0823 29.4346 7.93066L29.2061 7.48633L29.2051 7.48535C29.504 7.332 29.8061 7.18458 30.1084 7.03711L30.3262 7.48438C30.6243 7.33893 30.9241 7.19623 31.2256 7.05664L31.0166 6.60645C31.3213 6.46538 31.6276 6.32746 31.9355 6.19238L32.1348 6.64746C32.4388 6.5141 32.7446 6.38325 33.0518 6.25586L32.8613 5.79688C33.171 5.66845 33.4811 5.54031 33.7939 5.41797L33.9766 5.88379C34.286 5.76276 34.5968 5.64424 34.9092 5.5293L34.7363 5.06055C35.0505 4.94495 35.3665 4.83307 35.6836 4.72363L35.8467 5.19531C36.1605 5.08702 36.4763 4.982 36.793 4.87988L36.6396 4.40332C36.9586 4.30046 37.2788 4.20011 37.6006 4.10352L37.6016 4.10449L37.7451 4.58301C38.0627 4.48766 38.3819 4.39574 38.7021 4.30664L38.5684 3.8252C38.8916 3.73525 39.2161 3.64803 39.542 3.56445L39.667 4.04883C39.9877 3.96659 40.3096 3.88746 40.6328 3.81152L40.5186 3.3252C40.8451 3.24845 41.1729 3.17479 41.502 3.10449L41.6064 3.59277C41.9308 3.52348 42.2564 3.45744 42.583 3.39453L42.4883 2.90332C42.8172 2.83998 43.1474 2.7805 43.4785 2.72363L43.5635 3.21582C43.8908 3.15961 44.2193 3.10639 44.5488 3.05664L44.4746 2.5625C44.8052 2.51259 45.137 2.46625 45.4697 2.42285L45.5342 2.91797C45.8635 2.87501 46.1941 2.83528 46.5254 2.79883L46.4707 2.30273C46.8034 2.26613 47.137 2.23219 47.4717 2.20215L47.5166 2.7002C47.8467 2.67056 48.1778 2.64421 48.5098 2.62109L48.4746 2.12305C48.81 2.09969 49.1462 2.07921 49.4834 2.0625L49.5078 2.56152C49.838 2.54515 50.1691 2.53233 50.501 2.52246L50.4863 2.02344C50.8215 2.01347 51.1574 2.00627 51.4941 2.00293L51.499 2.50293Z" stroke="#808080" stroke-dasharray="1 1"/>
</g>
<mask id="path-3-inside-1_5089_5145" fill="white">
<path d="M57.7217 2C64.2903 2.08895 70.5537 3.44155 76.2812 5.82324C93.9148 13.5307 107 31.9466 107 52.4404C107 63.3099 103.319 73.705 97.2314 82.209C88.08 94.4395 73.4788 102.355 57.0283 102.355C56.6847 102.355 56.342 102.351 56 102.344V2.05762C56.5752 2.02681 57.1492 2.00772 57.7217 2Z"/>
</mask>
<path d="M57.7217 2C64.2903 2.08895 70.5537 3.44155 76.2812 5.82324C93.9148 13.5307 107 31.9466 107 52.4404C107 63.3099 103.319 73.705 97.2314 82.209C88.08 94.4395 73.4788 102.355 57.0283 102.355C56.6847 102.355 56.342 102.351 56 102.344V2.05762C56.5752 2.02681 57.1492 2.00772 57.7217 2Z" fill="#7E78E0"/>
<path d="M57.7217 2L57.7488 0.000183355L57.7217 -0.000182581L57.6947 0.000181778L57.7217 2ZM76.2812 5.82324L77.0823 3.99065L77.0658 3.98345L77.0492 3.97654L76.2812 5.82324ZM107 52.4404L109 52.4404V52.4404H107ZM97.2314 82.209L98.8328 83.4072L98.8454 83.3903L98.8577 83.3732L97.2314 82.209ZM57.0283 102.355L57.0283 104.355H57.0283V102.355ZM56 102.344H54V104.304L55.9598 104.343L56 102.344ZM56 2.05762L55.893 0.0604794L54 0.161866V2.05762H56ZM57.7217 2L57.6946 3.99982C64.0041 4.08526 70.0163 5.38412 75.5133 7.66994L76.2812 5.82324L77.0492 3.97654C71.0911 1.49899 64.5766 0.0926447 57.7488 0.000183355L57.7217 2ZM76.2812 5.82324L75.4802 7.65583C92.425 15.0622 105 32.7837 105 52.4404H107H109C109 31.1095 95.4046 11.9992 77.0823 3.99065L76.2812 5.82324ZM107 52.4404L105 52.4404C105 62.8581 101.471 72.8514 95.6052 81.0448L97.2314 82.209L98.8577 83.3732C105.168 74.5586 109 63.7617 109 52.4404L107 52.4404ZM97.2314 82.209L95.6301 81.0108C86.84 92.7584 72.8218 100.355 57.0283 100.355V102.355V104.355C74.1358 104.355 89.32 96.1206 98.8328 83.4072L97.2314 82.209ZM57.0283 102.355L57.0283 100.355C56.703 100.355 56.3747 100.351 56.0402 100.344L56 102.344L55.9598 104.343C56.3092 104.35 56.6665 104.355 57.0283 104.355L57.0283 102.355ZM56 102.344H58V2.05762H56H54V102.344H56ZM56 2.05762L56.107 4.05475C56.6553 4.02539 57.2026 4.00718 57.7486 3.99982L57.7217 2L57.6947 0.000181778C57.0958 0.0082573 56.4952 0.0282318 55.893 0.0604794L56 2.05762Z" fill="#0F0F0F" mask="url(#path-3-inside-1_5089_5145)"/>
<defs>
<filter id="filter0_f_5089_5145" x="0" y="0" width="54" height="104" filterUnits="userSpaceOnUse" color-interpolation-filters="sRGB">
<feFlood flood-opacity="0" result="BackgroundImageFix"/>
<feBlend mode="normal" in="SourceGraphic" in2="BackgroundImageFix" result="shape"/>
<feGaussianBlur stdDeviation="1" result="effect1_foregroundBlur_5089_5145"/>
</filter>
</defs>
</svg>
