<svg width="42" height="40" viewBox="0 0 42 40" fill="none" xmlns="http://www.w3.org/2000/svg">
<path d="M19.5313 1.28271H22.5066L26.4897 14.1726L40.4064 14.65L41.1742 16.0822L29.9928 24.9618L34.0719 38.0427L32.5842 39.2362L21.067 30.9294L10.0776 39.0929L7.8701 38.4723L12.0451 24.45L0.86377 16.1776L2.30343 14.1726H15.8842L19.5313 1.28271Z" fill="#1A1D21"/>
<path d="M41.8616 15.0785C41.4914 13.9451 40.4782 13.2126 39.2803 13.2126H27.2874L23.5814 1.86585C23.2113 0.73242 22.198 0 21.0001 0C19.8021 0 18.7889 0.732257 18.4188 1.86585L14.7128 13.2126H2.71973C1.52175 13.2126 0.508577 13.9449 0.13837 15.0785C-0.231755 16.2119 0.155269 17.3968 1.12439 18.0972L10.8268 25.11L7.12079 36.4569C6.8482 37.2911 6.98355 38.169 7.49207 38.865C8.01124 39.5757 8.84 40.0001 9.70896 40C10.2738 40 10.8232 39.8188 11.2976 39.4758L21 32.4631L30.7024 39.4758C31.177 39.8188 31.7264 40.0001 32.2913 40C33.1603 40 33.9891 39.5756 34.5082 38.8647C35.0164 38.1687 35.1518 37.291 34.8793 36.4569L31.1733 25.11L40.8757 18.0973C41.8448 17.3968 42.2317 16.212 41.8616 15.0785ZM39.9188 16.7871L29.738 24.1457C29.4527 24.3518 29.3334 24.7174 29.4423 25.0508L33.331 36.9571C33.4734 37.3935 33.3336 37.7177 33.191 37.9127C32.9804 38.2013 32.6355 38.3804 32.291 38.3804C32.069 38.3804 31.8565 38.3082 31.6591 38.1656L21.4784 30.807C21.3357 30.7039 21.1679 30.6524 21 30.6524C20.8322 30.6524 20.6642 30.704 20.5216 30.807L10.3408 38.1655C10.1435 38.308 9.93077 38.3804 9.7088 38.3804C9.36443 38.3805 9.01965 38.2013 8.80891 37.9131C8.66634 37.7179 8.5264 37.3936 8.66889 36.9572L12.5576 25.0507C12.6665 24.7171 12.5472 24.3518 12.2619 24.1456L2.08112 16.7871C1.61034 16.4469 1.56859 15.9399 1.68646 15.5788C1.80434 15.2178 2.1378 14.8319 2.71973 14.8319H15.304C15.6566 14.8319 15.9692 14.6061 16.078 14.2724L19.9667 2.3661C20.1466 1.81542 20.6184 1.6194 21 1.6194C21.3816 1.6194 21.8534 1.81559 22.0333 2.3661L25.922 14.2724C26.0309 14.6061 26.3434 14.8319 26.696 14.8319H39.2803C39.8622 14.8319 40.1956 15.2178 40.3135 15.5788C40.4313 15.9399 40.3896 16.4469 39.9188 16.7871Z" fill="#808080"/>
<path d="M25.1715 21.1445C25.1715 18.8564 23.3004 16.9949 21.0003 16.9949C18.7003 16.9949 16.8291 18.8565 16.8291 21.1445C16.8291 23.4326 18.7004 25.2941 21.0003 25.2941C23.3004 25.2941 25.1715 23.4325 25.1715 21.1445ZM21.0002 23.6747C19.5977 23.6747 18.4568 22.5396 18.4568 21.1444C18.4568 19.7492 19.5977 18.6141 21.0002 18.6141C22.4027 18.6141 23.5437 19.7492 23.5437 21.1444C23.5437 22.5396 22.4028 23.6747 21.0002 23.6747Z" fill="#808080"/>
<path d="M20.9999 15.4767C21.4496 15.4767 21.8139 15.1141 21.8139 14.667V8.79676C21.8139 8.34964 21.4496 7.98706 20.9999 7.98706C20.5505 7.98706 20.186 8.34964 20.186 8.79676V14.667C20.1861 15.1141 20.5505 15.4767 20.9999 15.4767Z" fill="#808080"/>
<path d="M24.9836 26.6446C24.6659 26.3285 24.1505 26.3285 23.8326 26.6446C23.5148 26.9609 23.5148 27.4734 23.8326 27.7897L28.005 31.9405C28.1639 32.0986 28.3722 32.1777 28.5806 32.1777C28.7889 32.1777 28.9972 32.0986 29.1561 31.9405C29.4739 31.6242 29.4739 31.1117 29.1561 30.7954L24.9836 26.6446Z" fill="#808080"/>
<path d="M17.0172 26.6445L12.8448 30.7954C12.527 31.1117 12.527 31.6242 12.8448 31.9405C13.0037 32.0986 13.212 32.1776 13.4203 32.1776C13.6286 32.1776 13.837 32.0986 13.9959 31.9405L18.1683 27.7897C18.4861 27.4733 18.4861 26.9609 18.1683 26.6445C17.8505 26.3286 17.3352 26.3285 17.0172 26.6445Z" fill="#808080"/>
<path d="M33.7398 16.9972L28.04 18.5165C27.6058 18.6322 27.3481 19.0762 27.4645 19.5082C27.5619 19.87 27.8908 20.1086 28.2501 20.1086C28.3199 20.1086 28.3907 20.0996 28.4614 20.0808L34.1612 18.5615C34.5953 18.4458 34.853 18.0018 34.7367 17.5698C34.6202 17.1379 34.1745 16.8817 33.7398 16.9972Z" fill="#808080"/>
<path d="M13.7493 20.1085C14.1086 20.1085 14.4375 19.87 14.535 19.5081C14.6513 19.0762 14.3936 18.6322 13.9594 18.5164L8.25966 16.9971C7.82531 16.8815 7.37922 17.1378 7.26282 17.5696C7.14642 18.0016 7.40416 18.4455 7.83835 18.5613L13.5381 20.0807C13.6087 20.0994 13.6796 20.1085 13.7493 20.1085Z" fill="#808080"/>
</svg>
