<svg width="269" height="269" viewBox="0 0 269 269" fill="none" xmlns="http://www.w3.org/2000/svg">
<path d="M160.126 53.6562H143.85C143.201 53.6565 142.56 53.7982 141.971 54.0712C141.383 54.3443 140.86 54.7423 140.441 55.2375C140.021 55.7328 139.714 56.3134 139.542 56.9392C139.369 57.5649 139.335 58.2206 139.442 58.8609L142.361 76.3663V81.0791H161.615V76.3663L164.535 58.8609C164.641 58.2206 164.607 57.5649 164.435 56.9392C164.262 56.3134 163.955 55.7328 163.536 55.2375C163.116 54.7423 162.594 54.3443 162.005 54.0712C161.416 53.7982 160.775 53.6565 160.126 53.6562ZM48.396 219.848C48.396 219.848 20.0476 201.363 17.8477 152.026C17.2798 139.292 13.3763 111.784 4.43359 102.841H31.2617C31.2617 102.841 38.8004 143.459 62.5612 152.026L48.396 219.848Z" fill="#212529"/>
<path d="M67.0325 134.141C67.0325 134.141 4.36645 4.47144 151.988 4.47144C299.61 4.47144 236.944 134.141 236.944 134.141L220.847 126.396C227.241 112.982 240.463 72.901 225.059 48.4696C214.109 31.1386 189.548 22.3569 151.988 22.3569C114.429 22.3569 89.8677 31.1386 78.9397 48.4696C63.5359 72.901 76.7577 113 83.1517 126.396L67.0325 134.141Z" fill="#7E78E0"/>
<path d="M232.473 116.255H71.5038C71.5038 116.255 40.2043 147.555 40.2043 192.268C40.2043 219.096 62.5611 245.924 98.3319 245.924H205.644C241.415 245.924 263.772 219.096 263.772 192.268C263.772 147.555 232.473 116.255 232.473 116.255Z" fill="#343A40"/>
<path d="M93.8606 245.924H210.116V254.867C210.116 257.239 209.174 259.513 207.497 261.191C205.819 262.868 203.545 263.81 201.173 263.81H102.803C100.432 263.81 98.1569 262.868 96.4798 261.191C94.8027 259.513 93.8606 257.239 93.8606 254.867V245.924ZM263.54 196.74H161.043C168.307 193.019 174.43 187.403 178.763 180.486C186.811 166.558 181.723 148.57 181.723 148.57C171.576 152.13 162.878 158.922 156.965 167.904C153.017 175.568 151.547 184.269 152.757 192.805C149.493 186.933 144.817 181.967 139.151 178.358C127.905 171.861 113.36 176.001 113.36 176.001C116.143 184.261 121.598 191.36 128.862 196.176C130.581 197.136 132.402 197.901 134.291 198.456C135.375 208.834 139.247 218.726 145.495 227.082C151.744 235.439 160.137 241.949 169.784 245.924H205.644C239.425 245.924 261.219 221.998 263.54 196.74ZM64.0143 125.198H239.962C237.657 122.062 235.155 119.075 232.473 116.255H71.5038C68.8213 119.075 66.3198 122.062 64.0143 125.198Z" fill="#212529"/>
<path d="M232.07 116.255H71.9062C75.9305 93.6748 110.27 76.0129 151.988 76.0129C193.706 76.0129 228.046 93.6748 232.07 116.255Z" fill="#343A40"/>
<path d="M142.276 194.258C135.012 189.441 129.558 182.343 126.774 174.083C126.774 174.083 141.32 169.947 152.565 176.44C160.134 181.629 166.013 188.925 169.476 197.424C169.476 197.424 153.526 200.764 142.276 194.258Z" fill="#70E000"/>
<path d="M170.379 165.986C176.294 157.007 184.991 150.218 195.137 146.66C195.137 146.66 200.216 164.649 192.177 178.577C186.261 187.556 177.561 194.345 167.414 197.902C167.414 197.902 162.339 179.914 170.379 165.986Z" fill="#9EF01A"/>
<path d="M147.517 196.74C148.692 211.349 155.326 224.98 166.097 234.92C176.868 244.86 190.988 250.379 205.644 250.379C220.301 250.379 234.42 244.86 245.192 234.92C255.963 224.98 262.597 211.349 263.772 196.74H147.517Z" fill="#7E78E0"/>
<path d="M183.288 245.925H228.001V254.867C228.001 257.239 227.059 259.514 225.382 261.191C223.705 262.868 221.43 263.81 219.059 263.81H192.23C189.859 263.81 187.584 262.868 185.907 261.191C184.23 259.514 183.288 257.239 183.288 254.867V245.925Z" fill="#4B469B"/>
<path d="M58.0898 192.268C60.5592 192.268 62.5611 190.266 62.5611 187.797C62.5611 185.327 60.5592 183.325 58.0898 183.325C55.6203 183.325 53.6184 185.327 53.6184 187.797C53.6184 190.266 55.6203 192.268 58.0898 192.268Z" fill="#1E120B"/>
<path d="M75.6623 139.529C75.165 139.216 74.611 139.005 74.0319 138.906C73.4529 138.808 72.8601 138.825 72.2875 138.956C71.7149 139.086 71.1737 139.329 70.6948 139.669C70.2159 140.009 69.8086 140.44 69.4963 140.937C63.9356 149.68 59.6747 159.184 56.8469 169.151C56.6827 169.719 56.6328 170.314 56.7 170.901C56.7673 171.489 56.9503 172.057 57.2385 172.573C57.5267 173.089 57.9145 173.543 58.3792 173.908C58.844 174.274 59.3766 174.543 59.9462 174.701C60.5158 174.86 61.1112 174.903 61.6977 174.83C62.2843 174.756 62.8505 174.567 63.3636 174.274C63.8766 173.98 64.3264 173.587 64.6868 173.119C65.0471 172.65 65.311 172.115 65.4632 171.544C68.0605 162.412 71.9689 153.705 77.0663 145.695C77.379 145.198 77.5908 144.644 77.6895 144.065C77.7881 143.486 77.7718 142.893 77.6414 142.321C77.5111 141.748 77.2692 141.207 76.9296 140.728C76.59 140.249 76.1594 139.841 75.6623 139.529Z" fill="#1E120B"/>
<path d="M242.533 34.3937C226.781 11.5719 196.317 0 151.988 0C107.659 0 77.1959 11.5719 61.4433 34.3937C40.5711 64.6424 51.7316 106.32 58.528 125.082C55.7192 129.021 53.1279 133.111 50.7657 137.333C43.3916 126.701 38.2503 114.685 35.6526 102.009C35.4589 100.986 34.9143 100.063 34.1128 99.3987C33.3112 98.7342 32.3029 98.3704 31.2617 98.3698H4.43358C3.55499 98.3824 2.69933 98.6521 1.97227 99.1455C1.24521 99.6389 0.678582 100.334 0.342352 101.146C0.00612221 101.958 -0.0849841 102.851 0.0802842 103.714C0.245552 104.577 0.659958 105.372 1.27233 106.002C8.45779 113.179 12.7369 137.825 13.3763 152.227C15.451 198.801 39.7796 219.025 44.9753 222.83C49.9167 230.336 56.465 236.649 64.1465 241.313C71.8279 245.977 80.4502 248.875 89.3893 249.797V254.867C89.3893 258.425 90.8026 261.837 93.3182 264.352C95.8338 266.868 99.2457 268.281 102.803 268.281H219.059C222.616 268.281 226.028 266.868 228.544 264.352C231.059 261.837 232.473 258.425 232.473 254.867V248.844C242.525 244.204 251.147 236.951 257.439 227.842C263.731 218.732 267.462 208.101 268.243 197.057C269.871 167.506 255.75 138.567 245.462 125.068C252.245 106.32 263.405 64.6424 242.533 34.3937ZM68.8211 39.4731C82.7851 19.2268 110.776 8.94271 151.988 8.94271C193.201 8.94271 221.191 19.2268 235.155 39.4776C251.959 63.8331 244.992 97.6052 238.867 116.667C237.915 115.551 236.931 114.464 235.916 113.407C235.218 110.652 234.166 107.999 232.786 105.515C237.297 87.8487 239.984 63.8465 228.788 46.0907C217.015 27.3692 191.171 17.8854 151.988 17.8854C112.806 17.8854 86.9613 27.3692 75.157 46.0862C63.9786 63.842 66.6614 87.8442 71.1596 105.511C69.7793 107.995 68.7272 110.648 68.0296 113.402C67.5825 113.881 66.5496 114.954 65.0785 116.662C58.9573 97.6186 51.9998 63.8286 68.8211 39.4731ZM151.988 80.4844C187.379 80.4844 218.075 93.8671 225.967 111.784H78.0097C85.9016 93.8671 116.597 80.4844 151.988 80.4844ZM143.855 58.1276H160.122L157.864 71.6982C153.949 71.5014 150.027 71.5014 146.113 71.6982L143.855 58.1276ZM225.766 96.237C213.456 83.7708 192.052 74.8505 166.847 72.3063L168.966 59.5942C169.171 58.3127 169.095 57.002 168.745 55.7523C168.396 54.5026 167.779 53.3435 166.939 52.3545C166.099 51.3655 165.054 50.5701 163.877 50.023C162.701 49.4759 161.419 49.19 160.122 49.1849H143.855C142.559 49.1932 141.28 49.4815 140.106 50.03C138.932 50.5785 137.89 51.3743 137.053 52.3629C136.215 53.3515 135.6 54.5096 135.252 55.7577C134.903 57.0058 134.829 58.3145 135.033 59.5942L137.152 72.3063C111.947 74.8505 90.5429 83.7708 78.2333 96.237C75.5862 82.6575 74.3521 64.1282 82.7046 50.8527C92.7786 34.9123 116.083 26.8281 151.988 26.8281C187.893 26.8281 211.198 34.9168 221.254 50.8572C229.624 64.1282 228.39 82.6575 225.766 96.237ZM36.3412 199.834C27.4935 185.357 22.6541 168.788 22.319 151.825C21.9166 142.931 19.4484 120.892 12.7682 107.312H27.6846C29.5849 115.128 35.0355 133.644 46.3659 145.985C38.2479 162.708 34.785 181.31 36.3412 199.834ZM102.803 259.339C101.617 259.339 100.48 258.867 99.6416 258.029C98.8031 257.19 98.332 256.053 98.332 254.867V250.396H178.816V254.867C178.831 256.394 179.11 257.907 179.639 259.339H102.803ZM223.53 254.867C223.53 256.053 223.059 257.19 222.22 258.029C221.382 258.867 220.244 259.339 219.059 259.339H192.23C191.045 259.339 189.907 258.867 189.069 258.029C188.23 257.19 187.759 256.053 187.759 254.867V250.396H223.53V254.867ZM227.067 241.453H184.222C175.972 237.967 168.738 232.449 163.197 225.412C157.656 218.375 153.988 210.049 152.534 201.211H258.755C257.302 210.049 253.633 218.375 248.092 225.412C242.551 232.449 235.317 237.967 227.067 241.453ZM148.975 192.268C147.419 191.807 145.92 191.176 144.503 190.386C139.569 187.246 135.612 182.786 133.083 177.513C138.985 176.66 145.006 177.644 150.329 180.33C155.04 183.342 158.964 187.435 161.776 192.268H148.975ZM174.251 168.221C178.513 161.551 184.597 156.241 191.783 152.92C193.134 160.896 191.914 169.095 188.3 176.332C184.03 182.997 177.948 188.307 170.768 191.638C169.403 183.661 170.623 175.456 174.251 168.221ZM259.301 192.268H186.163C190.111 189.064 193.458 185.184 196.049 180.808C204.934 165.418 199.671 146.245 199.438 145.435C199.274 144.857 198.996 144.318 198.619 143.851C198.243 143.383 197.775 142.996 197.246 142.712C196.716 142.429 196.135 142.255 195.537 142.201C194.939 142.148 194.336 142.215 193.764 142.399C182.549 146.282 172.95 153.795 166.489 163.75C164.022 168.153 162.438 172.995 161.825 178.005C159.717 175.902 157.35 174.076 154.783 172.567C142.039 165.212 126.197 169.594 125.531 169.786C124.958 169.949 124.423 170.225 123.957 170.598C123.492 170.97 123.106 171.432 122.822 171.956C122.538 172.481 122.361 173.056 122.303 173.65C122.244 174.243 122.305 174.842 122.482 175.411C125.597 184.749 131.781 192.758 140.027 198.135C141.09 198.743 142.192 199.28 143.327 199.74C144.249 207.9 146.793 215.793 150.808 222.956C154.823 230.119 160.229 236.408 166.708 241.453H98.332C64.7432 241.453 44.6758 216.445 44.6758 192.268C44.6758 154.977 67.8195 126.986 73.4489 120.727H230.532C236.166 126.986 259.301 154.865 259.301 192.268Z" fill="#1E120B"/>
</svg>
