<svg width="70" height="70" viewBox="0 0 70 70" fill="none" xmlns="http://www.w3.org/2000/svg">
<g clip-path="url(#clip0_4620_11604)">
<path d="M34.9999 1.45837C53.5208 1.45837 68.5416 16.4792 68.5416 35C68.5416 53.5209 53.5208 68.5417 34.9999 68.5417C16.4791 68.5417 1.45825 53.5209 1.45825 35C1.45825 16.4792 16.4791 1.45837 34.9999 1.45837Z" fill="#7E78E0"/>
<path d="M35 70C15.701 70 0 54.299 0 35C0 15.701 15.701 0 35 0C54.299 0 70 15.701 70 35C70 54.299 54.299 70 35 70ZM35 2.91667C17.3091 2.91667 2.91667 17.3091 2.91667 35C2.91667 52.6909 17.3091 67.0833 35 67.0833C52.6909 67.0833 67.0833 52.6909 67.0833 35C67.0833 17.3091 52.6909 2.91667 35 2.91667Z" fill="#231F20"/>
<path d="M61.25 31.3542V38.6458C61.25 39.4479 60.5938 40.1042 59.7917 40.1042H54.7458C54.2646 41.9708 53.5354 43.7354 52.5729 45.3542L56.1458 48.9271C56.7146 49.4958 56.7146 50.4146 56.1458 50.9833L50.9833 56.1458C50.4146 56.7146 49.4958 56.7146 48.9271 56.1458L45.3542 52.5729C43.7354 53.5354 41.9708 54.2646 40.1042 54.7458V59.7917C40.1042 60.5938 39.4479 61.25 38.6458 61.25H31.3542C30.5521 61.25 29.8958 60.5938 29.8958 59.7917V54.7458C28.0292 54.2646 26.2646 53.5354 24.6458 52.5729L21.0729 56.1458C20.5042 56.7146 19.5854 56.7146 19.0167 56.1458L13.8542 50.9833C13.2854 50.4146 13.2854 49.4958 13.8542 48.9271L17.4271 45.3542C16.4646 43.7354 15.7354 41.9708 15.2542 40.1042H10.2083C9.40625 40.1042 8.75 39.4479 8.75 38.6458V31.3542C8.75 30.5521 9.40625 29.8958 10.2083 29.8958H15.2542C15.7354 28.0292 16.4646 26.2646 17.4271 24.6458L13.8542 21.0729C13.2854 20.5042 13.2854 19.5854 13.8542 19.0167L19.0167 13.8542C19.5854 13.2854 20.5042 13.2854 21.0729 13.8542L24.6458 17.4271C26.2646 16.4646 28.0292 15.7354 29.8958 15.2542V10.2083C29.8958 9.40625 30.5521 8.75 31.3542 8.75H38.6458C39.4479 8.75 40.1042 9.40625 40.1042 10.2083V15.2542C41.9708 15.7354 43.7354 16.4646 45.3542 17.4271L48.9271 13.8542C49.4958 13.2854 50.4146 13.2854 50.9833 13.8542L56.1458 19.0167C56.7146 19.5854 56.7146 20.5042 56.1458 21.0729L52.5729 24.6458C53.5354 26.2646 54.2646 28.0292 54.7458 29.8958H59.7917C60.5938 29.8958 61.25 30.5521 61.25 31.3542Z" fill="#E7ECED"/>
<path d="M38.6459 62.7083H31.3542C29.746 62.7083 28.4376 61.3999 28.4376 59.7916V55.8458C27.2069 55.4602 26.0226 54.9708 24.8981 54.3831L22.1042 57.177C21.5537 57.7275 20.8223 58.0307 20.0449 58.0307C19.2673 58.0307 18.5359 57.7275 17.9854 57.177L12.8231 52.0146C12.2727 51.4642 11.9694 50.7329 11.9694 49.9553C11.9694 49.1779 12.2724 48.4465 12.8231 47.896L15.6169 45.1021C15.0292 43.9776 14.5397 42.7934 14.1542 41.5626H10.2084C8.60016 41.5626 7.29175 40.2542 7.29175 38.6459V31.3543C7.29175 29.746 8.60016 28.4376 10.2084 28.4376H14.1542C14.5398 27.2069 15.0292 26.0226 15.6169 24.8981L12.8231 22.1042C12.2725 21.5537 11.9694 20.8223 11.9694 20.0449C11.9694 19.2673 12.2725 18.536 12.8231 17.9854L17.9854 12.8231C18.5358 12.2727 19.2671 11.9694 20.0447 11.9694C20.8222 11.9694 21.5535 12.2724 22.104 12.8231L24.8979 15.617C26.0224 15.0293 27.2066 14.5397 28.4374 14.1543V10.2083C28.4374 8.60004 29.7458 7.29163 31.3541 7.29163H38.6458C40.254 7.29163 41.5624 8.60004 41.5624 10.2083V14.1541C42.7931 14.5397 43.9774 15.0291 45.102 15.6168L47.8958 12.8229C48.4464 12.2724 49.1777 11.9692 49.9551 11.9692C50.7327 11.9692 51.4641 12.2724 52.0146 12.8229L57.177 17.9853C57.7273 18.5357 58.0307 19.267 58.0307 20.0446C58.0307 20.822 57.7276 21.5534 57.177 22.1039L54.3831 24.8978C54.9708 26.0223 55.4604 27.2065 55.8458 28.4373H59.7917C61.4 28.4373 62.7084 29.7457 62.7084 31.354V38.6456C62.7084 40.2539 61.4 41.5623 59.7917 41.5623H55.8459C55.4604 42.793 54.9709 43.9773 54.3832 45.1018L57.1771 47.8957C57.7276 48.4462 58.0308 49.1776 58.0308 49.955C58.0308 50.7326 57.7276 51.464 57.1771 52.0145L52.0147 57.1768C51.4644 57.7272 50.733 58.0305 49.9554 58.0305C49.178 58.0305 48.4466 57.7275 47.8961 57.1768L45.1022 54.383C43.9777 54.9707 42.7936 55.4602 41.5627 55.8457V59.7916C41.5626 61.3999 40.2542 62.7083 38.6459 62.7083ZM24.6464 51.1145C24.9021 51.1145 25.1597 51.1816 25.3911 51.3193C26.8865 52.2084 28.5245 52.8861 30.2601 53.3337C30.9042 53.4999 31.3542 54.0806 31.3542 54.7459V59.7916H38.6459V54.7458C38.6459 54.0805 39.096 53.4998 39.7401 53.3335C41.4755 52.8861 43.1137 52.2083 44.609 51.3191C45.182 50.9785 45.9137 51.0696 46.3856 51.5414L49.9585 55.1143L55.1147 49.9518L51.5418 46.3852C51.0702 45.9135 50.9787 45.1819 51.3196 44.6086C52.2087 43.1133 52.8864 41.4753 53.334 39.7397C53.5002 39.0955 54.0809 38.6455 54.7462 38.6455H59.7917V31.3538H54.7459C54.0806 31.3538 53.4999 30.9038 53.3337 30.2596C52.8862 28.5242 52.2084 26.8861 51.3193 25.3907C50.9785 24.8174 51.0699 24.0859 51.5415 23.6142L55.1144 20.0413L49.9519 14.885L46.3853 18.4579C45.9135 18.9294 45.1817 19.021 44.6087 18.6802C43.1134 17.791 41.4754 17.1134 39.7398 16.6658C39.0957 16.4995 38.6456 15.9188 38.6456 15.2535V10.2083H31.354V15.2541C31.354 15.9194 30.9039 16.5001 30.2598 16.6664C28.5244 17.1138 26.8862 17.7916 25.3908 18.6808C24.8179 19.0216 24.0862 18.9303 23.6143 18.4585L20.0414 14.8856L14.8851 20.0481L18.4581 23.6147C18.9297 24.0864 19.0211 24.818 18.6803 25.3913C17.7912 26.8867 17.1135 28.5247 16.6659 30.2602C16.4997 30.9044 15.919 31.3544 15.2537 31.3544H10.2084V38.6461H15.2542C15.9195 38.6461 16.5002 39.0961 16.6665 39.7403C17.1139 41.4757 17.7917 43.1138 18.6809 44.6092C19.0217 45.1825 18.9303 45.914 18.4586 46.3857L14.8857 49.9587L20.0482 55.1149L23.6149 51.542C23.8957 51.2607 24.2692 51.1145 24.6464 51.1145Z" fill="#231F20"/>
<path d="M48.3562 42.6526L42.5229 37.5484L40.6023 39.7434L43.5147 42.2917H35.0001C30.9795 42.2917 27.7084 39.0206 27.7084 35H24.7917C24.7917 40.6289 29.3712 45.2083 35.0001 45.2083H43.5147L40.6023 47.7568L42.5229 49.9517L48.3562 44.8475C48.6727 44.5708 48.8542 44.1706 48.8542 43.7501C48.8542 43.3297 48.6727 42.9294 48.3562 42.6526Z" fill="#231F20"/>
<path d="M34.9999 24.7917H26.4853L29.3977 22.2433L27.4771 20.0483L21.6438 25.1525C21.3273 25.4293 21.1458 25.8295 21.1458 26.2499C21.1458 26.6703 21.3273 27.0705 21.6438 27.3473L27.4771 32.4515L29.3977 30.2565L26.4853 27.7084H34.9999C39.0205 27.7084 42.2916 30.9794 42.2916 35H45.2083C45.2083 29.3712 40.6288 24.7917 34.9999 24.7917Z" fill="#231F20"/>
<path d="M35 39.375C37.4162 39.375 39.375 37.4162 39.375 35C39.375 32.5838 37.4162 30.625 35 30.625C32.5838 30.625 30.625 32.5838 30.625 35C30.625 37.4162 32.5838 39.375 35 39.375Z" fill="#AFB6BB"/>
</g>
<defs>
<clipPath id="clip0_4620_11604">
<rect width="70" height="70" fill="white"/>
</clipPath>
</defs>
</svg>
