<svg width="180" height="180" viewBox="0 0 180 180" fill="none" xmlns="http://www.w3.org/2000/svg">
<g clip-path="url(#clip0_4620_11651)">
<path d="M90 3.75C137.625 3.75 176.25 42.375 176.25 90C176.25 137.625 137.625 176.25 90 176.25C42.375 176.25 3.75 137.625 3.75 90C3.75 42.375 42.375 3.75 90 3.75Z" fill="#7E78E0"/>
<path d="M90 180C40.374 180 0 139.626 0 90C0 40.374 40.374 0 90 0C139.626 0 180 40.374 180 90C180 139.626 139.626 180 90 180ZM90 7.5C44.5091 7.5 7.5 44.5091 7.5 90C7.5 135.491 44.5091 172.5 90 172.5C135.491 172.5 172.5 135.491 172.5 90C172.5 44.5091 135.491 7.5 90 7.5Z" fill="#231F20"/>
<path d="M157.5 80.625V99.375C157.5 101.438 155.812 103.125 153.75 103.125H140.775C139.537 107.925 137.662 112.463 135.188 116.625L144.375 125.812C145.838 127.275 145.838 129.638 144.375 131.1L131.1 144.375C129.638 145.838 127.275 145.838 125.812 144.375L116.625 135.188C112.463 137.662 107.925 139.537 103.125 140.775V153.75C103.125 155.812 101.438 157.5 99.375 157.5H80.625C78.5625 157.5 76.875 155.812 76.875 153.75V140.775C72.075 139.537 67.5375 137.662 63.375 135.188L54.1875 144.375C52.725 145.838 50.3625 145.838 48.9 144.375L35.625 131.1C34.1625 129.638 34.1625 127.275 35.625 125.812L44.8125 116.625C42.3375 112.463 40.4625 107.925 39.225 103.125H26.25C24.1875 103.125 22.5 101.438 22.5 99.375V80.625C22.5 78.5625 24.1875 76.875 26.25 76.875H39.225C40.4625 72.075 42.3375 67.5375 44.8125 63.375L35.625 54.1875C34.1625 52.725 34.1625 50.3625 35.625 48.9L48.9 35.625C50.3625 34.1625 52.725 34.1625 54.1875 35.625L63.375 44.8125C67.5375 42.3375 72.075 40.4625 76.875 39.225V26.25C76.875 24.1875 78.5625 22.5 80.625 22.5H99.375C101.438 22.5 103.125 24.1875 103.125 26.25V39.225C107.925 40.4625 112.463 42.3375 116.625 44.8125L125.812 35.625C127.275 34.1625 129.638 34.1625 131.1 35.625L144.375 48.9C145.838 50.3625 145.838 52.725 144.375 54.1875L135.188 63.375C137.662 67.5375 139.537 72.075 140.775 76.875H153.75C155.812 76.875 157.5 78.5625 157.5 80.625Z" fill="#E7ECED"/>
<path d="M99.375 161.25H80.625C76.4895 161.25 73.125 157.885 73.125 153.75V143.604C69.9604 142.612 66.915 141.354 64.0234 139.842L56.8391 147.027C55.4235 148.442 53.5429 149.222 51.5437 149.222C49.5442 149.222 47.6636 148.442 46.248 147.027L32.9734 133.752C31.5581 132.337 30.7781 130.456 30.7781 128.457C30.7781 126.457 31.5574 124.577 32.9734 123.161L40.1576 115.977C38.6464 113.085 37.3875 110.04 36.3964 106.875H26.25C22.1145 106.875 18.75 103.511 18.75 99.3754V80.6254C18.75 76.4899 22.1145 73.1254 26.25 73.1254H36.3964C37.3879 69.9608 38.6464 66.9154 40.1576 64.0238L32.9734 56.8395C31.5578 55.4239 30.7781 53.5433 30.7781 51.5441C30.7781 49.5446 31.5578 47.664 32.9734 46.2484L46.248 32.9738C47.6633 31.5585 49.5439 30.7785 51.5434 30.7785C53.5425 30.7785 55.4231 31.5577 56.8388 32.9738L64.023 40.158C66.9146 38.6467 69.9596 37.3879 73.1246 36.3967V26.25C73.1246 22.1145 76.4891 18.75 80.6246 18.75H99.3746C103.51 18.75 106.875 22.1145 106.875 26.25V36.3964C110.039 37.3879 113.085 38.6464 115.976 40.1576L123.161 32.9734C124.576 31.5578 126.457 30.7781 128.456 30.7781C130.455 30.7781 132.336 31.5578 133.752 32.9734L147.026 46.248C148.441 47.6633 149.221 49.5439 149.221 51.5434C149.221 53.5425 148.442 55.4231 147.026 56.8388L139.842 64.023C141.353 66.9146 142.612 69.9596 143.603 73.1246H153.75C157.885 73.1246 161.25 76.4891 161.25 80.6246V99.3746C161.25 103.51 157.885 106.875 153.75 106.875H143.604C142.612 110.039 141.354 113.085 139.842 115.976L147.027 123.161C148.442 124.576 149.222 126.457 149.222 128.456C149.222 130.455 148.442 132.336 147.027 133.752L133.752 147.026C132.337 148.441 130.456 149.221 128.457 149.221C126.457 149.221 124.577 148.442 123.161 147.026L115.977 139.842C113.085 141.353 110.04 142.612 106.875 143.603V153.75C106.875 157.885 103.51 161.25 99.375 161.25ZM63.3761 131.438C64.0339 131.438 64.6961 131.61 65.2913 131.964C69.1365 134.25 73.3485 135.993 77.8114 137.144C79.4677 137.571 80.625 139.065 80.625 140.775V153.75H99.375V140.775C99.375 139.064 100.532 137.571 102.189 137.144C106.651 135.993 110.864 134.25 114.709 131.964C116.182 131.088 118.063 131.322 119.277 132.535L128.464 141.723L141.723 128.448L132.536 119.276C131.323 118.063 131.088 116.182 131.964 114.708C134.251 110.863 135.993 106.651 137.144 102.188C137.572 100.532 139.065 99.3742 140.776 99.3742H153.75V80.6243H140.775C139.064 80.6243 137.571 79.467 137.144 77.8106C135.993 73.3481 134.25 69.1357 131.964 65.2905C131.087 63.8164 131.322 61.9354 132.535 60.7222L141.723 51.5347L128.448 38.2759L119.276 47.4634C118.063 48.6758 116.181 48.9113 114.708 48.0349C110.863 45.7485 106.651 44.0059 102.188 42.855C100.532 42.4275 99.3742 40.9342 99.3742 39.2235V26.25H80.6243V39.225C80.6243 40.9357 79.467 42.429 77.8106 42.8565C73.3481 44.007 69.1357 45.75 65.2905 48.0364C63.8171 48.9128 61.9357 48.678 60.7222 47.4649L51.5347 38.2774L38.2759 51.5524L47.4634 60.7237C48.6761 61.9365 48.9113 63.8179 48.0349 65.292C45.7485 69.1372 44.0059 73.3492 42.855 77.8121C42.4275 79.4685 40.9342 80.6257 39.2235 80.6257H26.25V99.3758H39.225C40.9357 99.3758 42.429 100.533 42.8565 102.189C44.007 106.652 45.75 110.864 48.0364 114.71C48.9128 116.184 48.6776 118.065 47.4649 119.278L38.2774 128.465L51.5524 141.724L60.7237 132.537C61.446 131.813 62.4064 131.438 63.3761 131.438Z" fill="#231F20"/>
<path d="M124.344 109.678L109.344 96.5531L104.406 102.197L111.895 108.75H90C79.6613 108.75 71.25 100.339 71.25 90H63.75C63.75 104.474 75.5258 116.25 90 116.25H111.895L104.406 122.803L109.344 128.447L124.344 115.322C125.158 114.611 125.625 113.582 125.625 112.5C125.625 111.419 125.158 110.39 124.344 109.678Z" fill="#231F20"/>
<path d="M90 63.75H68.1052L75.5944 57.1969L70.6556 51.5527L55.6556 64.6777C54.8419 65.3895 54.375 66.4185 54.375 67.4996C54.375 68.5807 54.8419 69.6097 55.6556 70.3215L70.6556 83.4465L75.5944 77.8024L68.1052 71.25H90C100.339 71.25 108.75 79.6612 108.75 90H116.25C116.25 75.5257 104.474 63.75 90 63.75Z" fill="#231F20"/>
<path d="M90 101.25C96.2132 101.25 101.25 96.2132 101.25 90C101.25 83.7868 96.2132 78.75 90 78.75C83.7868 78.75 78.75 83.7868 78.75 90C78.75 96.2132 83.7868 101.25 90 101.25Z" fill="#AFB6BB"/>
</g>
<defs>
<clipPath id="clip0_4620_11651">
<rect width="180" height="180" fill="white"/>
</clipPath>
</defs>
</svg>
