<svg width="198" height="133" viewBox="0 0 198 133" fill="none" xmlns="http://www.w3.org/2000/svg">
<g clip-path="url(#clip0_4626_14728)">
<path d="M185.59 3.38672H57.9707C55.7101 3.39355 53.5448 4.29927 51.9509 5.9047C50.357 7.51013 49.4651 9.68381 49.4712 11.9477V89.5823C49.4651 91.8463 50.357 94.0199 51.9509 95.6254C53.5448 97.2308 55.7101 98.1365 57.9707 98.1433H185.59C186.709 98.1403 187.817 97.9164 188.85 97.4846C189.883 97.0527 190.822 96.4212 191.611 95.6263C192.401 94.8313 193.026 93.8884 193.452 92.8514C193.877 91.8144 194.095 90.7035 194.092 89.5823V11.9477C194.095 10.8265 193.877 9.71571 193.452 8.67869C193.026 7.64167 192.401 6.69876 191.611 5.90379C190.822 5.10883 189.883 4.47738 188.85 4.0455C187.817 3.61362 186.709 3.38976 185.59 3.38672Z" fill="#CCCCCC"/>
<path d="M49.4734 22.4252H194.091V44.5641H49.4734V22.4252Z" fill="#4D4D4D"/>
<path d="M138.996 34.8245H11.3775C9.11688 34.8314 6.95154 35.7371 5.35764 37.3425C3.76375 38.9479 2.8718 41.1216 2.87796 43.3855V121.02C2.8718 123.284 3.76375 125.458 5.35764 127.063C6.95154 128.669 9.11688 129.574 11.3775 129.581H138.996C141.257 129.574 143.422 128.669 145.016 127.063C146.61 125.458 147.502 123.284 147.496 121.02V43.3855C147.502 41.1216 146.61 38.9479 145.016 37.3425C143.422 35.7371 141.257 34.8314 138.996 34.8245Z" fill="#FFCA6C"/>
<path d="M2.87793 53.863H147.496V76.0019H2.87793V53.863Z" fill="#4D4D4D"/>
<path d="M31.4492 103.9C31.4492 107.424 32.8386 110.802 35.3116 113.294C37.7847 115.785 41.1389 117.184 44.6363 117.184C48.1338 117.184 51.488 115.785 53.961 113.294C56.4341 110.802 57.8235 107.424 57.8235 103.9C57.8235 102.156 57.4824 100.429 56.8197 98.8169C56.1569 97.2053 55.1856 95.7409 53.961 94.5073C52.7365 93.2738 51.2828 92.2953 49.6828 91.6278C48.0829 90.9602 46.3681 90.6166 44.6363 90.6166C42.9046 90.6166 41.1898 90.9602 39.5898 91.6278C37.9899 92.2953 36.5362 93.2738 35.3116 94.5073C34.0871 95.7409 33.1157 97.2053 32.453 98.8169C31.7903 100.429 31.4492 102.156 31.4492 103.9Z" fill="#47A7DD"/>
<path d="M18.2625 103.9C18.2625 107.424 19.6518 110.802 22.1249 113.294C24.5979 115.785 27.9521 117.184 31.4496 117.184C34.947 117.184 38.3012 115.785 40.7743 113.294C43.2473 110.802 44.6367 107.424 44.6367 103.9C44.6367 100.377 43.2473 96.9985 40.7743 94.5073C38.3012 92.0161 34.947 90.6166 31.4496 90.6166C27.9521 90.6166 24.5979 92.0161 22.1249 94.5073C19.6518 96.9985 18.2625 100.377 18.2625 103.9Z" fill="#FC583D"/>
<path d="M185.59 0.0643311H146.178C144.357 0.0643311 142.881 1.55006 142.881 3.38401C142.881 5.21796 144.357 6.70627 146.178 6.70627H185.59C188.461 6.70627 190.795 9.05868 190.795 11.9502V19.1054H52.7679V11.9502C52.7679 9.05868 55.1014 6.70627 57.9732 6.70627H135.187C137.008 6.70627 138.482 5.21796 138.482 3.38401C138.482 1.55006 137.011 0.0643311 135.19 0.0643311H57.9732C51.4672 0.0643311 46.1743 5.39594 46.1743 11.9476V31.502H11.3778C4.87442 31.502 -0.418457 36.8336 -0.418457 43.3853V97.2559C-0.418457 99.0924 1.05737 100.578 2.87832 100.578C4.69928 100.578 6.1751 99.0899 6.1751 97.2559V79.3265H144.199V121.02C144.199 123.909 141.866 126.259 138.997 126.259H11.3778C9.99475 126.253 8.6703 125.699 7.69496 124.716C6.71963 123.734 6.17305 122.405 6.1751 121.02V108.327C6.1751 106.493 4.69928 105.007 2.87832 105.007C1.05737 105.007 -0.418457 106.493 -0.418457 108.327V121.02C-0.418457 127.572 4.87442 132.901 11.3778 132.901H138.997C145.5 132.901 150.793 127.572 150.793 121.02V43.3853C150.793 36.8336 145.5 31.502 138.997 31.502H52.7705V25.7474H190.797V41.2444H158.049C156.228 41.2444 154.752 42.7301 154.752 44.564C154.752 46.398 156.228 47.8863 158.049 47.8863H190.797V89.5796C190.799 90.9657 190.253 92.296 189.277 93.279C188.301 94.2619 186.976 94.8174 185.592 94.8235H158.486C156.665 94.8235 155.192 96.3093 155.192 98.1432C155.192 99.9772 156.665 101.463 158.486 101.463H185.59C192.093 101.463 197.388 96.1339 197.388 89.5796V11.9502C197.388 5.39594 192.096 0.0643311 185.59 0.0643311ZM144.199 43.3853V50.5431H23.5373C21.7163 50.5431 20.2405 52.0288 20.2405 53.8628C20.2405 55.6967 21.7163 57.185 23.5373 57.185H144.199V72.682H6.1751V57.185H12.5497C14.3707 57.185 15.8465 55.6967 15.8465 53.8628C15.8465 52.0288 14.3707 50.5431 12.5497 50.5431H6.1751V43.3853C6.1751 40.4963 8.50861 38.1439 11.3778 38.1439H138.997C140.38 38.1507 141.704 38.7061 142.679 39.6885C143.654 40.6708 144.201 42.0001 144.199 43.3853Z" fill="#231F20"/>
<path d="M38.0479 119.111C40.1234 120.03 42.3672 120.505 44.6364 120.507C53.7257 120.507 61.1203 113.055 61.1203 103.901C61.1203 94.7413 53.7257 87.2945 44.6364 87.2945C42.3569 87.2945 40.1136 87.7769 38.0479 88.6848C35.969 87.7663 33.7215 87.2928 31.4492 87.2945C22.3599 87.2945 14.9653 94.7413 14.9653 103.901C14.9653 113.055 22.3599 120.507 31.4492 120.507C33.7956 120.507 36.0261 120.004 38.0479 119.111ZM54.5267 103.901C54.5267 109.392 50.0889 113.86 44.6364 113.86H44.6286C46.7799 110.987 47.9405 107.492 47.9357 103.901C47.9413 100.308 46.7806 96.8109 44.6286 93.9365H44.6364C50.0915 93.9365 54.5267 98.404 54.5267 103.901ZM21.5615 103.901C21.5615 98.404 25.9967 93.9365 31.4518 93.9365C36.9044 93.9365 41.3422 98.404 41.3422 103.901C41.3422 109.392 36.9044 113.86 31.4518 113.86C25.9967 113.862 21.5615 109.392 21.5615 103.901ZM131.514 93.6089C133.333 93.6089 134.811 92.1232 134.811 90.2892C134.811 88.4553 133.333 86.9695 131.514 86.9695H82.7245C80.9035 86.9695 79.4277 88.4553 79.4277 90.2892C79.4277 92.1232 80.9035 93.6089 82.7245 93.6089H131.514Z" fill="#231F20"/>
</g>
<defs>
<clipPath id="clip0_4626_14728">
<rect width="198" height="133" fill="white"/>
</clipPath>
</defs>
</svg>
