<svg width="38" height="40" viewBox="0 0 38 40" fill="none" xmlns="http://www.w3.org/2000/svg">
<path d="M37.7874 10.2746L30.0111 0.390927C29.8161 0.144473 29.5277 0 29.214 0H8.79387C8.48011 0 8.19178 0.144473 7.99674 0.390927L0.220483 10.2746C0.076321 10.4531 0 10.674 0 10.9035V38.6848C0 39.2457 0.457926 39.7046 1.01761 39.7046H36.9818C37.5414 39.7046 37.9994 39.2457 37.9994 38.6848V10.9035C38.0078 10.674 37.9315 10.4531 37.7874 10.2746ZM35.0228 10.0536H20.0215V2.03962H28.7221L35.0228 10.0536ZM9.28572 2.03962H17.9863V10.0536H2.985L9.28572 2.03962ZM2.03523 37.665V12.0932H35.9641V37.665H2.03523Z" fill="#55585D"/>
<path d="M9.24506 1.98523H18.0933V10.0585H2.97205L9.24506 1.98523Z" fill="#AD8A4D"/>
<path d="M28.922 1.98523H20.0738V10.0585H35.1951L28.922 1.98523Z" fill="#967342"/>
<rect x="2" y="12" width="34" height="26" fill="#CFA05F"/>
<path d="M21.5918 25.5432L24.3892 23.3005L28.1656 23.1603L27.8858 26.9449L26.4872 29.1876L24.9486 30.0286L20.333 30.7294L21.5918 25.5432Z" fill="#4ABAAA"/>
<path fill-rule="evenodd" clip-rule="evenodd" d="M22.0704 24.2926C23.1549 23.2058 24.6257 22.5953 26.1593 22.5953H28.6376V25.0789C28.6376 26.6159 28.0284 28.0899 26.9439 29.1767C25.8595 30.2634 24.3886 30.874 22.855 30.874H20.3767V28.3904C20.3767 26.8534 20.986 25.3794 22.0704 24.2926ZM27.8115 25.0789V23.4232H26.1593C24.8452 23.4246 23.5854 23.9484 22.6561 24.8796C21.7269 25.8108 21.2043 27.0734 21.2028 28.3904V28.8755L23.9231 26.1493C24.0784 25.9957 24.2879 25.9099 24.5061 25.9106C24.7243 25.9112 24.9333 25.9984 25.0876 26.153C25.2419 26.3076 25.3288 26.5171 25.3295 26.7357C25.3302 26.9543 25.2446 27.1644 25.0913 27.3199L22.371 30.0461H22.855C24.1691 30.0447 25.429 29.5209 26.3582 28.5897C27.2874 27.6584 27.8101 26.3959 27.8115 25.0789Z" fill="#1D2025"/>
<path d="M9.14371 19.7963L14.039 20.0766L17.6756 21.6185L19.7736 25.2629V30.7294L15.7174 30.1688L11.8012 28.6269L9.70317 25.2629L9.14371 19.7963Z" fill="#6AD3B5"/>
<path fill-rule="evenodd" clip-rule="evenodd" d="M8.81152 19.2838H12.1159C14.3068 19.2838 16.408 20.156 17.9572 21.7086C19.5064 23.2611 20.3767 25.3669 20.3767 27.5625V30.874H17.0724C15.9876 30.874 14.9133 30.6599 13.9111 30.2438C12.9088 29.8278 11.9982 29.218 11.2311 28.4492C10.464 27.6805 9.85549 26.7678 9.44034 25.7634C9.0252 24.759 8.81152 23.6825 8.81152 22.5953V19.2838ZM9.63761 20.1117V22.5953C9.6399 24.5707 10.4239 26.4645 11.8177 27.8613C13.2115 29.2581 15.1013 30.0438 17.0724 30.0461H18.3825L14.0101 25.6642C13.8568 25.5086 13.7711 25.2986 13.7718 25.08C13.7725 24.8613 13.8595 24.6519 14.0137 24.4972C14.168 24.3426 14.377 24.2555 14.5952 24.2548C14.8134 24.2541 15.0229 24.3399 15.1782 24.4935L19.5507 28.8755V27.5625C19.5484 25.5871 18.7643 23.6933 17.3705 22.2965C15.9767 20.8997 14.087 20.114 12.1159 20.1117H9.63761Z" fill="#1D2025"/>
</svg>
