<svg width="44" height="55" viewBox="0 0 44 55" fill="none" xmlns="http://www.w3.org/2000/svg">
<path d="M43 46.9348L39.9752 12.5632C39.9207 11.883 39.3549 11.3674 38.6695 11.3674H32.2933C32.2824 5.65163 27.6689 1 22 1C16.3311 1 11.7177 5.65163 11.7067 11.3674H5.33057C4.65596 11.3674 4.09015 11.883 4.02487 12.5632L1 46.9348C1 46.9787 1 47.0116 1 47.0555C1 50.8842 4.49275 54 8.7798 54H35.2202C39.5072 54 43 50.8842 43 47.0555C43 47.0116 43 46.9787 43 46.9348ZM22 3.633C26.2326 3.633 29.671 7.09977 29.6818 11.3674H14.3182C14.329 7.09977 17.7674 3.633 22 3.633ZM35.2202 51.356H8.7798C5.95078 51.356 3.64404 49.4581 3.6114 47.0994L6.52746 14.0004H11.7067V18.6191C11.7067 19.3432 12.2943 19.9356 13.0124 19.9356C13.7306 19.9356 14.3182 19.3432 14.3182 18.6191V14.0004H29.6818V18.6191C29.6818 19.3432 30.2694 19.9356 30.9876 19.9356C31.7057 19.9356 32.2933 19.3432 32.2933 18.6191V14.0004H37.4725L40.3886 47.1103C40.356 49.4581 38.0492 51.356 35.2202 51.356Z" fill="#FFB833" stroke="black"/>
<path d="M23.4907 33.1882H20.4985C19.4104 33.1882 18.529 32.2995 18.529 31.2025C18.529 30.1054 19.4104 29.2167 20.4985 29.2167H25.7648C26.4829 29.2167 27.0705 28.6244 27.0705 27.9003C27.0705 27.1762 26.4829 26.5838 25.7648 26.5838H23.3057V24.7517C23.3057 24.0276 22.7181 23.4352 22 23.4352C21.2818 23.4352 20.6944 24.0276 20.6944 24.7517V26.5838H20.5093C17.985 26.5838 15.9285 28.6573 15.9285 31.2025C15.9285 33.7477 17.985 35.8212 20.5093 35.8212H23.5015C24.5896 35.8212 25.471 36.7099 25.471 37.807C25.471 38.904 24.5896 39.7927 23.5015 39.7927H18.1373C17.4192 39.7927 16.8316 40.3851 16.8316 41.1092C16.8316 41.8332 17.4192 42.4256 18.1373 42.4256H20.6944V44.3017C20.6944 45.0257 21.2818 45.6181 22 45.6181C22.7181 45.6181 23.3057 45.0257 23.3057 44.3017V42.4256H23.5233C23.5342 42.4256 23.5451 42.4256 23.556 42.4256C26.0585 42.3927 28.0715 40.3302 28.0715 37.807C28.0715 35.2617 26.015 33.1882 23.4907 33.1882Z" fill="#FFB833" stroke="black"/>
</svg>
