<svg width="82" height="55" viewBox="0 0 82 55" fill="none" xmlns="http://www.w3.org/2000/svg">
<g clip-path="url(#clip0_4626_14440)">
<path d="M76.8603 1.40051H24.0081C23.0718 1.40334 22.1751 1.77788 21.515 2.44178C20.8549 3.10568 20.4855 4.00457 20.4881 4.94078V37.0453C20.4855 37.9815 20.8549 38.8804 21.515 39.5443C22.1751 40.2082 23.0718 40.5828 24.0081 40.5856H76.8603C77.324 40.5843 77.7828 40.4917 78.2107 40.3132C78.6386 40.1346 79.0271 39.8734 79.3541 39.5447C79.681 39.2159 79.94 38.826 80.1163 38.3972C80.2926 37.9683 80.3826 37.509 80.3814 37.0453V4.94078C80.3826 4.47713 80.2926 4.01776 80.1163 3.58892C79.94 3.16008 79.681 2.77015 79.3541 2.44141C79.0271 2.11266 78.6386 1.85154 78.2107 1.67294C77.7828 1.49434 77.324 1.40177 76.8603 1.40051Z" fill="#CCCCCC"/>
<path d="M20.489 9.27356H80.3813V18.4288H20.489V9.27356Z" fill="#4D4D4D"/>
<path d="M57.5642 14.4011H4.71191C3.7757 14.4039 2.87895 14.7785 2.21885 15.4424C1.55875 16.1063 1.18936 17.0052 1.19191 17.9414V50.0459C1.18936 50.9821 1.55875 51.881 2.21885 52.5449C2.87895 53.2088 3.7757 53.5834 4.71191 53.5862H57.5642C58.5004 53.5834 59.3971 53.2088 60.0572 52.5449C60.7173 51.881 61.0867 50.9821 61.0842 50.0459V17.9414C61.0867 17.0052 60.7173 16.1063 60.0572 15.4424C59.3971 14.7785 58.5004 14.4039 57.5642 14.4011Z" fill="#FFCA6C"/>
<path d="M1.19189 22.2742H61.0842V31.4294H1.19189V22.2742Z" fill="#4D4D4D"/>
<path d="M13.0244 42.9664C13.0244 44.4233 13.5998 45.8205 14.624 46.8507C15.6482 47.8809 17.0373 48.4597 18.4857 48.4597C19.9342 48.4597 21.3233 47.8809 22.3475 46.8507C23.3717 45.8205 23.9471 44.4233 23.9471 42.9664C23.9471 42.245 23.8058 41.5306 23.5314 40.8641C23.2569 40.1977 22.8546 39.5921 22.3475 39.082C21.8404 38.5719 21.2383 38.1672 20.5757 37.8912C19.9131 37.6151 19.2029 37.473 18.4857 37.473C17.7686 37.473 17.0584 37.6151 16.3958 37.8912C15.7332 38.1672 15.1311 38.5719 14.624 39.082C14.1169 39.5921 13.7146 40.1977 13.4401 40.8641C13.1657 41.5306 13.0244 42.245 13.0244 42.9664Z" fill="#47A7DD"/>
<path d="M7.56323 42.9664C7.56323 44.4233 8.13862 45.8205 9.16282 46.8507C10.187 47.8809 11.5761 48.4597 13.0246 48.4597C14.473 48.4597 15.8621 47.8809 16.8863 46.8507C17.9105 45.8205 18.4859 44.4233 18.4859 42.9664C18.4859 41.5094 17.9105 40.1122 16.8863 39.082C15.8621 38.0518 14.473 37.473 13.0246 37.473C11.5761 37.473 10.187 38.0518 9.16282 39.082C8.13862 40.1122 7.56323 41.5094 7.56323 42.9664Z" fill="#FC583D"/>
<path d="M76.8603 0.0266113H60.5381C59.784 0.0266113 59.1728 0.641012 59.1728 1.39941C59.1728 2.15781 59.784 2.77328 60.5381 2.77328H76.8603C78.0496 2.77328 79.016 3.74608 79.016 4.94181V7.90074H21.8533V4.94181C21.8533 3.74608 22.8197 2.77328 24.0091 2.77328H55.9867C56.7408 2.77328 57.3509 2.15781 57.3509 1.39941C57.3509 0.641012 56.7419 0.0266113 55.9877 0.0266113H24.0091C21.3147 0.0266113 19.1227 2.23141 19.1227 4.94074V13.0271H4.71199C2.01866 13.0271 -0.17334 15.2319 -0.17334 17.9413V40.2186C-0.17334 40.9781 0.43786 41.5925 1.19199 41.5925C1.94613 41.5925 2.55733 40.977 2.55733 40.2186V32.8042H59.7189V50.0458C59.7189 51.2405 58.7525 52.2122 57.5643 52.2122H4.71199C4.1392 52.21 3.59069 51.9806 3.18676 51.5745C2.78284 51.1684 2.55647 50.6186 2.55733 50.0458V44.7967C2.55733 44.0383 1.94613 43.4239 1.19199 43.4239C0.43786 43.4239 -0.17334 44.0383 -0.17334 44.7967V50.0458C-0.17334 52.7551 2.01866 54.9589 4.71199 54.9589H57.5643C60.2576 54.9589 62.4496 52.7551 62.4496 50.0458V17.9413C62.4496 15.2319 60.2576 13.0271 57.5643 13.0271H21.8544V10.6474H79.0171V17.0559H65.4544C64.7003 17.0559 64.0891 17.6703 64.0891 18.4287C64.0891 19.1871 64.7003 19.8026 65.4544 19.8026H79.0171V37.0442C79.0179 37.6174 78.7915 38.1675 78.3874 38.574C77.9833 38.9805 77.4345 39.2102 76.8613 39.2127H65.6357C64.8816 39.2127 64.2715 39.8271 64.2715 40.5855C64.2715 41.3439 64.8816 41.9583 65.6357 41.9583H76.8603C79.5536 41.9583 81.7467 39.7546 81.7467 37.0442V4.94181C81.7467 2.23141 79.5547 0.0266113 76.8603 0.0266113ZM59.7189 17.9413V20.9013H9.74773C8.99359 20.9013 8.38239 21.5157 8.38239 22.2741C8.38239 23.0325 8.99359 23.6479 9.74773 23.6479H59.7189V30.0565H2.55733V23.6479H5.19733C5.95146 23.6479 6.56266 23.0325 6.56266 22.2741C6.56266 21.5157 5.95146 20.9013 5.19733 20.9013H2.55733V17.9413C2.55733 16.7466 3.52373 15.7738 4.71199 15.7738H57.5643C58.1371 15.7766 58.6854 16.0063 59.0893 16.4125C59.4931 16.8188 59.7195 17.3685 59.7189 17.9413Z" fill="black"/>
<path d="M15.7572 49.2566C16.6167 49.6365 17.546 49.833 18.4858 49.8336C22.25 49.8336 25.3124 46.752 25.3124 42.9664C25.3124 39.1787 22.25 36.0992 18.4858 36.0992C17.5418 36.0992 16.6127 36.2987 15.7572 36.6742C14.8963 36.2943 13.9654 36.0985 13.0244 36.0992C9.26015 36.0992 6.19775 39.1787 6.19775 42.9664C6.19775 46.752 9.26015 49.8336 13.0244 49.8336C13.9962 49.8336 14.9199 49.6256 15.7572 49.2566ZM22.5818 42.9664C22.5818 45.2374 20.7439 47.0848 18.4858 47.0848H18.4826C19.3735 45.8968 19.8542 44.4514 19.8522 42.9664C19.8545 41.4808 19.3738 40.0346 18.4826 38.8459H18.4858C20.745 38.8459 22.5818 40.6934 22.5818 42.9664ZM8.92949 42.9664C8.92949 40.6934 10.7663 38.8459 13.0255 38.8459C15.2836 38.8459 17.1215 40.6934 17.1215 42.9664C17.1215 45.2374 15.2836 47.0848 13.0255 47.0848C10.7663 47.0859 8.92949 45.2374 8.92949 42.9664ZM54.4655 38.7104C55.2186 38.7104 55.8308 38.096 55.8308 37.3376C55.8308 36.5792 55.2186 35.9648 54.4655 35.9648H34.2596C33.5055 35.9648 32.8943 36.5792 32.8943 37.3376C32.8943 38.096 33.5055 38.7104 34.2596 38.7104H54.4655Z" fill="black"/>
</g>
<defs>
<clipPath id="clip0_4626_14440">
<rect width="82" height="55" fill="white"/>
</clipPath>
</defs>
</svg>
