<svg width="20" height="20" viewBox="0 0 20 20" fill="none" xmlns="http://www.w3.org/2000/svg">
<path d="M18.1787 8.17453H11.82V1.82107C11.82 0.815383 11.0086 0 10.0029 0C8.9972 0 8.18622 0.815383 8.18622 1.82151V8.17894H1.82438C0.818702 8.17894 0.0011166 8.99432 0.00155711 10.0004C0.0011166 10.5031 0.204191 10.9638 0.533252 11.2929C0.862753 11.6228 1.31736 11.8312 1.81954 11.8312H8.18622V18.1798C8.18622 18.6829 8.38577 19.1384 8.71527 19.467C9.04477 19.7965 9.49805 20.0004 10.0011 20.0004C11.0064 20.0004 11.82 19.1851 11.82 18.1798V11.8308H18.1787C19.1844 11.8308 19.9998 11.0083 19.9994 10.0026C19.9989 8.9974 19.1835 8.17453 18.1787 8.17453Z" fill="#FFFFD9"/>
</svg>
