<svg width="127" height="91" viewBox="0 0 127 91" fill="none" xmlns="http://www.w3.org/2000/svg">
<path d="M54.545 77.494L55.8508 81.5054C56.039 82.0835 56.5785 82.475 57.1875 82.475H69.8128C70.4215 82.475 70.9613 82.0835 71.1491 81.5054L72.4548 77.494H54.545Z" fill="#FF8163"/>
<path d="M125.056 76.2052C125.056 76.9139 124.473 77.4938 123.76 77.4938H3.23977C2.52713 77.4938 1.94397 76.9139 1.94397 76.2052V5.30505C1.94397 4.5964 2.52713 4.01651 3.23977 4.01651H123.76C124.473 4.01651 125.056 4.5964 125.056 5.30505V76.2052Z" fill="#FFBAC5"/>
<path d="M125.056 76.2052C125.056 76.9139 124.473 77.4938 123.76 77.4938H3.23977C2.52713 77.4938 1.94397 76.9139 1.94397 76.2052V5.30505C1.94397 4.5964 2.52713 4.01651 3.23977 4.01651H123.76C124.473 4.01651 125.056 4.5964 125.056 5.30505V76.2052Z" fill="#FFBAC5"/>
<path d="M68.2784 72.1786V88.171L74.3215 84.944L80.0837 88.171V72.1786H68.2784Z" fill="#AADDC0"/>
<path d="M119.716 70.8898C119.716 71.5984 119.132 72.1783 118.42 72.1783H8.58016C7.86752 72.1783 7.28436 71.5984 7.28436 70.8898V3.32562C7.28436 2.61698 7.86752 2.03709 8.58016 2.03709H118.419C119.132 2.03709 119.715 2.61698 119.715 3.32562V70.8898H119.716Z" fill="#F7EFD0"/>
<path d="M63.5 70.8898C63.5 71.5984 62.9168 72.1783 62.2042 72.1783H8.58016C7.86752 72.1783 7.28436 71.5984 7.28436 70.8898V3.32562C7.28436 2.61698 7.86752 2.03709 8.58016 2.03709H62.2039C62.9166 2.03709 63.4997 2.61698 63.4997 3.32562V70.8898H63.5Z" fill="#FFF9E9"/>
<g opacity="0.1">
<path d="M12.7273 3.32562C12.7273 2.61698 12.1441 2.03709 11.4315 2.03709H8.58016C7.86752 2.03709 7.28436 2.61698 7.28436 3.32562V70.8898C7.28436 71.5984 7.86752 72.1783 8.58016 72.1783H11.4312C12.1438 72.1783 12.727 71.5984 12.727 70.8898V3.32562H12.7273Z" fill="black"/>
</g>
<g opacity="0.1">
<path d="M69.2021 3.32562C69.2021 2.61698 68.619 2.03709 67.9063 2.03709H65.0553C64.3426 2.03709 63.759 2.61698 63.759 3.32562V70.8898C63.759 71.5984 64.3424 72.1783 65.0553 72.1783H67.9063C68.619 72.1783 69.2021 71.5984 69.2021 70.8898V3.32562Z" fill="black"/>
</g>
<path opacity="0.1" d="M40.8352 41.1884C40.3585 41.1884 39.9021 40.9985 39.5657 40.6613L27.177 28.2473C25.4256 26.4941 24.4607 24.1622 24.4607 21.682C24.4607 20.5272 24.6725 19.4052 25.0731 18.3581C23.8333 18.8164 22.6961 19.5406 21.7339 20.504C19.9824 22.2582 19.0175 24.5891 19.0175 27.0688C19.0175 29.5489 19.9822 31.8806 21.7339 33.634L34.1226 46.048C34.4592 46.3852 34.9153 46.5751 35.3921 46.5751C35.8681 46.5751 36.325 46.3852 36.6616 46.048L41.7862 40.9129C41.5032 41.0902 41.1746 41.1884 40.8352 41.1884Z" fill="black"/>
<path d="M47.976 53.48H23.5588C22.4852 53.48 21.6148 54.3453 21.6148 55.413C21.6148 56.4808 22.4852 57.3461 23.5588 57.3461H47.976C49.0495 57.3461 49.9199 56.4808 49.9199 55.413C49.9199 54.3455 49.0498 53.48 47.976 53.48Z" fill="#231F20"/>
<path d="M123.76 2.08347H121.409C120.918 0.922212 119.763 0.104052 118.42 0.104052H101.082C100.008 0.104052 99.1376 0.969325 99.1376 2.0371C99.1376 3.10488 100.008 3.97015 101.082 3.97015H117.772V70.2455H65.4437V3.9699H92.7876C93.8614 3.9699 94.7316 3.10463 94.7316 2.03685C94.7316 0.969078 93.8614 0.103806 92.7876 0.103806H8.58019C7.23627 0.103806 6.08161 0.921966 5.59147 2.08322H3.23974C1.45331 2.08347 0 3.52839 0 5.30505V76.2055C0 77.9819 1.45331 79.4271 3.23974 79.4271H17.3653C18.4388 79.4271 19.3092 78.5618 19.3092 77.494C19.3092 76.4262 18.4388 75.561 17.3653 75.561H3.88764V5.94932H5.34045V70.8898C5.34045 72.6662 6.79376 74.1114 8.58019 74.1114H62.204H66.3344V75.5607H26.6955C25.622 75.5607 24.7516 76.426 24.7516 77.4938C24.7516 78.5616 25.622 79.4268 26.6955 79.4268H53.1306L54.001 82.1006C54.4503 83.4804 55.7307 84.4078 57.1872 84.4078H66.3344V88.171C66.3344 88.8511 66.6936 89.481 67.2805 89.8298C67.8676 90.1788 68.5954 90.1954 69.1976 89.874L74.299 87.1504L79.1297 89.8555C80.3116 90.5167 82.0276 89.7006 82.0276 88.1713V79.4273H123.76C125.547 79.4273 127 77.9822 127 76.2057V5.30505C127 3.52839 125.547 2.08347 123.76 2.08347ZM61.5561 70.2455H9.22834V3.9699H61.5563V70.2455H61.5561ZM66.3344 80.542H57.5804L57.2175 79.4271H66.3347V80.542H66.3344ZM78.1397 84.8639L75.2753 83.2596C74.6948 82.9348 73.9882 82.9276 73.4015 83.2411L70.2218 84.9389V74.1116H78.1395V84.8641L78.1397 84.8639ZM123.112 75.561H82.0274V74.1116H118.419C120.206 74.1116 121.659 72.6665 121.659 70.89V5.94932H123.112V75.561H123.112Z" fill="#231F20"/>
<path d="M74.7432 19.4012H84.2997C85.3735 19.4012 86.2436 18.536 86.2436 17.4682C86.2436 16.4004 85.3735 15.5351 84.2997 15.5351H74.7432C73.6694 15.5351 72.7993 16.4004 72.7993 17.4682C72.7993 18.5357 73.6694 19.4012 74.7432 19.4012Z" fill="#231F20"/>
<path d="M74.7432 28.6597H87.1106C88.1844 28.6597 89.0545 27.7944 89.0545 26.7267C89.0545 25.6589 88.1844 24.7936 87.1106 24.7936H74.7432C73.6694 24.7936 72.7993 25.6589 72.7993 26.7267C72.7993 27.7944 73.6694 28.6597 74.7432 28.6597Z" fill="#231F20"/>
<path d="M106.932 34.0526H74.7432C73.6694 34.0526 72.7993 34.9179 72.7993 35.9857C72.7993 37.0534 73.6694 37.9187 74.7432 37.9187H106.932C108.006 37.9187 108.876 37.0534 108.876 35.9857C108.876 34.9179 108.006 34.0526 106.932 34.0526Z" fill="#231F20"/>
<path d="M106.932 43.3111H74.7432C73.6694 43.3111 72.7993 44.1764 72.7993 45.2441C72.7993 46.3119 73.6694 47.1772 74.7432 47.1772H106.932C108.006 47.1772 108.876 46.3119 108.876 45.2441C108.876 44.1766 108.006 43.3111 106.932 43.3111Z" fill="#231F20"/>
<path d="M106.932 52.5699H74.7432C73.6694 52.5699 72.7993 53.4352 72.7993 54.5029C72.7993 55.5707 73.6694 56.436 74.7432 56.436H106.932C108.006 56.436 108.876 55.5707 108.876 54.5029C108.876 53.4352 108.006 52.5699 106.932 52.5699Z" fill="#231F20"/>
<path d="M102.301 9.52634H103.717L105.614 15.5956L112.241 15.8204L112.607 16.4947L107.282 20.6758L109.225 26.8349L108.516 27.3969L103.032 23.4856L97.7988 27.3294L96.7476 27.0372L98.7357 20.4348L93.4113 16.5397L94.0968 15.5956H100.564L102.301 9.52634Z" fill="#FFDD28"/>
<path d="M112.934 16.0221C112.758 15.4885 112.275 15.1436 111.705 15.1436H105.994L104.229 9.80091C104.053 9.26722 103.57 8.92236 103 8.92236C102.43 8.92236 101.947 9.26715 101.771 9.80091L100.006 15.1436H94.2951C93.7246 15.1436 93.2422 15.4884 93.0659 16.0221C92.8896 16.5558 93.0739 17.1137 93.5354 17.4435L98.1556 20.7455L96.3909 26.0882C96.261 26.4811 96.3255 26.8944 96.5677 27.2221C96.8149 27.5568 97.2095 27.7566 97.6233 27.7565C97.8923 27.7565 98.1539 27.6712 98.3798 27.5097L103 24.2077L107.62 27.5097C107.846 27.6712 108.108 27.7566 108.377 27.7565C108.791 27.7565 109.185 27.5567 109.432 27.222C109.674 26.8942 109.739 26.481 109.609 26.0882L107.844 20.7455L112.465 17.4436C112.926 17.1137 113.11 16.5558 112.934 16.0221ZM112.009 16.8267L107.161 20.2915C107.025 20.3885 106.968 20.5606 107.02 20.7176L108.872 26.3238C108.94 26.5292 108.873 26.6819 108.805 26.7737C108.705 26.9096 108.541 26.994 108.377 26.994C108.271 26.994 108.17 26.96 108.076 26.8928L103.228 23.428C103.16 23.3794 103.08 23.3552 103 23.3552C102.92 23.3552 102.84 23.3795 102.772 23.428L97.9242 26.8927C97.8302 26.9599 97.7289 26.994 97.6232 26.994C97.4593 26.994 97.2951 26.9096 97.1947 26.7739C97.1268 26.682 97.0602 26.5293 97.128 26.3238L98.9798 20.7176C99.0317 20.5605 98.9749 20.3885 98.839 20.2914L93.991 16.8266C93.7668 16.6665 93.7469 16.4277 93.8031 16.2577C93.8592 16.0877 94.018 15.906 94.2951 15.906H100.288C100.456 15.906 100.604 15.7997 100.656 15.6426L102.508 10.0365C102.594 9.77716 102.818 9.68486 103 9.68486C103.182 9.68486 103.406 9.77724 103.492 10.0365L105.344 15.6426C105.396 15.7997 105.544 15.906 105.712 15.906H111.705C111.982 15.906 112.141 16.0877 112.197 16.2577C112.253 16.4277 112.233 16.6665 112.009 16.8267Z" fill="#0F0F0F"/>
<path d="M104.986 18.8783C104.986 17.801 104.095 16.9245 103 16.9245C101.905 16.9245 101.014 17.801 101.014 18.8783C101.014 19.9557 101.905 20.8322 103 20.8322C104.095 20.8322 104.986 19.9556 104.986 18.8783ZM103 20.0697C102.332 20.0697 101.789 19.5352 101.789 18.8783C101.789 18.2213 102.332 17.6869 103 17.6869C103.668 17.6869 104.211 18.2213 104.211 18.8783C104.211 19.5352 103.668 20.0697 103 20.0697Z" fill="#0F0F0F"/>
<path d="M103 16.2096C103.214 16.2096 103.388 16.0389 103.388 15.8284V13.0643C103.388 12.8538 103.214 12.6831 103 12.6831C102.786 12.6831 102.612 12.8538 102.612 13.0643V15.8284C102.612 16.0389 102.786 16.2096 103 16.2096Z" fill="#0F0F0F"/>
<path d="M104.897 21.4681C104.746 21.3193 104.5 21.3193 104.349 21.4681C104.197 21.617 104.197 21.8583 104.349 22.0073L106.336 23.9617C106.411 24.0361 106.51 24.0734 106.61 24.0734C106.709 24.0734 106.808 24.0361 106.884 23.9617C107.035 23.8128 107.035 23.5715 106.884 23.4225L104.897 21.4681Z" fill="#0F0F0F"/>
<path d="M101.103 21.4681L99.1165 23.4225C98.9652 23.5714 98.9652 23.8127 99.1165 23.9617C99.1922 24.0361 99.2913 24.0733 99.3905 24.0733C99.4897 24.0733 99.5889 24.0361 99.6646 23.9617L101.651 22.0072C101.803 21.8583 101.803 21.617 101.651 21.4681C101.5 21.3193 101.255 21.3192 101.103 21.4681Z" fill="#0F0F0F"/>
<path d="M109.067 16.9256L106.352 17.641C106.146 17.6954 106.023 17.9045 106.078 18.1079C106.125 18.2782 106.281 18.3906 106.452 18.3906C106.486 18.3906 106.519 18.3864 106.553 18.3775L109.267 17.6621C109.474 17.6076 109.597 17.3986 109.541 17.1952C109.486 16.9918 109.274 16.8712 109.067 16.9256Z" fill="#0F0F0F"/>
<path d="M99.5474 18.3905C99.7184 18.3905 99.8751 18.2782 99.9215 18.1078C99.9769 17.9045 99.8542 17.6954 99.6474 17.6409L96.9333 16.9255C96.7264 16.8711 96.514 16.9918 96.4586 17.1951C96.4031 17.3985 96.5259 17.6075 96.7326 17.662L99.4468 18.3774C99.4804 18.3863 99.5142 18.3905 99.5474 18.3905Z" fill="#0F0F0F"/>
<g clip-path="url(#clip0_4813_4614)">
<path d="M39.3206 25.2352C39.3097 25.1268 39.2589 25.0264 39.178 24.9535C39.0971 24.8806 38.992 24.8405 38.8831 24.841H38.4281C36.9104 24.8724 35.4233 24.4115 34.1887 23.527C33.751 23.2221 33.3787 22.8325 33.0939 22.3811C32.8091 21.9297 32.6176 21.4257 32.5306 20.899H37.925C37.9896 20.8986 38.0533 20.8838 38.1116 20.8558C38.1698 20.8278 38.2212 20.7872 38.2619 20.7369C38.3031 20.6869 38.3328 20.6284 38.3486 20.5655C38.3645 20.5026 38.3663 20.437 38.3537 20.3734L38.0037 18.6214C37.9833 18.5209 37.9283 18.4309 37.8484 18.3668C37.7684 18.3028 37.6686 18.2689 37.5662 18.271H31.4806C31.088 18.2418 30.6997 18.3682 30.3993 18.623C30.0989 18.8778 29.9106 19.2406 29.875 19.6332V20.0974C29.875 24.1621 33.9963 27.4691 39.0625 27.4691C39.1236 27.4689 39.1839 27.456 39.2397 27.4311C39.2954 27.4062 39.3453 27.3699 39.3862 27.3245C39.4277 27.2794 39.4593 27.2261 39.4789 27.168C39.4985 27.1099 39.5057 27.0483 39.5 26.9873L39.3206 25.2352Z" fill="#A5BC79"/>
<path d="M55.25 15.5685C55.0442 15.3171 54.7851 15.1148 54.4915 14.9762C54.1979 14.8375 53.8771 14.766 53.5525 14.7669H39.01C38.6863 14.7681 38.367 14.8413 38.0749 14.981C37.7829 15.1208 37.5255 15.3237 37.3213 15.5751C37.117 15.8265 36.9711 16.1201 36.8939 16.4348C36.8167 16.7495 36.8103 17.0774 36.875 17.3949L39.675 31.4111C39.7759 31.9058 40.0443 32.3504 40.435 32.6696C40.8256 32.9889 41.3145 33.1632 41.8188 33.1631H50.7525C51.2568 33.1632 51.7456 32.9889 52.1363 32.6696C52.5269 32.3504 52.7954 31.9058 52.8963 31.4111L55.6875 17.3949C55.7545 17.0771 55.7499 16.7483 55.6743 16.4324C55.5986 16.1165 55.4537 15.8214 55.25 15.5685Z" fill="#A5BC79"/>
<path d="M41.25 18.709C41.1342 18.7106 41.0232 18.7559 40.9394 18.836C40.8988 18.8769 40.8668 18.9254 40.845 18.9788C40.8232 19.0322 40.8122 19.0893 40.8125 19.147C40.8125 20.7194 41.2238 21.9327 42.0331 22.743C42.8425 23.5533 44.05 23.965 45.625 23.965C45.6826 23.9654 45.7397 23.9543 45.793 23.9325C45.8463 23.9107 45.8948 23.8786 45.9356 23.838C45.9762 23.7971 46.0083 23.7485 46.03 23.6952C46.0518 23.6418 46.0628 23.5847 46.0625 23.527C46.0625 20.3778 44.3956 18.709 41.25 18.709ZM51.6231 18.836C51.5393 18.7559 51.4283 18.7106 51.3125 18.709C48.1669 18.709 46.5 20.3778 46.5 23.527C46.5 23.6432 46.5461 23.7546 46.6281 23.8367C46.7102 23.9189 46.8215 23.965 46.9375 23.965C48.5081 23.965 49.7156 23.5533 50.525 22.743C51.3344 21.9327 51.75 20.7194 51.75 19.147C51.7503 19.0893 51.7393 19.0322 51.7175 18.9788C51.6958 18.9254 51.6637 18.8769 51.6231 18.836Z" fill="#EB5D40"/>
<path d="M49.3831 20.9822C49.3366 20.9481 49.2839 20.9236 49.2279 20.91C49.1719 20.8964 49.1138 20.8941 49.0569 20.903C49 20.912 48.9454 20.9321 48.8963 20.9622C48.8471 20.9923 48.8044 21.0319 48.7706 21.0786L46.2813 24.5257L43.7919 21.0786C43.758 21.032 43.7152 20.9925 43.6661 20.9625C43.617 20.9324 43.5624 20.9123 43.5056 20.9034C43.4487 20.8944 43.3906 20.8968 43.3346 20.9103C43.2787 20.9238 43.2259 20.9483 43.1794 20.9822C43.1328 21.0161 43.0934 21.0589 43.0634 21.1081C43.0334 21.1573 43.0133 21.2119 43.0044 21.2688C42.9955 21.3258 42.9978 21.3839 43.0113 21.44C43.0248 21.496 43.0492 21.5488 43.0831 21.5954L45.9269 25.5375C45.9674 25.5935 46.0207 25.6392 46.0823 25.6707C46.1439 25.7022 46.2121 25.7186 46.2813 25.7186C46.3504 25.7186 46.4186 25.7022 46.4802 25.6707C46.5418 25.6392 46.5951 25.5935 46.6356 25.5375L49.4794 21.5954C49.5134 21.5489 49.5379 21.496 49.5515 21.44C49.565 21.3839 49.5674 21.3258 49.5585 21.2688C49.5495 21.2118 49.5294 21.1572 49.4994 21.108C49.4693 21.0588 49.4298 21.0161 49.3831 20.9822Z" fill="#7F4633"/>
<path d="M53.4038 28.5115C53.363 28.4599 53.3112 28.4181 53.2521 28.3893C53.193 28.3605 53.1282 28.3454 53.0625 28.3451H39.5C39.4335 28.3434 39.3675 28.357 39.307 28.3848C39.2465 28.4125 39.1931 28.4538 39.1509 28.5053C39.1087 28.5568 39.0788 28.6173 39.0635 28.6821C39.0482 28.747 39.0478 28.8144 39.0625 28.8794L39.6444 31.4505C39.7539 31.9416 40.029 32.38 40.4234 32.6919C40.8178 33.0038 41.3075 33.1702 41.81 33.1631H50.7525C51.2536 33.1682 51.7412 33.0008 52.1338 32.6891C52.5264 32.3774 52.8002 31.9401 52.9094 31.4505L53.5 28.8794C53.5126 28.8148 53.5105 28.7482 53.4939 28.6845C53.4772 28.6208 53.4464 28.5617 53.4038 28.5115ZM42.4094 7.86395C42.3212 7.78844 42.2067 7.7511 42.091 7.76013C41.9753 7.76917 41.8679 7.82384 41.7925 7.91213C41.7171 8.00042 41.6798 8.11508 41.6888 8.2309C41.6978 8.34672 41.7524 8.45421 41.8406 8.52972C42.6106 9.1911 42.3569 9.66415 41.7575 10.5883C41.2106 11.4337 40.445 12.5988 41.8406 13.7858C41.8843 13.8232 41.9349 13.8516 41.9895 13.8694C42.0442 13.8872 42.1018 13.8941 42.159 13.8896C42.2163 13.8851 42.2722 13.8694 42.3234 13.8433C42.3746 13.8172 42.4202 13.7813 42.4575 13.7376C42.4949 13.6939 42.5232 13.6432 42.541 13.5885C42.5588 13.5338 42.5657 13.4762 42.5612 13.4188C42.5567 13.3615 42.541 13.3056 42.515 13.2543C42.4889 13.203 42.453 13.1574 42.4094 13.12C41.6394 12.4586 41.8931 11.9856 42.4925 11.0614C43.0394 10.216 43.7919 9.07284 42.4094 7.86395ZM46.7844 7.86395C46.7407 7.82656 46.6901 7.79815 46.6355 7.78034C46.5809 7.76252 46.5233 7.75566 46.466 7.76013C46.4087 7.76461 46.3529 7.78033 46.3016 7.80641C46.2504 7.83249 46.2049 7.86841 46.1675 7.91213C46.1302 7.95584 46.1018 8.00649 46.084 8.06119C46.0662 8.11589 46.0593 8.17355 46.0638 8.2309C46.0683 8.28825 46.084 8.34416 46.11 8.39543C46.1361 8.4467 46.172 8.49233 46.2156 8.52972C46.9856 9.1911 46.7319 9.66415 46.1325 10.5883C45.5856 11.4337 44.82 12.5988 46.2156 13.7858C46.3038 13.8613 46.4183 13.8986 46.534 13.8896C46.6497 13.8806 46.7571 13.8259 46.8325 13.7376C46.9079 13.6493 46.9452 13.5346 46.9362 13.4188C46.9272 13.303 46.8726 13.1955 46.7844 13.12C46.0144 12.4586 46.2681 11.9856 46.8675 11.0614C47.4144 10.216 48.1669 9.07284 46.7844 7.86395ZM51.2425 11.0614C51.7894 10.216 52.555 9.05094 51.1594 7.86395C51.1157 7.82656 51.0651 7.79815 51.0105 7.78034C50.9559 7.76252 50.8983 7.75566 50.841 7.76013C50.7837 7.76461 50.7279 7.78033 50.6766 7.80641C50.6254 7.83249 50.5799 7.86841 50.5425 7.91213C50.5052 7.95584 50.4768 8.00649 50.459 8.06119C50.4412 8.11589 50.4343 8.17355 50.4388 8.2309C50.4433 8.28825 50.459 8.34416 50.485 8.39543C50.5111 8.4467 50.547 8.49233 50.5906 8.52972C51.3606 9.1911 51.1069 9.66415 50.5075 10.5883C49.9606 11.4337 49.195 12.5988 50.5906 13.7858C50.6343 13.8232 50.6849 13.8516 50.7395 13.8694C50.7942 13.8872 50.8518 13.8941 50.909 13.8896C50.9663 13.8851 51.0222 13.8694 51.0734 13.8433C51.1246 13.8172 51.1702 13.7813 51.2075 13.7376C51.2449 13.6939 51.2732 13.6432 51.291 13.5885C51.3088 13.5338 51.3157 13.4762 51.3112 13.4188C51.3067 13.3615 51.291 13.3056 51.265 13.2543C51.2389 13.203 51.203 13.1574 51.1594 13.12C50.3894 12.4586 50.6431 11.9856 51.2425 11.0614Z" fill="#578C6D"/>
</g>
<defs>
<clipPath id="clip0_4813_4614">
<rect width="28" height="27.7556" fill="white" transform="translate(29 5.94854)"/>
</clipPath>
</defs>
</svg>
