<svg width="50" height="50" viewBox="0 0 50 50" fill="none" xmlns="http://www.w3.org/2000/svg">
<path d="M17.125 15.9724C17.125 16.6438 16.5831 17.1881 15.9148 17.1881H10.4013C9.73298 17.1881 9.19128 16.6439 9.19128 15.9724C9.19128 15.3007 9.73308 14.7565 10.4013 14.7565H15.9148C16.5832 14.7565 17.125 15.3007 17.125 15.9724Z" fill="#578C6D"/>
<path d="M16.1988 16.9258C20.8101 16.9258 24.5617 20.7405 24.5617 25.4297V33.9336C24.5617 34.7874 23.8808 35.4797 23.0412 35.4797H3.27509C2.43524 35.4797 1.75458 34.7873 1.75458 33.9336V25.4297C1.75458 20.7406 5.50604 16.9258 10.1172 16.9258H16.1988Z" fill="#78B591"/>
<path opacity="0.1" d="M4.98079 33.9336V25.4297C4.98079 20.7406 8.73225 16.9258 13.3434 16.9258H10.1171C5.50598 16.9258 1.75452 20.7405 1.75452 25.4297V33.9336C1.75452 34.7874 2.43528 35.4797 3.27502 35.4797H6.50129C5.66145 35.4797 4.98079 34.7873 4.98079 33.9336Z" fill="black"/>
<path d="M25.5819 27.9392C25.1764 27.9392 24.8479 27.6105 24.8479 27.2052V16.7827C24.8479 10.2211 19.6038 4.88315 13.158 4.88315C6.71221 4.88315 1.46826 10.2212 1.46826 16.7827V27.2052C1.46826 27.6106 1.13945 27.9392 0.734082 27.9392C0.328613 27.9392 0 27.6105 0 27.2052V16.7827C0 9.41157 5.90273 3.41479 13.1581 3.41479C20.4135 3.41479 26.3162 9.41177 26.3162 16.7828V27.2053C26.3161 27.6106 25.9876 27.9392 25.5819 27.9392Z" fill="#578C6D"/>
<path d="M24.9182 32.2598C24.6222 32.2598 24.3359 32.1471 24.1183 31.9425C23.8817 31.7201 23.7474 31.4091 23.7474 31.0837V27.4952C23.7474 26.9416 24.1314 26.4632 24.6695 26.3458C26.7096 25.9007 28.5262 24.8209 29.9228 23.2235C30.145 22.9696 30.4652 22.8235 30.8023 22.8235H32.8334C33.1829 22.8235 33.514 22.9805 33.7363 23.2511C33.9586 23.5217 34.0493 23.8783 33.983 24.2229C33.1298 28.6565 29.434 31.96 24.9959 32.257C24.97 32.2592 24.9441 32.2598 24.9182 32.2598Z" fill="#78B591"/>
<path d="M42.2562 45.1185C42.2562 45.9285 41.6106 46.5851 40.8138 46.5851H36.1986C35.4021 46.5851 34.7562 45.9284 34.7562 45.1185V43.0652C34.7562 42.2552 35.402 41.5984 36.1986 41.5984H40.8138C41.6106 41.5984 42.2562 42.2553 42.2562 43.0652V45.1185Z" fill="#A5BC79"/>
<path opacity="0.1" d="M36.9324 45.1185V43.0652C36.9324 42.2552 37.5783 41.5984 38.3749 41.5984H36.1989C35.4024 41.5984 34.7565 42.2553 34.7565 43.0652V45.1185C34.7565 45.9285 35.4023 46.5851 36.1989 46.5851H38.3749C37.5783 46.5851 36.9324 45.9286 36.9324 45.1185Z" fill="black"/>
<path d="M36.6312 45.2375C34.8019 45.2375 33.3138 43.7243 33.3138 41.8642V34.9802C33.3138 34.4075 33.7782 33.9431 34.3509 33.9431H42.6615C43.2342 33.9431 43.6985 34.4075 43.6985 34.9802V41.8642C43.6985 43.7242 42.2103 45.2375 40.381 45.2375H36.6312Z" fill="#78B591"/>
<path opacity="0.1" d="M35.4805 41.8642V34.9802C35.4805 34.4075 35.9448 33.9431 36.5176 33.9431H34.351C33.7783 33.9431 33.314 34.4075 33.314 34.9802V41.8642C33.314 43.7242 34.8021 45.2375 36.6313 45.2375H38.7979C36.9686 45.2375 35.4805 43.7243 35.4805 41.8642Z" fill="black"/>
<path d="M36.5181 35.4933H33.314V37.2134H36.5181C36.9914 37.2134 37.375 36.8284 37.375 36.3532C37.375 35.8782 36.9914 35.4933 36.5181 35.4933Z" fill="#578C6D"/>
<path d="M36.5181 38.2458H33.314V39.966H36.5181C36.9914 39.966 37.375 39.581 37.375 39.1057C37.375 38.6306 36.9914 38.2458 36.5181 38.2458Z" fill="#578C6D"/>
<path d="M36.5181 40.998H33.314V41.8642C33.314 42.1594 33.3514 42.4455 33.4215 42.7184H36.5182C36.9915 42.7184 37.3751 42.3332 37.3751 41.8582C37.375 41.3832 36.9914 40.998 36.5181 40.998Z" fill="#578C6D"/>
<path d="M9.64922 44.9346C4.32871 44.9346 0 40.5334 0 35.1228V25.3109C0 24.3256 0.785547 23.5269 1.75439 23.5269H24.5616C25.5303 23.5269 26.3161 24.3256 26.3161 25.3109V35.1228C26.3161 40.5333 21.9872 44.9346 16.6667 44.9346H9.64922Z" fill="#A5BC79"/>
<path opacity="0.1" d="M4.29004 35.1228V25.3109C4.29004 24.3256 5.07559 23.5269 6.04434 23.5269H1.75439C0.785547 23.5269 0 24.3256 0 25.3109V35.1228C0 40.5333 4.32871 44.9346 9.64922 44.9346H13.9392C8.61856 44.9346 4.29004 40.5334 4.29004 35.1228Z" fill="black"/>
<path d="M46.6202 21.351H44.8248C44.3952 21.351 44.047 21.6991 44.047 22.1288C44.047 22.5585 44.3952 22.9066 44.8248 22.9066H46.6202C47.6262 22.9066 48.4444 23.7305 48.4444 24.7429C48.4444 25.7556 47.6261 26.5793 46.6202 26.5793H41.4568C39.8258 26.5793 38.4988 27.9108 38.4988 29.5476V30.9699C38.4988 31.3994 38.847 31.7477 39.2766 31.7477C39.7063 31.7477 40.0544 31.3994 40.0544 30.9699V29.5476C40.0544 28.7687 40.6835 28.1349 41.4568 28.1349H46.6201C48.4839 28.1349 49.9999 26.6133 49.9999 24.7429C49.9999 22.8726 48.484 21.351 46.6202 21.351Z" fill="#FCE9C3"/>
<path d="M42.8173 24.8959H38.7593C36.8289 24.8959 35.2582 23.3194 35.2582 21.3818C35.2582 19.4442 36.8289 17.8679 38.7593 17.8679H40.2163C40.646 17.8679 40.9941 18.2161 40.9941 18.6458C40.9941 19.0752 40.646 19.4236 40.2163 19.4236H38.7593C37.6865 19.4236 36.8138 20.3021 36.8138 21.3817C36.8138 22.4617 37.6866 23.3402 38.7593 23.3402H42.8173C43.2469 23.3402 43.595 23.6883 43.595 24.1178C43.595 24.5476 43.2469 24.8959 42.8173 24.8959Z" fill="#F2D8A0"/>
<path d="M7.14932 27.0312H0V28.7516H7.14932C7.62266 28.7516 8.00625 28.3666 8.00625 27.8913C8.00635 27.4163 7.62266 27.0312 7.14932 27.0312Z" fill="#7E8E51"/>
<path d="M3.11426 31.0515H0V32.7718H3.11426C3.5875 32.7718 3.97119 32.3869 3.97119 31.9117C3.97119 31.4365 3.5876 31.0515 3.11426 31.0515Z" fill="#7E8E51"/>
<path d="M0.444238 38.0679H25.8717C26.0275 37.5655 26.1441 37.0457 26.2188 36.5125H0.097168C0.171973 37.0457 0.288477 37.5655 0.444238 38.0679Z" fill="#7E8E51"/>
<path d="M26.2059 45.4089C26.2059 46.0584 25.6815 46.5852 25.0351 46.5852H1.62206C0.975574 46.5852 0.451355 46.0584 0.451355 45.4089V44.8208C0.451355 44.1714 0.975574 43.6448 1.62206 43.6448H25.0351C25.6815 43.6448 26.2059 44.1715 26.2059 44.8208V45.4089Z" fill="#78B591"/>
<path opacity="0.1" d="M4.78192 45.4089V44.8208C4.78192 44.1714 5.30614 43.6448 5.95262 43.6448H1.62206C0.975574 43.6448 0.451355 44.1715 0.451355 44.8208V45.4089C0.451355 46.0584 0.975574 46.5852 1.62206 46.5852H5.95253C5.30614 46.5851 4.78192 46.0584 4.78192 45.4089Z" fill="black"/>
</svg>
