<svg width="45" height="45" viewBox="0 0 45 45" fill="none" xmlns="http://www.w3.org/2000/svg">
<path d="M39.8175 36.848C43.052 32.9505 45 27.949 45 22.5C45 10.0935 34.9065 0 22.5 0C10.0935 0 0 10.0935 0 22.5C0 27.949 1.948 32.9505 5.1825 36.848C5.235 36.9285 5.296 37.0055 5.374 37.0705C5.375 37.0715 5.3765 37.072 5.3775 37.073C9.5075 41.9185 15.649 45 22.5 45C29.351 45 35.4925 41.9185 39.6225 37.073C39.624 37.072 39.625 37.0715 39.6265 37.0705C39.704 37.005 39.765 36.9285 39.8175 36.848ZM22.5 2C33.8035 2 43 11.1965 43 22.5C43 27.0845 41.487 31.3225 38.934 34.741C35.8935 31.4885 31.996 29.246 27.733 28.2295C30.9815 26.395 33.1835 22.915 33.1835 18.925C33.1835 13.034 28.391 8.2415 22.5 8.2415C16.609 8.2415 11.8165 13.034 11.8165 18.925C11.8165 22.9145 14.0185 26.3945 17.267 28.229C13.004 29.2455 9.1065 31.488 6.066 34.7405C3.513 31.3225 2 27.0845 2 22.5C2 11.1965 11.1965 2 22.5 2ZM22.5 27.6085C17.712 27.6085 13.8165 23.713 13.8165 18.925C13.8165 14.137 17.712 10.241 22.5 10.241C27.288 10.241 31.1835 14.1365 31.1835 18.9245C31.1835 23.7125 27.288 27.6085 22.5 27.6085ZM22.5 43C16.507 43 11.1065 40.4145 7.355 36.3005C11.24 32.0395 16.709 29.6085 22.5 29.6085C28.2905 29.6085 33.76 32.04 37.645 36.3005C33.8935 40.4145 28.493 43 22.5 43Z" fill="#55585D"/>
<circle cx="22.5002" cy="18.9" r="9" fill="#FFBB85"/>
<path d="M27.9 36.9C27.9 36.9 16.2 41.4 14.85 39.15C-4.08196 34.6898 18.9001 34.65 16.65 34.65C16.65 34.65 17.0931 47.329 6.87856 36.079C10.9248 32.1781 16.4357 29.7 22.5 29.7C28.4086 29.7 33.7853 32.2749 37.8 36C37.8 36.9 28.35 36.9 27.9 36.9Z" fill="#D9D9D9"/>
<path d="M37.7995 35.9998C38.2496 35.55 34.9259 43.1999 22.4995 43.1999C10.0731 43.1999 4.94958 34.3199 9.8996 34.65C23.3996 35.55 22.2232 36 34.6496 36C47.076 36 9.89946 41.8498 37.7995 35.9998Z" fill="#D9D9D9"/>
</svg>
