<svg width="50" height="50" viewBox="0 0 50 50" fill="none" xmlns="http://www.w3.org/2000/svg">
<path d="M44.2417 40.9422C47.8356 36.6117 50 31.0544 50 25C50 11.215 38.785 0 25 0C11.215 0 0 11.215 0 25C0 31.0544 2.16444 36.6117 5.75833 40.9422C5.81667 41.0317 5.88444 41.1172 5.97111 41.1894C5.97222 41.1906 5.97389 41.1911 5.975 41.1922C10.5639 46.5761 17.3878 50 25 50C32.6122 50 39.4361 46.5761 44.025 41.1922C44.0267 41.1911 44.0278 41.1906 44.0294 41.1894C44.1156 41.1167 44.1833 41.0317 44.2417 40.9422ZM25 2.22222C37.5594 2.22222 47.7778 12.4406 47.7778 25C47.7778 30.0939 46.0967 34.8028 43.26 38.6011C39.8817 34.9872 35.5511 32.4956 30.8144 31.3661C34.4239 29.3278 36.8706 25.4611 36.8706 21.0278C36.8706 14.4822 31.5456 9.15722 25 9.15722C18.4544 9.15722 13.1294 14.4822 13.1294 21.0278C13.1294 25.4606 15.5761 29.3272 19.1856 31.3656C14.4489 32.495 10.1183 34.9867 6.74 38.6006C3.90333 34.8028 2.22222 30.0939 2.22222 25C2.22222 12.4406 12.4406 2.22222 25 2.22222ZM25 30.6761C19.68 30.6761 15.3517 26.3478 15.3517 21.0278C15.3517 15.7078 19.68 11.3789 25 11.3789C30.32 11.3789 34.6483 15.7072 34.6483 21.0272C34.6483 26.3472 30.32 30.6761 25 30.6761ZM25 47.7778C18.3411 47.7778 12.3406 44.905 8.17222 40.3339C12.4889 35.5994 18.5656 32.8983 25 32.8983C31.4339 32.8983 37.5111 35.6 41.8278 40.3339C37.6594 44.905 31.6589 47.7778 25 47.7778Z" fill="black"/>
<circle cx="25" cy="21" r="10" fill="#FFBB85"/>
<path d="M30.9999 41C30.9999 41 17.9999 46 16.4999 43.5C-4.53561 38.5443 21 38.5 18.4999 38.5C18.4999 38.5 18.9922 52.5879 7.64274 40.0879C12.1386 35.7535 18.2618 33 24.9998 33C31.565 33 37.5391 35.861 41.9999 40C41.9999 41 31.4999 41 30.9999 41Z" fill="#D9D9D9"/>
<path d="M41.9999 39.9998C42.5 39.5 38.807 47.9999 24.9999 47.9999C11.1928 47.9999 5.50001 38.1332 11 38.5C26.0001 39.5 24.6929 40 38.5 40C52.3071 40 10.9999 46.4997 41.9999 39.9998Z" fill="#D9D9D9"/>
</svg>
